<?xml version="1.0" encoding="utf-8"?>
<svg version="1.1" xmlns="http://www.w3.org/2000/svg" xmlns:xlink="http://www.w3.org/1999/xlink"
	 viewBox="0 0 512 512" enable-background="new 0 0 512 512" xml:space="preserve">
<title>No Sign-up English</title>
<g>
	<rect y="0" fill="#D54848" width="512" height="512"/>
</g>
<path fill="#FFFFFF" d="M328.855,250.114c-4.979,4.636-10.146,9.125-14.88,14.026c-21.771,22.478-43.147,45.306-65.208,67.462
	c-10.654,10.729-22.166,20.79-36.217,27.271c-7.566,3.524-15.496,5.452-23.764,3.362c-13.352-3.414-20.396-14.424-19.627-30.031
	c0.744-14.77,5.76-28.454,11.596-41.779c8.468-19.471,17.717-38.629,26.635-57.926c10.778-23.401,21.85-46.714,32.27-70.275
	c3.414-7.724,5.153-16.159,7.571-24.323c0.444-1.628,0.33-3.441,0.444-5.174c-0.368-0.248-0.718-0.519-1.085-0.771
	c-2.606,2.619-5.636,4.97-7.815,7.917c-11.006,14.902-21.733,29.973-32.647,44.925c-11.646,15.914-23.001,32.108-35.333,47.534
	c-5.037,6.303-11.749,11.721-18.752,15.945c-13.501,8.174-28.959,1.051-33.693-14.402c-3.521-11.49-0.282-22.13,4.635-32.145
	c7.9-15.967,16.816-31.446,24.981-47.282c4.234-8.177,7.815-16.714,7.298-26.227c-0.385-6.213-3.167-11.355-8.066-15.173
	c-3.905-2.994-8.199-1.87-12.215-0.022c-8.916,4.094-15.462,10.887-21.238,18.534c-3.025,4.033-7.123,5.314-10.673,3.258
	c-4.43-2.524-6.02-7.147-3.08-11.65c7.789-11.91,17.751-21.671,31.42-26.892c15.194-5.772,27.711,0.5,36.269,13.915
	c6.529,10.178,7.754,21.256,4.209,32.369c-3.358,10.526-7.84,20.758-12.549,30.728c-5.888,12.539-12.852,24.587-18.688,37.093
	c-2.12,4.479-2.696,9.723-3.272,14.672c-0.218,1.821,1.154,4.237,2.606,5.568c0.585,0.549,3.687-0.664,4.85-1.848
	c6.307-6.521,13.073-12.758,18.244-20.103c14.052-19.934,27.203-40.493,41.134-60.542c7.042-10.112,14.613-19.896,22.671-29.224
	c5.118-5.905,11.497-10.888,19.627-12.485c12.433-2.384,24.071,7.675,25.118,21.311c0.749,9.319-0.354,18.445-3.602,27.077
	c-7.044,18.767-14.091,37.482-22.008,55.849c-12.276,28.279-25.631,56.139-37.846,84.483c-4.427,10.254-6.981,21.305-10.202,32.021
	c-0.654,2.029-0.496,4.255-0.77,7.703c4.148-2.414,7.623-4.08,10.622-6.307c14.201-10.416,26.088-23.226,37.969-36.095
	c19.171-20.67,38.41-41.352,58.072-61.605c6.662-6.843,14.412-12.79,23.643-16.438c16.731-6.604,32.243,1.57,36.095,19.047
	c1.67,7.638,0.797,15.199-0.936,22.768c-4.489,19.896-13.316,38.269-20.913,57.023c-6.822,16.748-13.316,33.604-19.646,50.53
	c-1.653,4.454-2.011,9.345-2.975,14.024c-0.49,2.393,0.834,4.069,2.975,3.954c3.905-0.166,8.089-0.216,11.639-1.646
	c11.647-4.621,20.854-12.843,29.909-21.147c6.595-6.073,12.88-12.45,19.319-18.703c5.394-5.28,9.635-5.305,14.972-0.111
	c4.183,4.015,8.363,8.057,12.381,12.213c3.983,4.067,4.349,8.818,0.334,12.727c-16.782,16.307-33.292,33.036-54.422,44.137
	c-14.176,7.473-29.054,11.53-45.127,6.232c-21.4-7.069-30.687-23.584-26.302-46.129c3.578-18.313,11.007-35.243,18.377-52.239
	c8.477-19.482,16.666-39.067,24.925-58.613c1-2.371,1.491-4.926,2.206-7.37C329.82,250.772,329.329,250.439,328.855,250.114z"/>
</svg>
