<?xml version="1.0" encoding="utf-8"?>
<!-- Generator: Adobe Illustrator 16.0.0, SVG Export Plug-In . SVG Version: 6.00 Build 0)  -->
<!DOCTYPE svg PUBLIC "-//W3C//DTD SVG 1.1//EN" "http://www.w3.org/Graphics/SVG/1.1/DTD/svg11.dtd">
<svg version="1.1" id="Layer_1" xmlns="http://www.w3.org/2000/svg" xmlns:xlink="http://www.w3.org/1999/xlink" x="0px" y="0px"
	 width="160px" height="160px" viewBox="0 0 160 160" enable-background="new 0 0 160 160" xml:space="preserve">
<rect fill="none" width="160" height="160"/>
<path d="M84,116V53.657l21.172,21.171c1.562,1.562,4.094,1.562,5.656,0c1.563-1.563,1.563-4.095,0-5.657l-28-28
	c-1.562-1.562-4.095-1.562-5.656,0l-28,28C48.391,69.952,48,70.976,48,72c0,1.023,0.391,2.047,1.172,2.828
	c1.562,1.562,4.095,1.562,5.656,0L76,53.657V116c0,2.21,1.791,4,4,4S84,118.21,84,116z"/>
</svg>
