<?xml version="1.0" encoding="utf-8"?>
<!-- Generator: Adobe Illustrator 16.0.0, SVG Export Plug-In . SVG Version: 6.00 Build 0)  -->
<!DOCTYPE svg PUBLIC "-//W3C//DTD SVG 1.1//EN" "http://www.w3.org/Graphics/SVG/1.1/DTD/svg11.dtd">
<svg version="1.1" id="Layer_1" xmlns="http://www.w3.org/2000/svg" xmlns:xlink="http://www.w3.org/1999/xlink" x="0px" y="0px"
	 width="72px" height="72px" viewBox="-23.149 -23.5 72 72" enable-background="new -23.149 -23.5 72 72" xml:space="preserve">
<circle fill="#DFDFDF" cx="12.851" cy="12.5" r="25.5"/>
<path fill="#383838" d="M12.85,42.5c-16.542,0-30-13.459-30-30c0-16.542,13.458-30,30-30c16.547,0,29.999,13.458,29.999,30
	C42.849,29.041,29.397,42.5,12.85,42.5z M12.85-13c-14.061,0-25.5,11.439-25.5,25.5c0,14.063,11.439,25.5,25.5,25.5
	c14.063,0,25.499-11.438,25.499-25.5C38.349-1.561,26.913-13,12.85-13z"/>
<path fill="#383838" d="M27.852,10.606v3.791H5.122L15.54,24.814l-2.689,2.684l-15-14.996l15-15l2.689,2.688L5.11,10.603
	L27.852,10.606L27.852,10.606L27.852,10.606z"/>
<rect x="-23.149" y="-23.5" fill="none" width="72" height="72"/>
</svg>
