<svg version="1.1" xmlns="http://www.w3.org/2000/svg" xmlns:xlink="http://www.w3.org/1999/xlink" x="0px" y="0px" width="88px" height="31px" viewBox="0 0 88 31" enable-background="new 0 0 88 31" xml:space="preserve"><path fill-rule="evenodd" clip-rule="evenodd" fill="#121513" d="M0,30.694c0-9.746,0-19.49,0-29.235C0.033,1.38,0.072,1.302,0.099,1.22c0.205-0.634,0.617-1.038,1.274-1.176C1.415,0.036,1.455,0.016,1.495,0c28.351,0,56.702,0,85.054,0c0.039,0.016,0.077,0.037,0.118,0.046c0.644,0.147,1.065,0.539,1.246,1.174C87.964,1.4,87.956,1.6,87.956,1.79c0.002,9.537,0.002,19.074,0.002,28.61c0,0.066,0.001,0.133-0.002,0.199c-0.009,0.215-0.122,0.339-0.336,0.358c-0.095,0.009-0.19,0.004-0.285,0.004c-28.882,0-57.763,0-86.644,0.003c-0.267,0-0.512-0.009-0.67-0.266C0.018,30.694,0.007,30.694,0,30.694z M87.24,21.707c0-0.13,0-0.225,0-0.318c0-6.501,0-13.002,0-19.503c0-0.089,0.004-0.177-0.003-0.266c-0.032-0.449-0.35-0.798-0.781-0.855c-0.101-0.013-0.205-0.008-0.308-0.008c-28.092,0-56.185,0-84.277,0c-0.081,0-0.162-0.002-0.242,0.002c-0.463,0.03-0.82,0.397-0.839,0.864C0.786,1.726,0.788,1.83,0.788,1.933c0,6.464,0,12.928,0,19.393c0,0.065-0.003,0.132,0.001,0.198c0.003,0.056,0.015,0.111,0.025,0.184c0.101,0,0.188,0,0.275,0c0.843,0,1.686,0.01,2.528-0.005c0.241-0.005,0.372,0.066,0.497,0.282c2.772,4.77,8.148,7.278,13.544,6.272c3.861-0.719,6.801-2.827,8.85-6.188c0.168-0.276,0.333-0.369,0.649-0.369c19.898,0.008,39.798,0.007,59.696,0.007C86.971,21.707,87.087,21.707,87.24,21.707z M41.73,24.146c0,1.637,0,3.247,0,4.857c0.034,0.01,0.054,0.021,0.074,0.021c0.842-0.001,1.685,0.004,2.527-0.01c0.302-0.005,0.59-0.102,0.853-0.262c0.658-0.401,0.837-1.39,0.35-1.99c-0.099-0.122-0.243-0.207-0.372-0.303c-0.05-0.037-0.113-0.057-0.165-0.081c0.002-0.022,0-0.034,0.003-0.037c0.034-0.027,0.067-0.055,0.104-0.079c0.43-0.288,0.52-0.711,0.447-1.186c-0.07-0.455-0.35-0.742-0.789-0.848c-0.247-0.059-0.505-0.086-0.759-0.091c-0.688-0.012-1.377-0.005-2.066-0.004C41.874,24.135,41.81,24.142,41.73,24.146z M62.975,25.873c0.014-0.004,0.028-0.008,0.042-0.012c0.043,0.063,0.088,0.127,0.128,0.192c0.581,0.938,1.162,1.877,1.738,2.817c0.069,0.112,0.145,0.166,0.28,0.159c0.234-0.01,0.469-0.002,0.703-0.004c0.063,0,0.125-0.01,0.186-0.016c0-1.633,0-3.243,0-4.872c-0.34-0.007-0.663-0.007-1.013,0.001c0,1.078,0,2.125,0,3.172c-0.118-0.121-0.199-0.25-0.28-0.38c-0.53-0.857-1.066-1.711-1.587-2.573c-0.105-0.176-0.223-0.243-0.421-0.228c-0.203,0.016-0.41,0.002-0.615,0.005c-0.056,0-0.111,0.012-0.163,0.017c-0.049,0.366-0.03,4.714,0.018,4.859c0.32,0,0.64,0,0.984,0C62.975,27.955,62.975,26.914,62.975,25.873z M66.996,29.01c0.049,0.008,0.077,0.017,0.105,0.017c0.726-0.001,1.451,0.012,2.176-0.007c0.914-0.024,1.616-0.576,1.887-1.456c0.177-0.575,0.196-1.163,0.068-1.748c-0.18-0.82-0.656-1.389-1.487-1.6c-0.218-0.056-0.448-0.074-0.674-0.078c-0.601-0.01-1.201-0.003-1.802-0.003c-0.087,0-0.172,0-0.273,0C66.996,25.771,66.996,27.381,66.996,29.01z M48.85,29.018c0-0.107,0-0.188,0-0.268c0-0.463,0.003-0.928-0.002-1.392c-0.002-0.146,0.032-0.27,0.107-0.395c0.521-0.861,1.037-1.727,1.554-2.591c0.04-0.066,0.075-0.136,0.123-0.223c-0.08-0.007-0.13-0.015-0.179-0.016c-0.278-0.001-0.557,0.007-0.835-0.003c-0.136-0.005-0.211,0.047-0.276,0.162c-0.296,0.517-0.6,1.029-0.901,1.542c-0.036,0.062-0.077,0.12-0.125,0.195c-0.051-0.081-0.091-0.142-0.128-0.205c-0.258-0.436-0.515-0.874-0.774-1.309c-0.075-0.126-0.133-0.293-0.245-0.355c-0.113-0.063-0.284-0.025-0.431-0.027c-0.239-0.002-0.479,0-0.76,0c0.058,0.103,0.093,0.172,0.133,0.238c0.509,0.853,1.015,1.706,1.528,2.555c0.084,0.139,0.119,0.275,0.117,0.436c-0.006,0.471-0.003,0.942-0.002,1.413c0,0.079,0.007,0.156,0.011,0.241C48.131,29.018,48.473,29.018,48.85,29.018z"/><path fill-rule="evenodd" clip-rule="evenodd" fill="#FFFFFF" d="M0,30.694c0.007,0,0.018,0,0.021,0.004c0.158,0.257,0.403,0.266,0.67,0.266c28.881-0.003,57.762-0.003,86.644-0.003c0.095,0,0.19,0.005,0.285-0.004c0.214-0.02,0.327-0.144,0.336-0.358c0.003-0.066,0.002-0.133,0.002-0.199c0-9.536,0-19.073-0.002-28.61c0-0.19,0.008-0.39-0.043-0.569c-0.181-0.635-0.603-1.027-1.246-1.174C86.626,0.037,86.588,0.016,86.549,0C87.032,0,87.516,0,88,0c0,10.333,0,20.665,0,31c-29.334,0-58.667,0-88,0C0,30.9,0,30.797,0,30.694z"/><path fill-rule="evenodd" clip-rule="evenodd" fill="#FFFFFF" d="M1.495,0c-0.041,0.016-0.08,0.036-0.122,0.044C0.716,0.183,0.303,0.586,0.099,1.22C0.072,1.302,0.033,1.38,0,1.459C0,0.973,0,0.487,0,0C0.498,0,0.997,0,1.495,0z"/><path fill-rule="evenodd" clip-rule="evenodd" fill="#A7A9AC" d="M87.24,21.707c-0.153,0-0.27,0-0.386,0c-19.898,0-39.798,0.001-59.696-0.007c-0.315,0-0.481,0.093-0.649,0.369c-2.049,3.36-4.989,5.469-8.85,6.188c-5.396,1.006-10.772-1.503-13.544-6.272c-0.125-0.216-0.256-0.287-0.497-0.282c-0.843,0.015-1.686,0.005-2.528,0.005c-0.087,0-0.174,0-0.275,0c-0.01-0.072-0.021-0.128-0.025-0.184c-0.004-0.066-0.001-0.133-0.001-0.198c0-6.464,0-12.929,0-19.393c0-0.103-0.002-0.207,0.002-0.31c0.019-0.467,0.376-0.834,0.839-0.864c0.08-0.005,0.161-0.002,0.242-0.002c28.093,0,56.186,0,84.277,0c0.103,0,0.207-0.005,0.308,0.008c0.432,0.058,0.749,0.407,0.781,0.855c0.007,0.088,0.003,0.177,0.003,0.266c0,6.501,0,13.001,0,19.503C87.24,21.482,87.24,21.577,87.24,21.707z M3.885,14.523c0.01,0.595,0.058,1.3,0.182,1.999c0.368,2.072,1.276,3.877,2.666,5.439c2.021,2.274,4.495,3.673,7.554,3.931c1.027,0.085,2.05,0.054,3.067-0.12c1.812-0.309,3.445-1.034,4.905-2.153c1.485-1.142,2.686-2.521,3.489-4.23c0.57-1.213,0.892-2.491,1.001-3.825c0.103-1.256,0.058-2.504-0.208-3.738c-0.728-3.385-3.052-6.343-6.158-7.85c-1.269-0.615-2.608-0.959-4.012-1.067c-1.258-0.097-2.503-0.03-3.735,0.251c-1.918,0.438-3.584,1.355-5.011,2.708C5.181,8.183,3.887,11.012,3.885,14.523z M46.449,19.567c4.229,0.099,8.532-3.424,8.541-8.523c0.009-4.822-3.897-8.658-8.492-8.579c-4.818-0.122-8.538,4.046-8.56,8.515C37.915,15.691,41.97,19.67,46.449,19.567z M75.822,11.054c-0.048-0.513-0.069-1.03-0.148-1.538c-0.529-3.418-3.161-5.793-5.559-6.582c-1.107-0.364-2.241-0.494-3.402-0.427C65.7,2.566,64.729,2.792,63.8,3.201c-2.141,0.941-4.657,3.431-4.972,6.919c-0.104,1.149-0.044,2.285,0.301,3.39c0.732,2.343,2.236,4.051,4.369,5.193c1.664,0.892,3.453,1.066,5.299,0.768c2.892-0.468,5.162-2.579,6.141-4.567C75.535,13.691,75.799,12.405,75.822,11.054z"/><path fill-rule="evenodd" clip-rule="evenodd" fill="#FFFFFF" d="M41.73,24.146c0.079-0.005,0.143-0.012,0.208-0.012c0.688-0.001,1.377-0.008,2.066,0.004c0.254,0.005,0.512,0.032,0.759,0.091c0.438,0.105,0.718,0.393,0.789,0.848c0.072,0.475-0.018,0.897-0.447,1.186c-0.037,0.024-0.07,0.052-0.104,0.079c-0.004,0.003-0.001,0.015-0.003,0.037c0.052,0.024,0.115,0.044,0.165,0.081c0.129,0.096,0.273,0.181,0.372,0.303c0.487,0.601,0.309,1.589-0.35,1.99c-0.262,0.16-0.55,0.257-0.853,0.262c-0.842,0.014-1.685,0.009-2.527,0.01c-0.02,0-0.041-0.011-0.074-0.021C41.73,27.394,41.73,25.783,41.73,24.146z M42.84,26.854c-0.052,0.163-0.061,1.056-0.013,1.305c0.032,0.004,0.067,0.011,0.102,0.011c0.366,0.001,0.732,0.005,1.099-0.001c0.101-0.001,0.205-0.021,0.302-0.052c0.223-0.072,0.349-0.234,0.381-0.467c0.064-0.46-0.189-0.772-0.665-0.792C43.643,26.841,43.24,26.854,42.84,26.854z M42.81,26.079c0.044,0.009,0.065,0.018,0.086,0.018c0.241,0.002,0.482,0.004,0.723,0.003c0.139-0.001,0.278,0.004,0.416-0.012c0.292-0.034,0.456-0.208,0.474-0.485c0.021-0.329-0.1-0.507-0.406-0.581c-0.091-0.022-0.188-0.029-0.282-0.031c-0.277-0.004-0.555-0.002-0.833-0.001c-0.056,0-0.112,0.009-0.178,0.015C42.81,25.367,42.81,25.716,42.81,26.079z"/><path fill-rule="evenodd" clip-rule="evenodd" fill="#FFFFFF" d="M62.975,25.873c0,1.041,0,2.082,0,3.139c-0.345,0-0.664,0-0.984,0c-0.048-0.146-0.066-4.493-0.018-4.859c0.052-0.005,0.107-0.017,0.163-0.017c0.205-0.003,0.412,0.011,0.615-0.005c0.198-0.016,0.315,0.052,0.421,0.228c0.521,0.862,1.057,1.716,1.587,2.573c0.081,0.13,0.162,0.259,0.28,0.38c0-1.047,0-2.094,0-3.172c0.35-0.008,0.673-0.008,1.013-0.001c0,1.629,0,3.239,0,4.872c-0.061,0.006-0.123,0.016-0.186,0.016c-0.234,0.002-0.469-0.006-0.703,0.004c-0.136,0.007-0.211-0.047-0.28-0.159c-0.576-0.94-1.157-1.879-1.738-2.817c-0.04-0.065-0.085-0.129-0.128-0.192C63.003,25.865,62.988,25.869,62.975,25.873z"/><path fill-rule="evenodd" clip-rule="evenodd" fill="#FFFFFF" d="M66.996,29.01c0-1.629,0-3.238,0-4.875c0.102,0,0.187,0,0.273,0c0.601,0,1.201-0.007,1.802,0.003c0.226,0.004,0.456,0.022,0.674,0.078c0.831,0.211,1.308,0.779,1.487,1.6c0.128,0.585,0.108,1.173-0.068,1.748c-0.271,0.88-0.973,1.432-1.887,1.456c-0.725,0.019-1.45,0.006-2.176,0.007C67.073,29.026,67.045,29.018,66.996,29.01z M68.088,28.105c0.354,0,0.691,0.021,1.023-0.005c0.563-0.045,0.89-0.337,1.038-0.89c0.103-0.377,0.091-0.759,0.012-1.137c-0.136-0.649-0.495-0.962-1.154-1.003c-0.27-0.017-0.541-0.007-0.813-0.007c-0.033,0-0.067,0.015-0.106,0.024C68.088,26.093,68.088,27.085,68.088,28.105z"/><path fill-rule="evenodd" clip-rule="evenodd" fill="#FFFFFF" d="M48.85,29.018c-0.377,0-0.719,0-1.085,0c-0.004-0.085-0.011-0.162-0.011-0.241c-0.001-0.471-0.004-0.942,0.002-1.413c0.002-0.16-0.033-0.297-0.117-0.436c-0.514-0.849-1.02-1.702-1.528-2.555c-0.04-0.066-0.075-0.136-0.133-0.238c0.281,0,0.521-0.002,0.76,0c0.146,0.002,0.317-0.036,0.431,0.027c0.112,0.063,0.17,0.229,0.245,0.355c0.26,0.435,0.517,0.873,0.774,1.309c0.037,0.063,0.077,0.124,0.128,0.205c0.048-0.075,0.089-0.134,0.125-0.195c0.302-0.513,0.605-1.025,0.901-1.542c0.065-0.115,0.141-0.167,0.276-0.162c0.278,0.01,0.557,0.002,0.835,0.003c0.049,0.001,0.099,0.009,0.179,0.016c-0.048,0.087-0.083,0.156-0.123,0.223c-0.517,0.864-1.032,1.729-1.554,2.591c-0.075,0.125-0.109,0.249-0.107,0.395c0.005,0.464,0.002,0.929,0.002,1.392C48.85,28.83,48.85,28.91,48.85,29.018z"/><path fill-rule="evenodd" clip-rule="evenodd" fill="#121513" d="M3.885,14.523c0.002-3.511,1.296-6.34,3.74-8.656c1.427-1.353,3.093-2.27,5.011-2.708c1.232-0.281,2.478-0.348,3.735-0.251c1.403,0.108,2.743,0.452,4.012,1.067c3.106,1.506,5.43,4.464,6.158,7.85c0.266,1.234,0.311,2.482,0.208,3.738c-0.109,1.334-0.431,2.612-1.001,3.825c-0.803,1.71-2.004,3.089-3.489,4.23c-1.459,1.119-3.093,1.845-4.905,2.153c-1.017,0.174-2.04,0.205-3.067,0.12c-3.059-0.258-5.534-1.656-7.554-3.931c-1.389-1.563-2.298-3.367-2.666-5.439C3.943,15.823,3.895,15.118,3.885,14.523z M24.748,14.286c-0.006-0.508-0.054-1.146-0.17-1.778c-0.683-3.711-3.551-6.11-5.791-6.953c-1.391-0.522-2.823-0.692-4.296-0.574c-1.054,0.084-2.063,0.339-3.024,0.785c-1.288,0.597-2.355,1.481-3.266,2.563c-2.047,2.432-2.67,5.221-1.99,8.307c0.362,1.646,1.208,3.041,2.367,4.245c2.401,2.491,5.322,3.427,8.689,2.763c2.811-0.556,4.89-2.224,6.349-4.669C24.447,17.581,24.741,16.03,24.748,14.286z"/><path fill-rule="evenodd" clip-rule="evenodd" fill="#121513" d="M46.449,19.567c-4.479,0.103-8.534-3.876-8.511-8.587c0.022-4.469,3.741-8.637,8.56-8.515c4.595-0.079,8.501,3.757,8.492,8.579C54.981,16.143,50.679,19.666,46.449,19.567z M46.479,18.007c3.364,0.093,7.045-2.826,6.96-6.987c0.08-3.813-3.176-7.028-6.954-7.037c-3.999-0.008-7.021,3.522-7.016,7.04C39.475,14.768,42.76,18.098,46.479,18.007z"/><path fill-rule="evenodd" clip-rule="evenodd" fill="#121513" d="M75.822,11.054c-0.023,1.351-0.287,2.637-0.885,3.85c-0.979,1.988-3.249,4.099-6.141,4.567c-1.846,0.299-3.635,0.124-5.299-0.768c-2.133-1.142-3.637-2.85-4.369-5.193c-0.345-1.105-0.405-2.241-0.301-3.39c0.314-3.489,2.831-5.978,4.972-6.919c0.93-0.409,1.9-0.634,2.913-0.693c1.161-0.067,2.295,0.063,3.402,0.427c2.397,0.789,5.029,3.163,5.559,6.582C75.753,10.024,75.774,10.542,75.822,11.054z M74.263,11.061c0.006-1.062-0.208-2.08-0.625-2.979c-1.058-2.278-3.252-3.816-5.745-4.028c-1.082-0.091-2.134,0.043-3.147,0.442c-1.259,0.495-2.25,1.339-3.054,2.412c-1.33,1.776-1.667,3.764-1.156,5.902c0.319,1.337,1.059,2.434,2.056,3.358c1.772,1.644,3.861,2.194,6.203,1.706c1.969-0.412,3.444-1.576,4.52-3.255C74.004,13.542,74.259,12.332,74.263,11.061z"/><path fill-rule="evenodd" clip-rule="evenodd" fill="#121513" d="M42.84,26.854c0.4,0,0.803-0.013,1.206,0.004c0.475,0.02,0.729,0.332,0.665,0.792c-0.032,0.232-0.158,0.395-0.381,0.467c-0.097,0.031-0.201,0.051-0.302,0.052c-0.366,0.006-0.732,0.002-1.099,0.001c-0.035,0-0.07-0.007-0.102-0.011C42.779,27.909,42.788,27.017,42.84,26.854z"/><path fill-rule="evenodd" clip-rule="evenodd" fill="#121513" d="M42.81,26.079c0-0.363,0-0.712,0-1.075c0.066-0.006,0.122-0.015,0.178-0.015c0.277-0.001,0.555-0.003,0.833,0.001c0.094,0.002,0.19,0.009,0.282,0.031c0.307,0.074,0.427,0.252,0.406,0.581c-0.018,0.277-0.182,0.451-0.474,0.485c-0.137,0.016-0.277,0.011-0.416,0.012c-0.241,0.001-0.482-0.001-0.723-0.003C42.875,26.097,42.854,26.088,42.81,26.079z"/><path fill-rule="evenodd" clip-rule="evenodd" fill="#121513" d="M68.088,28.105c0-1.021,0-2.013,0-3.017c0.039-0.01,0.073-0.024,0.106-0.024c0.271,0,0.543-0.01,0.813,0.007c0.659,0.041,1.019,0.354,1.154,1.003c0.079,0.378,0.091,0.76-0.012,1.137c-0.148,0.553-0.475,0.845-1.038,0.89C68.779,28.127,68.442,28.105,68.088,28.105z"/><path fill-rule="evenodd" clip-rule="evenodd" fill="#FFFFFF" d="M24.748,14.286c-0.007,1.745-0.301,3.295-1.132,4.688c-1.459,2.445-3.538,4.113-6.349,4.669c-3.368,0.664-6.289-0.271-8.689-2.763c-1.16-1.204-2.005-2.6-2.367-4.245c-0.68-3.086-0.057-5.875,1.99-8.307c0.911-1.081,1.978-1.966,3.266-2.563c0.961-0.445,1.97-0.701,3.024-0.785c1.473-0.118,2.905,0.052,4.296,0.574c2.24,0.842,5.108,3.241,5.791,6.953C24.694,13.139,24.742,13.777,24.748,14.286z M15.178,12.513c-0.003-0.033-0.001-0.048-0.006-0.061c-0.007-0.02-0.018-0.041-0.029-0.059c-0.348-0.588-0.823-1.032-1.458-1.289c-0.669-0.27-1.366-0.337-2.072-0.224c-1.259,0.204-2.128,0.915-2.551,2.124c-0.333,0.954-0.311,1.931,0.013,2.885c0.309,0.912,0.936,1.533,1.833,1.871c0.388,0.146,0.794,0.2,1.207,0.212c1.32,0.036,2.34-0.493,3.034-1.633c0.026-0.042,0.045-0.088,0.076-0.15c-0.459-0.246-0.909-0.486-1.345-0.719c-0.031,0.021-0.04,0.023-0.043,0.029c-0.034,0.057-0.067,0.113-0.099,0.171c-0.25,0.448-0.625,0.72-1.136,0.769c-0.74,0.071-1.323-0.222-1.567-0.982c-0.018-0.056-0.034-0.113-0.047-0.17c-0.117-0.486-0.125-0.98-0.056-1.47c0.035-0.245,0.106-0.49,0.198-0.72c0.128-0.32,0.366-0.555,0.695-0.666c0.675-0.23,1.345-0.097,1.762,0.617c0.04,0.069,0.08,0.137,0.126,0.217C14.209,13.01,14.696,12.76,15.178,12.513z M20.447,15.46c-0.033,0.056-0.054,0.086-0.069,0.119c-0.338,0.735-1.009,0.992-1.774,0.824c-0.552-0.121-0.862-0.503-1.009-1.029c-0.15-0.542-0.162-1.093-0.066-1.643c0.04-0.229,0.115-0.458,0.208-0.671c0.118-0.271,0.324-0.476,0.6-0.59c0.648-0.267,1.385-0.197,1.828,0.562c0.044,0.075,0.088,0.15,0.138,0.235c0.511-0.257,1.012-0.509,1.522-0.766c-0.381-0.689-0.902-1.173-1.614-1.435c-0.639-0.235-1.301-0.292-1.97-0.186c-1.302,0.205-2.173,0.949-2.576,2.206c-0.289,0.9-0.269,1.82,0.013,2.721c0.284,0.909,0.877,1.556,1.759,1.915c0.654,0.267,1.34,0.309,2.032,0.208c1.019-0.147,1.763-0.711,2.295-1.58c0.029-0.047,0.051-0.098,0.081-0.159C21.373,15.944,20.919,15.707,20.447,15.46z"/><path fill-rule="evenodd" clip-rule="evenodd" fill="#FFFFFF" d="M46.479,18.007c-3.72,0.091-7.005-3.239-7.01-6.984c-0.005-3.518,3.017-7.048,7.016-7.04c3.778,0.008,7.034,3.224,6.954,7.037C53.524,15.181,49.844,18.1,46.479,18.007z M48.732,12.379c0.006-0.097,0.014-0.176,0.015-0.254c0.001-0.501,0-1.002,0-1.503c0-0.553-0.003-1.105,0.001-1.658c0.003-0.421-0.295-0.615-0.62-0.612c-1.113,0.012-2.228,0.012-3.341,0c-0.331-0.003-0.606,0.224-0.603,0.604c0.01,1.075,0.003,2.151,0.004,3.227c0,0.063,0.012,0.125,0.019,0.191c0.323,0.026,0.629-0.014,0.951,0.028c0,0.291,0,0.563,0,0.834c0,0.272,0,0.545,0,0.817c0,0.28,0,0.561,0,0.84c0,0.272-0.001,0.545,0,0.817c0.002,0.27-0.009,0.539,0.008,0.808c0.88,0,1.727,0,2.594,0c0.005-0.097,0.013-0.182,0.013-0.268c0.001-1.194,0-2.388,0.002-3.582c0-0.091,0.012-0.183,0.021-0.292C48.119,12.379,48.417,12.379,48.732,12.379z M46.455,7.875c0.665,0.003,1.19-0.521,1.188-1.185c-0.002-0.654-0.522-1.183-1.17-1.19c-0.653-0.007-1.187,0.529-1.187,1.193C45.287,7.352,45.801,7.872,46.455,7.875z"/><path fill-rule="evenodd" clip-rule="evenodd" fill="#FFFFFF" d="M74.263,11.061c-0.004,1.271-0.259,2.481-0.949,3.559c-1.075,1.679-2.551,2.843-4.52,3.255c-2.342,0.488-4.431-0.063-6.203-1.706c-0.997-0.924-1.736-2.021-2.056-3.358c-0.511-2.139-0.174-4.126,1.156-5.902c0.804-1.073,1.795-1.917,3.054-2.412c1.014-0.398,2.065-0.533,3.147-0.442c2.493,0.211,4.688,1.75,5.745,4.028C74.055,8.98,74.269,9.999,74.263,11.061z M70.479,9.054c-0.25-0.045-5.97-0.037-6.142,0.01c-0.006,0.464-0.008,0.932,0,1.403c2.063,0,4.098,0,6.142,0C70.479,9.986,70.479,9.519,70.479,9.054z M64.343,13.212c2.058,0,4.091,0,6.122,0c0.047-0.262,0.037-1.277-0.01-1.426c-2.035,0-4.069,0-6.112,0C64.343,12.265,64.343,12.727,64.343,13.212z"/><path fill-rule="evenodd" clip-rule="evenodd" fill="#121513" d="M15.178,12.513c-0.481,0.247-0.968,0.497-1.467,0.753c-0.046-0.08-0.086-0.148-0.126-0.217c-0.417-0.713-1.086-0.847-1.762-0.617c-0.329,0.111-0.567,0.346-0.695,0.666c-0.092,0.229-0.164,0.475-0.198,0.72c-0.069,0.49-0.062,0.984,0.056,1.47c0.014,0.057,0.029,0.114,0.047,0.17c0.244,0.76,0.827,1.053,1.567,0.982c0.512-0.049,0.886-0.321,1.136-0.769c0.032-0.058,0.065-0.114,0.099-0.171c0.003-0.005,0.012-0.008,0.043-0.029c0.436,0.233,0.885,0.473,1.345,0.719c-0.031,0.062-0.05,0.107-0.076,0.15c-0.694,1.14-1.713,1.669-3.034,1.633c-0.413-0.012-0.819-0.066-1.207-0.212c-0.897-0.338-1.524-0.959-1.833-1.871c-0.323-0.954-0.346-1.932-0.013-2.885c0.423-1.209,1.292-1.92,2.551-2.124c0.706-0.114,1.403-0.046,2.072,0.224c0.636,0.256,1.111,0.701,1.458,1.289c0.011,0.019,0.021,0.039,0.029,0.059C15.176,12.464,15.175,12.479,15.178,12.513z"/><path fill-rule="evenodd" clip-rule="evenodd" fill="#121513" d="M20.447,15.46c0.473,0.247,0.926,0.484,1.396,0.729c-0.03,0.061-0.052,0.112-0.081,0.159c-0.532,0.869-1.276,1.433-2.295,1.58c-0.692,0.101-1.377,0.059-2.032-0.208c-0.881-0.359-1.475-1.006-1.759-1.915c-0.282-0.901-0.302-1.821-0.013-2.721c0.403-1.256,1.274-2,2.576-2.206c0.669-0.105,1.331-0.049,1.97,0.186c0.712,0.262,1.233,0.746,1.614,1.435c-0.51,0.257-1.011,0.509-1.522,0.766c-0.05-0.085-0.094-0.16-0.138-0.235c-0.443-0.759-1.18-0.829-1.828-0.562c-0.275,0.114-0.481,0.319-0.6,0.59c-0.093,0.213-0.168,0.441-0.208,0.671c-0.095,0.55-0.084,1.102,0.066,1.643c0.146,0.526,0.457,0.908,1.009,1.029c0.765,0.168,1.436-0.089,1.774-0.824C20.393,15.546,20.414,15.516,20.447,15.46z"/><path fill-rule="evenodd" clip-rule="evenodd" fill="#121513" d="M48.732,12.379c-0.315,0-0.613,0-0.937,0c-0.009,0.109-0.021,0.2-0.021,0.292c-0.002,1.194-0.001,2.388-0.002,3.582c0,0.086-0.008,0.171-0.013,0.268c-0.867,0-1.714,0-2.594,0c-0.017-0.269-0.006-0.538-0.008-0.808c-0.002-0.272,0-0.545,0-0.817c0-0.28,0-0.56,0-0.84c0-0.272,0-0.545,0-0.817c0-0.271,0-0.543,0-0.834c-0.322-0.042-0.628-0.002-0.951-0.028c-0.007-0.066-0.019-0.128-0.019-0.191c-0.001-1.076,0.005-2.152-0.004-3.227c-0.003-0.38,0.272-0.607,0.603-0.604c1.113,0.011,2.228,0.012,3.341,0c0.325-0.003,0.623,0.191,0.62,0.612c-0.004,0.552-0.001,1.105-0.001,1.658c0,0.501,0.001,1.001,0,1.503C48.746,12.204,48.738,12.282,48.732,12.379z"/><path fill-rule="evenodd" clip-rule="evenodd" fill="#121513" d="M46.455,7.875c-0.654-0.003-1.168-0.523-1.168-1.182c0-0.665,0.533-1.201,1.187-1.193c0.647,0.007,1.168,0.536,1.17,1.19C47.646,7.354,47.12,7.878,46.455,7.875z"/><path fill-rule="evenodd" clip-rule="evenodd" fill="#121513" d="M70.479,9.054c0,0.465,0,0.933,0,1.414c-2.044,0-4.078,0-6.142,0c-0.008-0.471-0.006-0.939,0-1.403C64.51,9.017,70.229,9.008,70.479,9.054z"/><path fill-rule="evenodd" clip-rule="evenodd" fill="#121513" d="M64.343,13.212c0-0.485,0-0.947,0-1.426c2.043,0,4.077,0,6.112,0c0.047,0.148,0.057,1.164,0.01,1.426C68.434,13.212,66.4,13.212,64.343,13.212z"/></svg>