<?xml version="1.0" encoding="utf-8"?>
<!-- Generator: Adobe Illustrator 16.0.0, SVG Export Plug-In . SVG Version: 6.00 Build 0)  -->
<!DOCTYPE svg PUBLIC "-//W3C//DTD SVG 1.1//EN" "http://www.w3.org/Graphics/SVG/1.1/DTD/svg11.dtd">
<svg version="1.1" id="Layer_1" xmlns="http://www.w3.org/2000/svg" xmlns:xlink="http://www.w3.org/1999/xlink" x="0px" y="0px"
	 width="160px" height="160px" viewBox="0 0 160 160" enable-background="new 0 0 160 160" xml:space="preserve">
<path d="M85.657,80l25.171-25.172c1.563-1.562,1.563-4.095,0-5.656c-1.562-1.563-4.094-1.563-5.656,0L80,74.343L54.829,49.172
	c-1.563-1.563-4.095-1.563-5.657,0c-1.563,1.562-1.563,4.095,0,5.656L74.344,80l-25.172,25.172c-1.563,1.562-1.563,4.095,0,5.656
	C49.953,111.609,50.977,112,52,112s2.048-0.391,2.829-1.172L80,85.657l25.172,25.171c0.781,0.781,1.805,1.172,2.828,1.172
	s2.048-0.391,2.828-1.172c1.563-1.562,1.563-4.095,0-5.656L85.657,80z"/>
<rect fill="none" width="160" height="160"/>
</svg>
