<?xml version="1.0" encoding="utf-8"?>
<!-- Generator: Adobe Illustrator 16.0.0, SVG Export Plug-In . SVG Version: 6.00 Build 0)  -->
<!DOCTYPE svg PUBLIC "-//W3C//DTD SVG 1.1//EN" "http://www.w3.org/Graphics/SVG/1.1/DTD/svg11.dtd">
<svg version="1.1" id="Layer_1" xmlns="http://www.w3.org/2000/svg" xmlns:xlink="http://www.w3.org/1999/xlink" x="0px" y="0px"
	 width="72px" height="72px" viewBox="-24 -24 72 72" enable-background="new -24 -24 72 72" xml:space="preserve">
<rect x="-24" y="-24" fill="none" width="72" height="72"/>
<path fill="#363636" d="M22.799,12c0-1.989,1.61-3.6,3.6-3.6C28.387,8.4,30,10.011,30,12s-1.611,3.6-3.6,3.6
	C24.411,15.6,22.799,13.989,22.799,12 M8.4,12c0-1.989,1.613-3.6,3.6-3.6s3.6,1.614,3.6,3.6s-1.613,3.6-3.6,3.6
	C10.011,15.6,8.4,13.985,8.4,12 M-6,12c0-1.989,1.614-3.6,3.6-3.6c1.986,0,3.6,1.614,3.6,3.6s-1.614,3.6-3.6,3.6
	C-4.386,15.6-6,13.985-6,12z"/>
</svg>
