<?xml version="1.0" encoding="utf-8"?>
<!-- Generator: Adobe Illustrator 16.0.0, SVG Export Plug-In . SVG Version: 6.00 Build 0)  -->
<!DOCTYPE svg PUBLIC "-//W3C//DTD SVG 1.1//EN" "http://www.w3.org/Graphics/SVG/1.1/DTD/svg11.dtd">
<svg version="1.1" id="Layer_1" xmlns="http://www.w3.org/2000/svg" xmlns:xlink="http://www.w3.org/1999/xlink" x="0px" y="0px"
	 width="72px" height="72px" viewBox="-24 -24 72 72" enable-background="new -24 -24 72 72" xml:space="preserve">
<g>
	<rect x="-24" y="-24" fill="none" width="72" height="72"/>
	<path fill="#383838" d="M24,12c0-3.3,2.701-6,6-6s6,2.7,6,6c0,3.299-2.701,6-6,6S24,15.299,24,12z M6,12c0-3.3,2.7-6,6-6
		c3.299,0,6,2.7,6,6c0,3.299-2.701,6-6,6C8.7,18,6,15.299,6,12z M-12,12c0-3.3,2.7-6,6-6s6,2.7,6,6c0,3.299-2.7,6-6,6
		S-12,15.299-12,12z"/>
</g>
</svg>
