<?xml version="1.0" encoding="utf-8"?>
<!-- Generator: Adobe Illustrator 16.0.0, SVG Export Plug-In . SVG Version: 6.00 Build 0)  -->
<!DOCTYPE svg PUBLIC "-//W3C//DTD SVG 1.1//EN" "http://www.w3.org/Graphics/SVG/1.1/DTD/svg11.dtd">
<svg version="1.1" id="Layer_1" xmlns="http://www.w3.org/2000/svg" xmlns:xlink="http://www.w3.org/1999/xlink" x="0px" y="0px"
	 width="72px" height="72px" viewBox="445.768 247.11 72 72" enable-background="new 445.768 247.11 72 72" xml:space="preserve">
<rect x="445.768" y="247.11" fill="none" width="72" height="72"/>
<path fill="#363636" d="M477.191,287.688c1.332,1.265,1.332,3.343,0,4.608c-1.266,1.266-3.342,1.266-4.607,0
	c-6.33-6.33-6.33-16.619,0-22.948l0,0l11.49-11.49c6.328-6.33,16.617-6.33,22.947,0c6.33,6.331,6.33,16.619,0,22.948l-4.836,4.836
	c0.033-2.661-0.391-5.323-1.299-7.854l1.525-1.559c3.83-3.799,3.83-9.964,0-13.761c-3.799-3.832-9.965-3.832-13.762,0
	l-11.459,11.456C473.361,277.723,473.361,283.891,477.191,287.688 M486.346,273.926c1.266-1.267,3.344-1.267,4.609,0
	c6.328,6.33,6.328,16.619,0,22.947l0,0l-11.49,11.492c-6.33,6.328-16.619,6.328-22.949,0c-6.33-6.33-6.33-16.62,0-22.949
	l4.836-4.836c-0.033,2.662,0.389,5.323,1.299,7.887l-1.525,1.526c-3.83,3.798-3.83,9.964,0,13.763c3.797,3.83,9.965,3.83,13.762,0
	l11.459-11.457c3.828-3.799,3.828-9.967,0-13.764C485.014,277.269,485.014,275.191,486.346,273.926z"/>
</svg>
