<?xml version="1.0" encoding="utf-8"?>
<!-- Generator: Adobe Illustrator 16.0.0, SVG Export Plug-In . SVG Version: 6.00 Build 0)  -->
<!DOCTYPE svg PUBLIC "-//W3C//DTD SVG 1.1//EN" "http://www.w3.org/Graphics/SVG/1.1/DTD/svg11.dtd">
<svg version="1.1" id="Layer_1" xmlns="http://www.w3.org/2000/svg" xmlns:xlink="http://www.w3.org/1999/xlink" x="0px" y="0px"
	 width="72px" height="72px" viewBox="-24 -24 72 72" enable-background="new -24 -24 72 72" xml:space="preserve">
<rect x="-24" y="-24" fill="none" width="72" height="72"/>
<path fill="#363636" d="M15.629-7C23.012-7,29-1.012,29,6.371c0,7.386-5.988,13.371-13.371,13.371c-3.312,0-6.356-1.214-8.703-3.212
	l-0.555,0.557v1.629L-3.916,29L-7,25.917L3.287,15.629h1.626l0.558-0.557c-1.998-2.346-3.211-5.389-3.211-8.701
	C2.258-1.012,8.243-7,15.629-7 M6.371,6.371c0,5.142,4.116,9.258,9.258,9.258c5.146,0,9.258-4.116,9.258-9.258
	c0-5.143-4.112-9.255-9.258-9.255C10.487-2.884,6.371,1.229,6.371,6.371z"/>
</svg>
