<?xml version="1.0" encoding="utf-8"?>
<!-- Generator: Adobe Illustrator 16.0.0, SVG Export Plug-In . SVG Version: 6.00 Build 0)  -->
<!DOCTYPE svg PUBLIC "-//W3C//DTD SVG 1.1//EN" "http://www.w3.org/Graphics/SVG/1.1/DTD/svg11.dtd">
<svg version="1.1" id="Layer_1" xmlns="http://www.w3.org/2000/svg" xmlns:xlink="http://www.w3.org/1999/xlink" x="0px" y="0px"
	 width="72px" height="72px" viewBox="-23.126 -23.5 72 72" enable-background="new -23.126 -23.5 72 72" xml:space="preserve">
<g>
	<circle fill="#DFDFDF" cx="12.874" cy="12.5" r="25.5"/>
	<path fill="#383838" d="M-2.126,2.501h30v3.333h-30V2.501z M-2.126,10.832h30v3.333h-30V10.832z M-2.126,19.168h30v3.331h-30
		V19.168z"/>
	<rect x="-23.126" y="-23.5" fill="none" width="72" height="72"/>
	<path fill="#383838" d="M12.874,42.5c-16.542,0-30-13.459-30-30c0-16.542,13.458-30,30-30c16.55,0,30,13.458,30,30
		C42.874,29.041,29.418,42.5,12.874,42.5z M12.874-13c-14.058,0-25.5,11.439-25.5,25.5c0,14.063,11.439,25.5,25.5,25.5
		c14.065,0,25.5-11.438,25.5-25.5C38.374-1.561,26.934-13,12.874-13z"/>
</g>
</svg>
