<svg version="1.1" xmlns="http://www.w3.org/2000/svg" xmlns:xlink="http://www.w3.org/1999/xlink" x="0px" y="0px" width="42px" height="42px" viewBox="0 0 42 42" enable-background="new 0 0 42 42" xml:space="preserve"><rect fill="none" width="42" height="42"/><g></g><path fill="#FFFFFF" d="M12.666,12.666c3.313-3.313,8.707-3.313,12.021,0c3.313,3.315,3.314,8.708,0,12.021c-3.313,3.313-8.707,3.313-12.02,0C9.353,21.373,9.353,15.98,12.666,12.666z M11.958,11.958c-3.705,3.706-3.703,9.731,0.002,13.435c3.584,3.586,9.338,3.69,13.063,0.336l7.09,7.09l0.707-0.707l-7.09-7.09c3.354-3.724,3.248-9.478-0.336-13.063C21.688,8.256,15.661,8.256,11.958,11.958z"/></svg>