<svg version="1.1" id="Layer_1" xmlns="http://www.w3.org/2000/svg" xmlns:xlink="http://www.w3.org/1999/xlink" x="0px" y="0px" width="42px" height="42px" viewBox="0 0 42 42" enable-background="new 0 0 42 42" xml:space="preserve"><rect fill="none" width="42" height="42"/><g id="icomoon-ignore"></g><path d="M9.729,33.592l7.263-7.264c1.755,1.46,4.009,2.339,6.471,2.339c5.593,0,10.129-4.535,10.129-10.129c0-5.594-4.534-10.129-10.129-10.129c-5.594,0-10.129,4.534-10.129,10.129c0,2.461,0.879,4.715,2.339,6.471l-7.263,7.265L9.729,33.592z M23.462,27.602c-4.997,0-9.063-4.066-9.063-9.063s4.066-9.063,9.063-9.063c4.998,0,9.063,4.066,9.063,9.063S28.46,27.602,23.462,27.602z"/></svg>