<svg version="1.1" xmlns="http://www.w3.org/2000/svg" xmlns:xlink="http://www.w3.org/1999/xlink" x="0px" y="0px" width="42px" height="42px" viewBox="0 0 42 42" enable-background="new 0 0 42 42" xml:space="preserve"><rect fill="none" width="42" height="42"/><path fill="#FFFFFF" d="M21,18.5c-1.378,0-2.5,1.118-2.5,2.5c0,1.378,1.123,2.5,2.5,2.5c1.383,0,2.5-1.122,2.5-2.5C23.5,19.618,22.384,18.5,21,18.5z M21,22.5c-0.829,0-1.5-0.673-1.5-1.5c0-0.829,0.671-1.5,1.5-1.5c0.83,0,1.5,0.671,1.5,1.5C22.5,21.827,21.83,22.5,21,22.5z"/><path fill="#FFFFFF" d="M30.5,18.5c-1.378,0-2.5,1.118-2.5,2.5c0,1.378,1.122,2.5,2.5,2.5c1.383,0,2.5-1.122,2.5-2.5C33,19.618,31.883,18.5,30.5,18.5z M30.5,22.5c-0.829,0-1.5-0.673-1.5-1.5c0-0.829,0.671-1.5,1.5-1.5c0.83,0,1.5,0.671,1.5,1.5C32,21.827,31.33,22.5,30.5,22.5z"/><path fill="#FFFFFF" d="M11.5,18.5C10.123,18.5,9,19.618,9,21c0,1.378,1.123,2.5,2.5,2.5c1.382,0,2.5-1.122,2.5-2.5C14,19.618,12.882,18.5,11.5,18.5z M11.5,22.5c-0.829,0-1.5-0.673-1.5-1.5c0-0.829,0.671-1.5,1.5-1.5c0.83,0,1.5,0.671,1.5,1.5C13,21.827,12.33,22.5,11.5,22.5z"/></svg>