<svg version="1.1" xmlns="http://www.w3.org/2000/svg" xmlns:xlink="http://www.w3.org/1999/xlink" x="0px" y="0px" width="42px" height="42px" viewBox="0 0 42 42" enable-background="new 0 0 42 42" xml:space="preserve"><rect fill="none" width="42" height="42"/><g id="icomoon-ignore"></g><path fill="#FFFFFF" d="M34.337,21c0-7.366-5.971-13.337-13.337-13.337c-7.367,0-13.337,5.97-13.337,13.337S13.633,34.337,21,34.337C28.366,34.337,34.337,28.367,34.337,21z M8.73,21c0-6.765,5.504-12.27,12.271-12.27c6.766,0,12.27,5.505,12.27,12.27s-5.505,12.27-12.27,12.27C14.235,33.27,8.73,27.765,8.73,21z"/><path fill="#FFFFFF" d="M17.816,20.239l-0.754,0.754l6.034,6.034l0.755-0.754l-5.281-5.28l5.257-5.256l-0.755-0.754l-3.013,3.013L17.816,20.239z"/></svg>