<svg version="1.1" xmlns="http://www.w3.org/2000/svg" xmlns:xlink="http://www.w3.org/1999/xlink" x="0px" y="0px" width="42px" height="42px" viewBox="0 0 42 42" enable-background="new 0 0 42 42" xml:space="preserve"><rect fill="none" width="42" height="42"/><path fill="#FFFFFF" d="M21,34.337c7.366,0,13.337-5.97,13.337-13.337S28.367,7.663,21,7.663S7.663,13.633,7.663,21S13.633,34.337,21,34.337z M21,8.731c6.766,0,12.271,5.504,12.271,12.27S27.766,33.271,21,33.271c-6.765,0-12.27-5.506-12.27-12.271S14.235,8.731,21,8.731z"/><path fill="#FFFFFF" d="M21.761,17.817l-0.754-0.754l-6.035,6.034l0.755,0.754l5.28-5.28l5.256,5.255l0.755-0.754l-3.013-3.013L21.761,17.817z"/></svg>