<svg version="1.1" id="Layer_1" xmlns="http://www.w3.org/2000/svg" xmlns:xlink="http://www.w3.org/1999/xlink" x="0px" y="0px" width="42px" height="42px" viewBox="0 0 42 42" enable-background="new 0 0 42 42" xml:space="preserve"><rect fill="none" width="42" height="42"/><path d="M34.113,21c0-7.243-5.871-13.113-13.114-13.113c-7.241,0-13.112,5.87-13.112,13.113c0,7.242,5.871,13.113,13.112,13.113C28.242,34.113,34.113,28.242,34.113,21z M8.937,21c0-6.652,5.412-12.064,12.064-12.064c6.653,0,12.063,5.412,12.063,12.064c0,6.652-5.41,12.064-12.063,12.064C14.349,33.064,8.937,27.652,8.937,21z"/><path d="M26.639,20.204l0.742-0.742l-6.379-6.379l-6.378,6.379l0.742,0.742l5.112-5.112v12.727h1.049V15.092L26.639,20.204z"/></svg>