<svg version="1.1" xmlns="http://www.w3.org/2000/svg" xmlns:xlink="http://www.w3.org/1999/xlink" x="0px" y="0px" width="42px" height="42px" viewBox="0 0 42 42" enable-background="new 0 0 42 42" xml:space="preserve"><rect fill="none" width="42" height="42"/><path fill="#FFFFFF" d="M34,21c0,7.18-5.819,13-13,13c-7.18,0-13-5.82-13-13S13.82,8,21,8C28.181,8,34,13.82,34,21z M21,9C14.373,9,9,14.373,9,21c0,6.627,5.373,12,12,12c6.627,0,12-5.373,12-12C33,14.373,27.627,9,21,9z"/><path fill="#FFFFFF" d="M26.656,19.525l-4.949,4.949l0,0l-0.706,0.707l-0.708-0.707l-4.949-4.949l0.707-0.707L21,23.768l4.949-4.949L26.656,19.525z"/></svg>