<svg version="1.1" xmlns="http://www.w3.org/2000/svg" xmlns:xlink="http://www.w3.org/1999/xlink" x="0px" y="0px" width="42px" height="42px" viewBox="0 0 42 42" enable-background="new 0 0 42 42" xml:space="preserve"><rect fill="none" width="42" height="42"/><path fill="#FFFFFF" d="M21,34c-7.178-0.001-13-5.819-13-13c0-7.179,5.822-13,13-13c7.179,0,13,5.82,13,13C34,28.181,28.18,34,21,34z M33,20.999C33,14.373,27.629,9,21.001,9C14.373,8.998,9,14.373,9,20.999c0.002,6.628,5.375,12,12.001,12.001C27.627,33,33.002,27.626,33,20.999z"/><path fill="#FFFFFF" d="M22.477,26.655l-4.951-4.948l0,0L16.818,21l0.707-0.708l4.949-4.949l0.707,0.707L18.232,21l4.949,4.95L22.477,26.655z"/></svg>