<svg version="1.1" xmlns="http://www.w3.org/2000/svg" xmlns:xlink="http://www.w3.org/1999/xlink" x="0px" y="0px" width="42px" height="42px" viewBox="0 0 42 42" enable-background="new 0 0 42 42" xml:space="preserve"><rect fill="none" width="42" height="42"/><path fill="#000000" d="M21,7.887C13.758,7.887,7.887,13.758,7.887,21S13.758,34.113,21,34.113c7.242,0,13.113-5.871,13.113-13.113S28.242,7.887,21,7.887z M21,33.064c-6.653,0-12.065-5.412-12.065-12.064c0-6.652,5.412-12.063,12.065-12.063c6.652,0,12.064,5.412,12.064,12.063C33.064,27.65,27.652,33.064,21,33.064z"/><path fill="#000000" d="M20.205,15.363l-0.742-0.742L13.083,21l6.379,6.379l0.742-0.742l-5.113-5.113h12.727v-1.048H15.092L20.205,15.363z"/></svg>