<svg version="1.1" id="Layer_1" xmlns="http://www.w3.org/2000/svg" xmlns:xlink="http://www.w3.org/1999/xlink" x="0px" y="0px" width="42px" height="42px" viewBox="0 0 42 42" enable-background="new 0 0 42 42" xml:space="preserve"><rect fill="none" width="42" height="42"/><path fill="#FFFFFF" d="M7.663,21c0,7.367,5.97,13.337,13.337,13.337S34.337,28.367,34.337,21S28.366,7.663,21,7.663C13.633,7.663,7.663,13.633,7.663,21z M8.73,20.999c0-6.765,5.505-12.271,12.27-12.271c6.766,0,12.271,5.505,12.271,12.271S27.766,33.269,21,33.269C14.235,33.269,8.73,27.764,8.73,20.999z"/><path fill="#FFFFFF" d="M24.005,21.94l3.013-3.013l-0.755-0.754l-5.256,5.255l-5.28-5.28l-0.755,0.754l6.035,6.034l0.754-0.754L24.005,21.94z"/></svg>