<svg version="1.1" xmlns="http://www.w3.org/2000/svg" xmlns:xlink="http://www.w3.org/1999/xlink" x="0px" y="0px" width="42px" height="42px" viewBox="0 0 42 42" enable-background="new 0 0 42 42" xml:space="preserve"><rect fill="none" width="42" height="42"/><path d="M8.205,17.801c-1.767,0-3.199,1.432-3.199,3.199c0,1.768,1.432,3.199,3.199,3.199c1.766,0,3.199-1.432,3.199-3.199C11.404,19.233,9.971,17.801,8.205,17.801z M8.205,23.133c-1.177,0-2.132-0.956-2.132-2.133s0.956-2.133,2.132-2.133c1.176,0,2.133,0.956,2.133,2.133S9.381,23.133,8.205,23.133L8.205,23.133z"/><path d="M33.795,17.801c-1.768,0-3.199,1.432-3.199,3.199c0,1.768,1.432,3.199,3.199,3.199c1.766,0,3.199-1.432,3.199-3.199C36.994,19.233,35.561,17.801,33.795,17.801z M33.795,23.133c-1.176,0-2.133-0.956-2.133-2.133s0.957-2.133,2.133-2.133s2.133,0.956,2.133,2.133S34.971,23.133,33.795,23.133z"/><path d="M21,17.801c-1.767,0-3.199,1.432-3.199,3.199c0,1.768,1.432,3.199,3.199,3.199c1.766,0,3.199-1.432,3.199-3.199C24.199,19.233,22.766,17.801,21,17.801z M21,23.133c-1.176,0-2.133-0.956-2.133-2.133s0.957-2.133,2.133-2.133s2.133,0.956,2.133,2.133S22.176,23.133,21,23.133z"/></svg>