<svg version="1.1" xmlns="http://www.w3.org/2000/svg" xmlns:xlink="http://www.w3.org/1999/xlink" x="0px" y="0px" width="42px" height="42px" viewBox="0 0 42 42" enable-background="new 0 0 42 42" xml:space="preserve"><rect fill="none" width="42" height="42"/><path fill="#FFFFFF" d="M38,21c0,9.389-7.611,17-17,17S4,30.389,4,21c0-9.388,7.611-17,17-17S38,11.612,38,21z M21,5C12.164,5,5,12.164,5,21c0,8.835,7.164,16,16,16c8.835,0,16-7.164,16-16C37,12.164,29.836,5,21,5z"/><polygon fill="#FFFFFF" points="20.34,13.158 13.208,20.291 12.5,20.999 13.207,21.706 20.344,28.842 21.059,28.143 14.416,21.499 31.5,21.499 31.5,20.499 14.415,20.499 21.043,13.869 "/></svg>