<svg version="1.1" xmlns="http://www.w3.org/2000/svg" xmlns:xlink="http://www.w3.org/1999/xlink" x="0px" y="0px" width="42px" height="42px" viewBox="0 0 42 42" enable-background="new 0 0 42 42" xml:space="preserve"><g><path fill="#FFFFFF" d="M36.994,21.011l-0.007-0.297c-0.149-8.653-7.319-15.703-15.976-15.708C16.74,4.999,12.729,6.662,9.699,9.68c-3.021,3.018-4.69,7.036-4.693,11.31l0.006,0.295l0,0c0.15,8.657,7.316,15.704,15.977,15.71c4.271,0.006,8.285-1.656,11.309-4.672C35.324,29.302,36.985,25.284,36.994,21.011z M6.158,21.265v-0.276c0.002-3.962,1.546-7.692,4.355-10.494c2.803-2.805,6.533-4.344,10.497-4.341c8.038,0.005,14.688,6.543,14.828,14.582l0.003,0.273c0,3.967-1.548,7.691-4.355,10.497c-2.805,2.801-6.534,4.342-10.494,4.34C12.955,35.84,6.298,29.302,6.158,21.265z"/><path fill="#FFFFFF" d="M21.568,28.575l0.013-13.767l6.591,6.6c0.22,0.226,0.586,0.226,0.809,0.004c0.223-0.223,0.223-0.59,0-0.813l-7.972-7.984l-0.408,0.401c0.001,0.003-0.001,0.004-0.001,0.004l-7.581,7.57c-0.11,0.114-0.169,0.267-0.167,0.417c0.004,0.142,0.057,0.287,0.168,0.396c0.227,0.224,0.59,0.223,0.813,0.001l6.599-6.594l-0.007,13.766c0,0.008,0,0.01,0,0.014c0.006,0.311,0.258,0.559,0.57,0.561C21.314,29.151,21.569,28.896,21.568,28.575z"/></g><rect fill="none" width="42" height="42"/></svg>