<svg version="1.1" id="Layer_1" xmlns="http://www.w3.org/2000/svg" xmlns:xlink="http://www.w3.org/1999/xlink" x="0px" y="0px" width="42px" height="42px" viewBox="0 0 42 42" enable-background="new 0 0 42 42" xml:space="preserve"><rect fill="none" width="42" height="42"/><g id="icomoon-ignore"></g><path fill="#FFFFFF" d="M33.591,32.273l-7.263-7.266c1.46-1.756,2.339-4.009,2.339-6.47c0-5.595-4.535-10.129-10.129-10.129c-5.594,0-10.129,4.535-10.129,10.129c0,5.593,4.536,10.128,10.129,10.128c2.462,0,4.716-0.879,6.471-2.338l7.263,7.264L33.591,32.273z M9.475,18.538c0-4.997,4.065-9.063,9.063-9.063c4.997,0,9.063,4.066,9.063,9.063c0,4.998-4.066,9.064-9.063,9.064C13.54,27.602,9.475,23.535,9.475,18.538z"/></svg>