<svg version="1.1" xmlns="http://www.w3.org/2000/svg" xmlns:xlink="http://www.w3.org/1999/xlink" x="0px" y="0px" width="42px" height="42px" viewBox="0 0 42 42" enable-background="new 0 0 42 42" xml:space="preserve"><rect fill="none" width="42" height="42"/><g></g><path d="M29.332,24.687c-3.313,3.313-8.707,3.313-12.02,0c-3.314-3.313-3.313-8.706,0-12.021c3.314-3.313,8.707-3.313,12.021,0C32.647,15.98,32.646,21.373,29.332,24.687z M16.605,11.959c-3.584,3.585-3.689,9.339-0.336,13.063l-7.089,7.089l0.707,0.707l7.089-7.089c3.725,3.354,9.479,3.249,13.063-0.336c3.705-3.704,3.707-9.729,0.002-13.435C26.338,8.256,20.311,8.256,16.605,11.959z"/></svg>