<svg version="1.1" xmlns="http://www.w3.org/2000/svg" xmlns:xlink="http://www.w3.org/1999/xlink" x="0px" y="0px" width="42px" height="42px" viewBox="0 0 42 42" enable-background="new 0 0 42 42" xml:space="preserve"><g><path d="M21.011,5.006l-0.297,0.007c-8.653,0.149-15.703,7.32-15.708,15.976C4.999,25.26,6.662,29.271,9.68,32.301c3.018,3.021,7.036,4.69,11.31,4.693l0.295-0.006l0,0c8.657-0.15,15.704-7.316,15.71-15.977C37,16.74,35.338,12.727,32.322,9.703C29.302,6.676,25.284,5.015,21.011,5.006z M21.265,35.842h-0.276c-3.962-0.002-7.692-1.546-10.494-4.355c-2.805-2.803-4.344-6.533-4.341-10.497C6.158,12.952,12.696,6.3,20.735,6.161l0.273-0.002c3.967,0,7.691,1.547,10.497,4.354c2.801,2.805,4.342,6.535,4.34,10.494C35.84,29.045,29.302,35.702,21.265,35.842z"/><path d="M28.575,20.432l-13.767-0.013l6.6-6.591c0.226-0.22,0.226-0.586,0.004-0.809c-0.223-0.223-0.59-0.223-0.813,0l-7.984,7.971l0.401,0.408c0.003-0.001,0.004,0.001,0.004,0.001l7.57,7.581c0.114,0.11,0.267,0.169,0.417,0.167c0.142-0.004,0.287-0.057,0.396-0.168c0.224-0.227,0.223-0.59,0.001-0.813l-6.594-6.599l13.766,0.007c0.008,0,0.01,0,0.014,0c0.311-0.006,0.559-0.258,0.561-0.57C29.151,20.686,28.896,20.431,28.575,20.432z"/></g><rect fill="none" width="42" height="42"/></svg>