<svg version="1.1" xmlns="http://www.w3.org/2000/svg" xmlns:xlink="http://www.w3.org/1999/xlink" x="0px" y="0px" width="42px" height="42px" viewBox="0 0 42 42" enable-background="new 0 0 42 42" xml:space="preserve"><rect fill="none" width="42" height="42"/><path fill="#FFFFFF" d="M8,21c0-7.178,5.819-13,13-13c7.179,0,13,5.822,13,13c0,7.179-5.82,13-13,13C13.819,34,8,28.18,8,21z M21.001,33C27.627,33,33,27.629,33,21.001C33.002,14.373,27.627,9,21.001,9C14.374,9.002,9.001,14.375,9,21.001C9,27.627,14.374,33.002,21.001,33z"/><path fill="#FFFFFF" d="M15.345,22.477l4.949-4.951l0,0L21,16.818l0.708,0.707l4.949,4.949l-0.707,0.707L21,18.232l-4.949,4.949L15.345,22.477z"/></svg>