<svg version="1.1" xmlns="http://www.w3.org/2000/svg" xmlns:xlink="http://www.w3.org/1999/xlink" x="0px" y="0px" width="42px" height="42px" viewBox="0 0 42 42" enable-background="new 0 0 42 42" xml:space="preserve"><rect fill="none" width="42" height="42"/><path fill="#000000" d="M21,8c7.178,0,13,5.819,13,13c0,7.179-5.822,13-13,13C13.82,34,8,28.18,8,21C8,13.819,13.821,8,21,8z M9,21.001C9,27.627,14.372,33,20.999,33C27.627,33.002,33,27.627,33,21.001c-0.002-6.627-5.375-12-12.001-12.001C14.374,9,8.999,14.374,9,21.001z"/><path fill="#000000" d="M19.524,15.345l4.951,4.949l0,0L25.182,21l-0.707,0.708l-4.95,4.949l-0.707-0.707L23.768,21l-4.95-4.949L19.524,15.345z"/></svg>