<svg version="1.1" id="Layer_1" xmlns="http://www.w3.org/2000/svg" xmlns:xlink="http://www.w3.org/1999/xlink" x="0px" y="0px" width="42px" height="42px" viewBox="0 0 42 42" enable-background="new 0 0 42 42" xml:space="preserve"><rect fill="none" width="42" height="42"/><g id="icomoon-ignore"></g><path fill="#FFFFFF" d="M21,34.337c7.367,0,13.337-5.97,13.337-13.337S28.367,7.663,21,7.663C13.634,7.663,7.663,13.634,7.663,21C7.663,28.367,13.634,34.337,21,34.337z M20.999,33.27c-6.765,0-12.27-5.505-12.27-12.27s5.504-12.27,12.27-12.27c6.767,0,12.271,5.505,12.271,12.27S27.765,33.27,20.999,33.27z"/><path fill="#FFFFFF" d="M21.94,17.996l-3.013-3.013l-0.755,0.754l5.257,5.256l-5.281,5.28l0.755,0.754l6.034-6.034l-0.754-0.754L21.94,17.996z"/></svg>