<?xml version="1.0" encoding="utf-8"?>
<!-- Generator: Adobe Illustrator 16.0.0, SVG Export Plug-In . SVG Version: 6.00 Build 0)  -->
<!DOCTYPE svg PUBLIC "-//W3C//DTD SVG 1.1//EN" "http://www.w3.org/Graphics/SVG/1.1/DTD/svg11.dtd">
<svg version="1.1" id="Layer_1" xmlns="http://www.w3.org/2000/svg" xmlns:xlink="http://www.w3.org/1999/xlink" x="0px" y="0px"
	 width="160px" height="160px" viewBox="0 0 160 160" enable-background="new 0 0 160 160" xml:space="preserve">
<path d="M37.171,122.828C37.952,123.609,38.976,124,40,124c1.023,0,2.047-0.391,2.828-1.172l22.701-22.701
	C71.688,105.054,79.5,108,88,108c19.882,0,36-16.118,36-36s-16.118-36-36-36c-19.883,0-36,16.118-36,36
	c0,8.5,2.945,16.312,7.872,22.471l-22.701,22.701C35.609,118.733,35.609,121.267,37.171,122.828z M60,72c0-15.464,12.535-28,28-28
	c15.464,0,28,12.536,28,28s-12.536,28-28,28C72.535,100,60,87.464,60,72z"/>
<rect fill="none" width="160" height="160"/>
</svg>
