<?xml version="1.0" encoding="utf-8"?>
<!-- Generator: Adobe Illustrator 16.0.0, SVG Export Plug-In . SVG Version: 6.00 Build 0)  -->
<!DOCTYPE svg PUBLIC "-//W3C//DTD SVG 1.1//EN" "http://www.w3.org/Graphics/SVG/1.1/DTD/svg11.dtd">
<svg version="1.1" id="Layer_1" xmlns="http://www.w3.org/2000/svg" xmlns:xlink="http://www.w3.org/1999/xlink" x="0px" y="0px"
	 width="50px" height="50px" viewBox="0 0 50 50" enable-background="new 0 0 50 50" xml:space="preserve">
<g id="Layer_1_1_">
</g>
<g>
	<path fill="#DB4040" d="M50,25c0,13.75-11.25,25-25,25S0,38.75,0,25S11.25,0,25,0S50,11.25,50,25z"/>
</g>
<path fill="#FFFFFF" d="M31.714,24.229c-0.44,0.412-0.901,0.81-1.32,1.245c-1.932,1.997-3.829,4.023-5.786,5.991
	c-0.946,0.952-1.966,1.846-3.213,2.422c-0.672,0.313-1.375,0.482-2.109,0.299c-1.185-0.304-1.81-1.283-1.742-2.666
	c0.067-1.312,0.511-2.528,1.029-3.711c0.752-1.729,1.572-3.43,2.363-5.144c0.957-2.078,1.939-4.147,2.863-6.24
	c0.303-0.687,0.457-1.435,0.672-2.161c0.04-0.144,0.029-0.305,0.04-0.458c-0.033-0.022-0.064-0.047-0.096-0.069
	c-0.231,0.232-0.5,0.442-0.694,0.704c-0.977,1.322-1.929,2.661-2.896,3.989c-1.034,1.414-2.042,2.851-3.135,4.221
	c-0.447,0.559-1.043,1.04-1.663,1.416c-1.199,0.726-2.571,0.093-2.99-1.279c-0.313-1.021-0.024-1.965,0.412-2.854
	c0.701-1.419,1.493-2.793,2.216-4.199c0.376-0.726,0.694-1.485,0.647-2.33c-0.034-0.551-0.281-1.008-0.715-1.348
	c-0.347-0.266-0.728-0.166-1.083-0.002c-0.792,0.363-1.373,0.967-1.885,1.645c-0.269,0.359-0.632,0.474-0.947,0.291
	c-0.393-0.225-0.535-0.635-0.274-1.036c0.691-1.057,1.575-1.923,2.789-2.387c1.347-0.513,2.458,0.043,3.217,1.236
	c0.58,0.903,0.689,1.887,0.374,2.873c-0.298,0.936-0.696,1.843-1.113,2.73c-0.523,1.113-1.141,2.182-1.659,3.293
	c-0.188,0.397-0.239,0.864-0.291,1.304c-0.019,0.161,0.103,0.375,0.231,0.494c0.052,0.049,0.328-0.059,0.43-0.164
	c0.559-0.579,1.16-1.133,1.619-1.785c1.247-1.77,2.415-3.596,3.649-5.375c0.625-0.899,1.296-1.768,2.012-2.596
	c0.454-0.525,1.02-0.966,1.741-1.108c1.104-0.212,2.136,0.681,2.229,1.892c0.066,0.827-0.031,1.638-0.319,2.405
	c-0.625,1.666-1.25,3.328-1.953,4.958c-1.089,2.512-2.274,4.985-3.357,7.502c-0.393,0.912-0.621,1.892-0.906,2.844
	c-0.058,0.181-0.044,0.377-0.068,0.684c0.368-0.214,0.676-0.361,0.942-0.559c1.26-0.925,2.315-2.063,3.369-3.206
	c1.702-1.836,3.409-3.672,5.154-5.472c0.591-0.607,1.279-1.135,2.098-1.46c1.484-0.586,2.861,0.139,3.203,1.692
	c0.149,0.678,0.07,1.35-0.083,2.021c-0.399,1.768-1.182,3.399-1.854,5.064c-0.606,1.487-1.182,2.983-1.744,4.487
	c-0.146,0.396-0.18,0.83-0.264,1.244c-0.043,0.213,0.072,0.361,0.264,0.353c0.347-0.015,0.718-0.019,1.031-0.146
	c1.033-0.41,1.851-1.141,2.654-1.877c0.586-0.541,1.143-1.106,1.715-1.66c0.479-0.469,0.854-0.471,1.328-0.01
	c0.371,0.356,0.742,0.715,1.098,1.084c0.354,0.36,0.388,0.783,0.031,1.129c-1.49,1.449-2.955,2.936-4.83,3.918
	c-1.258,0.666-2.578,1.025-4.003,0.555c-1.899-0.627-2.723-2.094-2.333-4.096c0.317-1.625,0.977-3.131,1.63-4.64
	c0.752-1.729,1.479-3.469,2.212-5.205c0.088-0.21,0.132-0.437,0.195-0.654C31.8,24.287,31.756,24.257,31.714,24.229z"/>
</svg>
