<?xml version="1.0" encoding="utf-8"?>
<!-- Generator: Adobe Illustrator 16.0.0, SVG Export Plug-In . SVG Version: 6.00 Build 0)  -->
<!DOCTYPE svg PUBLIC "-//W3C//DTD SVG 1.1//EN" "http://www.w3.org/Graphics/SVG/1.1/DTD/svg11.dtd">
<svg version="1.1" id="Layer_1" xmlns="http://www.w3.org/2000/svg" xmlns:xlink="http://www.w3.org/1999/xlink" x="0px" y="0px"
	 width="380px" height="88px" viewBox="-158.5 -4 380 88" enable-background="new -158.5 -4 380 88" xml:space="preserve">
<rect x="-158.5" y="-4" fill="none" width="380" height="88"/>
<g id="Layer_1_1_">
</g>
<g>
	<rect x="-158.5" y="-4" fill="#DB4040" width="88" height="88"/>
	<path fill="#FFFFFF" d="M-103.05,39.078c-0.782,0.727-1.597,1.432-2.338,2.207c-3.424,3.527-6.782,7.117-10.248,10.598
		c-1.674,1.689-3.484,3.266-5.69,4.289c-1.191,0.547-2.434,0.855-3.735,0.523c-2.101-0.531-3.208-2.264-3.087-4.719
		c0.12-2.322,0.906-4.473,1.824-6.566c1.33-3.061,2.784-6.074,4.185-9.105c1.695-3.68,3.434-7.34,5.069-11.045
		c0.54-1.209,0.811-2.537,1.192-3.822c0.07-0.256,0.052-0.539,0.07-0.813c-0.059-0.043-0.116-0.082-0.17-0.123
		c-0.41,0.412-0.885,0.783-1.229,1.246c-1.728,2.34-3.416,4.705-5.13,7.057c-1.832,2.5-3.618,5.045-5.552,7.473
		c-0.792,0.986-1.847,1.836-2.946,2.5c-2.124,1.285-4.552,0.168-5.294-2.262c-0.552-1.805-0.042-3.477,0.729-5.051
		c1.242-2.512,2.643-4.941,3.929-7.43c0.664-1.283,1.226-2.627,1.146-4.123c-0.06-0.979-0.498-1.787-1.268-2.385
		c-0.614-0.473-1.29-0.297-1.922-0.004c-1.4,0.643-2.429,1.711-3.336,2.914c-0.477,0.635-1.12,0.836-1.677,0.512
		c-0.695-0.398-0.947-1.125-0.485-1.832c1.226-1.871,2.792-3.402,4.938-4.227c2.384-0.904,4.356,0.078,5.702,2.186
		c1.026,1.6,1.218,3.34,0.662,5.086c-0.526,1.654-1.234,3.26-1.972,4.83c-0.922,1.969-2.019,3.859-2.935,5.828
		c-0.334,0.703-0.426,1.529-0.516,2.305c-0.034,0.285,0.182,0.668,0.41,0.875c0.09,0.086,0.58-0.105,0.76-0.293
		c0.992-1.02,2.052-2.004,2.868-3.16c2.208-3.129,4.275-6.363,6.464-9.512c1.105-1.59,2.296-3.125,3.56-4.594
		c0.807-0.928,1.807-1.707,3.084-1.961c1.956-0.375,3.784,1.207,3.946,3.348c0.12,1.469-0.054,2.898-0.566,4.254
		c-1.105,2.949-2.21,5.891-3.458,8.777c-1.93,4.445-4.027,8.828-5.947,13.277c-0.698,1.607-1.099,3.35-1.604,5.031
		c-0.104,0.324-0.076,0.672-0.118,1.211c0.648-0.379,1.194-0.641,1.666-0.988c2.234-1.635,4.099-3.646,5.967-5.672
		c3.012-3.25,6.035-6.5,9.126-9.676c1.044-1.078,2.268-2.012,3.712-2.586c2.63-1.037,5.067,0.246,5.674,2.992
		c0.262,1.203,0.126,2.389-0.148,3.578c-0.706,3.129-2.092,6.016-3.286,8.961c-1.069,2.629-2.092,5.275-3.086,7.941
		c-0.26,0.703-0.315,1.469-0.466,2.203c-0.078,0.377,0.128,0.641,0.466,0.621c0.614-0.027,1.272-0.035,1.828-0.258
		c1.832-0.727,3.278-2.016,4.702-3.32c1.038-0.957,2.022-1.961,3.034-2.939c0.848-0.83,1.514-0.836,2.354-0.021
		c0.654,0.631,1.313,1.266,1.946,1.918c0.626,0.641,0.685,1.387,0.048,2c-2.634,2.566-5.229,5.191-8.552,6.936
		c-2.226,1.17-4.566,1.807-7.09,0.979c-3.364-1.113-4.822-3.709-4.134-7.25c0.562-2.877,1.728-5.541,2.888-8.209
		c1.33-3.061,2.622-6.139,3.918-9.213c0.156-0.369,0.234-0.775,0.346-1.156C-102.9,39.182-102.978,39.129-103.05,39.078z"/>
</g>
<g>
	<path fill="#FFFFFF" d="M-31.093,30.065h-2.817v-2.849h-0.069c-1.228,2.194-3.031,3.292-5.415,3.292
		c-1.699,0-3.054-0.478-4.077-1.433C-44.489,28.122-45,26.84-45,25.228c0-3.393,1.938-5.371,5.814-5.941l5.274-0.769
		c0-3.081-1.21-4.621-3.626-4.621c-2.121,0-4.035,0.742-5.745,2.221V13.13c0.517-0.401,1.401-0.789,2.65-1.162
		c1.248-0.377,2.359-0.559,3.333-0.559c4.137,0,6.205,2.267,6.205,6.808v11.848H-31.093z M-33.91,20.852l-4.261,0.622
		c-1.459,0.213-2.478,0.571-3.063,1.079c-0.583,0.498-0.879,1.313-0.879,2.441c0,0.911,0.316,1.646,0.947,2.197
		c0.631,0.551,1.439,0.829,2.425,0.829c1.396,0,2.551-0.512,3.463-1.533c0.911-1.018,1.364-2.294,1.364-3.818L-33.91,20.852
		L-33.91,20.852z"/>
	<path fill="#FFFFFF" d="M-11.166,30.065h-2.819v-8.269h-8.973v8.269h-2.818V11.854h2.818v7.466h8.973v-7.468h2.819V30.065z"/>
	<path fill="#FFFFFF" d="M4.324,14.327H-2.64v15.735h-2.817V11.853h9.781V14.327z"/>
	<path fill="#FFFFFF" d="M19.605,30.065h-2.801V14.327h-4.092c-0.446,5.595-1.219,9.661-2.312,12.192
		c-1.096,2.531-2.661,3.794-4.704,3.794c-0.563,0-1.063-0.08-1.511-0.247v-2.507c0.389,0.213,0.823,0.319,1.307,0.319
		c2.521,0,4.145-5.34,4.866-16.021h9.25v18.209H19.605z"/>
	<path fill="#FFFFFF" d="M40.064,30.065h-2.529V15.54c-0.218,0.434-0.608,1.152-1.171,2.145l-8.128,12.38h-2.923V11.854h2.563
		v14.354l0.93-1.746l8.337-12.608h2.923v18.211H40.064z"/>
	<path fill="#FFFFFF" d="M60.521,30.065h-2.528V15.54c-0.214,0.434-0.604,1.152-1.169,2.145l-8.129,12.38h-2.922V11.854h2.562
		v14.354l0.927-1.746L57.6,11.854h2.924v18.211H60.521z M59.491,3c-0.07,0.806-0.264,1.542-0.594,2.204
		c-0.325,0.665-0.759,1.234-1.299,1.706c-0.539,0.473-1.175,0.844-1.896,1.104c-0.73,0.259-1.527,0.39-2.397,0.39
		c-0.881,0-1.686-0.127-2.411-0.382c-0.723-0.257-1.345-0.618-1.873-1.086s-0.941-1.036-1.247-1.697
		C47.47,4.572,47.292,3.83,47.248,3h2.766c0.037,0.461,0.113,0.896,0.229,1.299c0.125,0.403,0.309,0.758,0.572,1.058
		c0.256,0.308,0.587,0.543,0.994,0.721c0.407,0.179,0.917,0.27,1.523,0.27c0.53,0,0.988-0.097,1.385-0.278
		c0.396-0.184,0.73-0.429,1.005-0.739c0.274-0.307,0.49-0.664,0.646-1.065c0.156-0.407,0.255-0.827,0.3-1.264L59.491,3L59.491,3z"/>
	<path fill="#FFFFFF" d="M78.092,29.232c-1.365,0.849-2.974,1.278-4.833,1.278c-1.603,0-3.042-0.381-4.323-1.147
		c-1.273-0.763-2.273-1.847-2.984-3.244c-0.708-1.401-1.065-2.969-1.065-4.712c0-3.014,0.834-5.431,2.503-7.255
		c1.669-1.824,3.89-2.739,6.66-2.739c1.539,0,2.896,0.308,4.078,0.924v2.986c-1.316-0.949-2.713-1.422-4.193-1.422
		c-1.823,0-3.297,0.677-4.443,2.023c-1.139,1.342-1.711,3.081-1.711,5.214c0,2.126,0.54,3.8,1.622,5.032
		c1.087,1.232,2.54,1.849,4.36,1.849c1.535,0,2.978-0.521,4.336-1.563v2.776H78.092z"/>
	<path fill="#FFFFFF" d="M96.898,30.065h-3.917l-7.738-8.695h-0.066v8.695h-2.818V11.854h2.818v8.303h0.066l7.392-8.303h3.728
		l-8.197,8.824L96.898,30.065z"/>
	<path fill="#FFFFFF" d="M114.539,30.065h-2.528V15.54c-0.22,0.434-0.61,1.152-1.17,2.145l-8.132,12.38h-2.922V11.854h2.561v14.354
		l0.927-1.746l8.339-12.608h2.925L114.539,30.065L114.539,30.065z"/>
	<path fill="#FFFFFF" d="M135,30.065h-2.529V15.54c-0.219,0.434-0.607,1.152-1.171,2.145l-8.126,12.38h-2.928V11.854h2.568v14.354
		l0.92-1.746l8.341-12.608h2.928v18.211H135z M133.962,3c-0.065,0.806-0.267,1.542-0.592,2.204c-0.325,0.665-0.76,1.234-1.297,1.706
		c-0.539,0.473-1.17,0.844-1.896,1.104c-0.73,0.259-1.531,0.39-2.401,0.39c-0.883,0-1.686-0.127-2.405-0.382
		c-0.727-0.257-1.353-0.618-1.876-1.086c-0.528-0.468-0.942-1.036-1.249-1.697c-0.301-0.667-0.478-1.409-0.523-2.239h2.764
		c0.041,0.461,0.119,0.896,0.236,1.299c0.12,0.403,0.305,0.758,0.566,1.058c0.257,0.308,0.597,0.543,0.998,0.721
		c0.406,0.179,0.917,0.27,1.524,0.27c0.526,0,0.987-0.097,1.381-0.278c0.397-0.184,0.732-0.429,1.009-0.739
		c0.274-0.307,0.488-0.664,0.645-1.065c0.156-0.407,0.256-0.827,0.301-1.264L133.962,3L133.962,3z"/>
	<path fill="#FFFFFF" d="M-27.86,59.807c0,1.819-0.34,3.447-1.02,4.858c-0.684,1.419-1.647,2.501-2.887,3.268
		c-1.247,0.757-2.676,1.132-4.293,1.132c-2.703,0-4.785-0.997-6.248-2.98c-1.461-1.995-2.193-4.846-2.193-8.542
		c0-7.265,1.716-11.749,5.143-13.465c0.609-0.293,1.314-0.54,2.122-0.747c0.809-0.204,1.641-0.39,2.494-0.568
		c0.854-0.181,1.688-0.369,2.509-0.556c0.824-0.201,1.541-0.456,2.16-0.763v2.736c-0.537,0.293-1.177,0.529-1.907,0.69
		c-0.732,0.171-1.486,0.317-2.261,0.451c-0.772,0.131-1.53,0.268-2.251,0.434c-0.727,0.155-1.356,0.392-1.882,0.681
		c-1.799,0.996-2.855,3.483-3.165,7.474h0.068c0.611-0.974,1.448-1.734,2.513-2.278c1.063-0.544,2.189-0.813,3.369-0.813
		c1.525,0,2.875,0.366,4.05,1.104c1.175,0.743,2.081,1.803,2.723,3.189C-28.182,56.495-27.86,58.055-27.86,59.807z M-30.747,60.105
		c0-2.089-0.491-3.747-1.48-4.972c-0.983-1.225-2.32-1.839-4.004-1.839c-2.361,0-4.145,1.16-5.346,3.482l-0.037,1.685
		c0,2.483,0.5,4.458,1.498,5.914c0.997,1.469,2.371,2.199,4.127,2.199c1.547,0,2.805-0.6,3.78-1.796
		C-31.235,63.577-30.747,62.025-30.747,60.105z"/>
	<path fill="#FFFFFF" d="M-9.448,60.246h-12.428c0.042,2.05,0.568,3.615,1.572,4.701c1,1.087,2.394,1.628,4.168,1.628
		c1.994,0,3.812-0.658,5.452-1.987v2.713c-1.537,1.178-3.581,1.766-6.122,1.766c-2.511,0-4.47-0.839-5.879-2.511
		c-1.41-1.678-2.115-4.001-2.115-6.96c0-1.803,0.352-3.45,1.056-4.941c0.706-1.486,1.675-2.641,2.914-3.455
		c1.237-0.817,2.612-1.225,4.125-1.225c2.279,0,4.059,0.759,5.339,2.299c1.275,1.537,1.917,3.686,1.917,6.447L-9.448,60.246
		L-9.448,60.246z M-12.334,57.779c-0.026-1.683-0.417-2.991-1.181-3.923c-0.758-0.937-1.838-1.396-3.221-1.396
		c-1.308,0-2.425,0.483-3.354,1.453c-0.925,0.97-1.509,2.263-1.75,3.856L-12.334,57.779L-12.334,57.779z"/>
	<path fill="#FFFFFF" d="M6.043,63.625c0,1.678-0.658,3.011-1.979,3.988c-1.316,0.97-3.087,1.451-5.31,1.451
		c-2.415,0-4.269-0.318-5.553-0.957v-2.86c1.523,0.887,3.319,1.328,5.382,1.328c3.109,0,4.659-1.016,4.659-3.057
		c0-2.018-1.705-3.018-5.107-3.018h-1.734v-2.477h1.649c2.993,0,4.489-0.958,4.489-2.879c0-0.818-0.343-1.472-1.023-1.955
		c-0.684-0.49-1.624-0.727-2.83-0.727c-1.706,0-3.419,0.445-5.14,1.331v-2.72c1.961-0.737,3.747-1.101,5.362-1.101
		c4.292,0,6.432,1.628,6.432,4.894c0,1.072-0.326,1.994-0.98,2.765c-0.653,0.771-1.532,1.257-2.646,1.479v0.092
		c1.317,0.129,2.369,0.587,3.155,1.39C5.655,61.391,6.043,62.408,6.043,63.625z"/>
	<path fill="#FFFFFF" d="M34.772,58.964c0,3.081-0.73,5.544-2.188,7.363c-1.457,1.824-3.404,2.739-5.847,2.739
		c-2.316,0-4.073-1.02-5.277-3.059h-0.07V77h-2.816V50.418h2.816v3.2h0.07c1.387-2.433,3.417-3.646,6.085-3.646
		c2.201,0,3.956,0.809,5.26,2.419C34.115,54.001,34.772,56.191,34.772,58.964z M31.88,58.934c0-1.969-0.446-3.541-1.34-4.716
		c-0.894-1.176-2.125-1.754-3.697-1.754c-1.614,0-2.925,0.574-3.934,1.734c-1.009,1.164-1.516,2.644-1.516,4.456v2.537
		c0,1.524,0.485,2.805,1.453,3.839c0.968,1.039,2.164,1.548,3.584,1.548c1.694,0,3.027-0.677,3.999-2.023
		C31.397,63.195,31.88,61.324,31.88,58.934z"/>
	<path fill="#FFFFFF" d="M53.146,60.246H40.718c0.046,2.05,0.571,3.615,1.572,4.701c1.007,1.087,2.392,1.628,4.168,1.628
		c1.993,0,3.813-0.658,5.45-1.987v2.713c-1.535,1.178-3.578,1.766-6.122,1.766c-2.506,0-4.468-0.839-5.876-2.511
		c-1.413-1.678-2.115-4.001-2.115-6.96c0-1.803,0.353-3.45,1.056-4.941c0.707-1.486,1.677-2.641,2.917-3.455
		c1.239-0.817,2.614-1.225,4.124-1.225c2.278,0,4.063,0.759,5.339,2.299c1.276,1.537,1.913,3.686,1.913,6.447v1.525H53.146z
		 M50.256,57.779c-0.02-1.683-0.412-2.991-1.176-3.923c-0.765-0.937-1.834-1.396-3.223-1.396c-1.309,0-2.424,0.483-3.353,1.453
		c-0.928,0.97-1.511,2.263-1.755,3.856L50.256,57.779L50.256,57.779z"/>
	<path fill="#FFFFFF" d="M67.055,52.888h-6.967v15.729h-2.819V50.414h9.784L67.055,52.888L67.055,52.888z"/>
	<path fill="#FFFFFF" d="M85.517,68.617h-2.522V54.096c-0.218,0.438-0.612,1.154-1.173,2.148l-8.128,12.373h-2.925V50.414h2.563
		v14.349l0.925-1.74l8.34-12.608h2.921v18.203H85.517z"/>
	<path fill="#FFFFFF" d="M103.085,67.788c-1.355,0.854-2.971,1.281-4.825,1.281c-1.611,0-3.05-0.384-4.328-1.145
		c-1.278-0.765-2.271-1.849-2.981-3.246c-0.712-1.397-1.065-2.961-1.065-4.711c0-3.014,0.834-5.424,2.501-7.261
		c1.667-1.819,3.89-2.73,6.661-2.73c1.537,0,2.894,0.308,4.075,0.924v2.986c-1.316-0.951-2.718-1.419-4.194-1.419
		c-1.819,0-3.301,0.675-4.441,2.012c-1.144,1.353-1.71,3.089-1.71,5.223c0,2.118,0.542,3.796,1.625,5.031
		c1.083,1.232,2.537,1.853,4.355,1.853c1.536,0,2.98-0.517,4.332-1.566L103.085,67.788L103.085,67.788z"/>
	<path fill="#FFFFFF" d="M118.405,52.888h-5.274v15.729h-2.822V52.888h-5.276v-2.474h13.373V52.888L118.405,52.888z"/>
	<path fill="#FFFFFF" d="M137.989,58.964c0,3.081-0.729,5.544-2.187,7.363c-1.451,1.824-3.401,2.739-5.843,2.739
		c-2.313,0-4.074-1.02-5.276-3.059h-0.068V77h-2.82V50.418h2.82v3.2h0.068c1.386-2.433,3.414-3.646,6.086-3.646
		c2.201,0,3.954,0.809,5.264,2.419C137.334,54.001,137.989,56.191,137.989,58.964z M135.096,58.934c0-1.969-0.445-3.541-1.342-4.716
		c-0.893-1.176-2.123-1.754-3.695-1.754c-1.616,0-2.925,0.574-3.935,1.734c-1.009,1.164-1.513,2.644-1.513,4.456v2.537
		c0,1.524,0.48,2.805,1.453,3.839c0.969,1.039,2.16,1.548,3.581,1.548c1.697,0,3.03-0.677,3.995-2.023
		C134.617,63.195,135.096,61.324,135.096,58.934z"/>
	<path fill="#FFFFFF" d="M154.354,68.617h-2.817V65.78h-0.067c-1.228,2.183-3.031,3.284-5.417,3.284
		c-1.696,0-3.055-0.478-4.076-1.429c-1.02-0.954-1.531-2.234-1.531-3.853c0-3.389,1.937-5.369,5.812-5.943l5.278-0.763
		c0-3.08-1.213-4.625-3.633-4.625c-2.116,0-4.03,0.742-5.74,2.22v-2.98c0.515-0.404,1.396-0.791,2.647-1.163
		c1.25-0.375,2.361-0.567,3.337-0.567c4.139,0,6.203,2.271,6.203,6.809L154.354,68.617L154.354,68.617z M151.535,59.413l-4.264,0.62
		c-1.456,0.213-2.477,0.576-3.061,1.074c-0.582,0.504-0.872,1.317-0.872,2.451c0,0.913,0.312,1.64,0.941,2.19
		c0.628,0.554,1.44,0.826,2.426,0.826c1.397,0,2.552-0.503,3.465-1.525c0.908-1.021,1.364-2.298,1.364-3.822V59.413z"/>
	<path fill="#FFFFFF" d="M176.875,75.254h-2.432v-6.633h-14.775V50.418h2.818v15.725h8.969V50.418h2.827v15.725h2.592
		L176.875,75.254L176.875,75.254z"/>
	<path fill="#FFFFFF" d="M195.543,68.617h-2.525V54.096c-0.215,0.438-0.607,1.154-1.171,2.148l-8.132,12.373h-2.924V50.414h2.561
		v14.349l0.929-1.74l8.339-12.608h2.922v18.203H195.543z"/>
	<path fill="#FFFFFF" d="M216,68.617h-2.524V54.096c-0.223,0.438-0.609,1.154-1.174,2.148l-8.126,12.373h-2.927V50.414h2.564v14.349
		l0.927-1.74l8.336-12.608h2.922v18.203H216z"/>
</g>
</svg>
