<?xml version="1.0" encoding="utf-8"?>
<!-- Generator: Adobe Illustrator 16.0.0, SVG Export Plug-In . SVG Version: 6.00 Build 0)  -->
<!DOCTYPE svg PUBLIC "-//W3C//DTD SVG 1.1//EN" "http://www.w3.org/Graphics/SVG/1.1/DTD/svg11.dtd">
<svg version="1.1" id="Layer_1" xmlns="http://www.w3.org/2000/svg" xmlns:xlink="http://www.w3.org/1999/xlink" x="0px" y="0px"
	 width="270px" height="40px" viewBox="-770.161 -63.5 270 40" enable-background="new -770.161 -63.5 270 40" xml:space="preserve"
	>
<g>
	<path fill="none" d="M-500.161-23.51c0,0.005-0.004,0.01-0.01,0.01H-770.15c-0.006,0-0.01-0.004-0.01-0.01v-39.98
		c0-0.005,0.004-0.01,0.01-0.01h269.979c0.006,0,0.01,0.004,0.01,0.01V-23.51z"/>
</g>
<g id="Layer_1_1_">
</g>
<g>
	<path fill="#FFFFFF" d="M-749.015-38.294c0,0.078-0.026,0.137-0.078,0.176s-0.124,0.068-0.215,0.088s-0.225,0.029-0.401,0.029
		c-0.169,0-0.305-0.01-0.406-0.029s-0.174-0.049-0.22-0.088c-0.046-0.039-0.068-0.098-0.068-0.176v-0.88
		c-0.385,0.411-0.814,0.73-1.286,0.958c-0.473,0.229-0.973,0.342-1.501,0.342c-0.463,0-0.882-0.061-1.257-0.181
		c-0.375-0.12-0.695-0.294-0.958-0.523c-0.264-0.228-0.469-0.508-0.616-0.841c-0.146-0.333-0.22-0.711-0.22-1.135
		c0-0.496,0.101-0.926,0.303-1.291s0.493-0.668,0.871-0.91c0.378-0.241,0.841-0.422,1.389-0.543c0.548-0.12,1.164-0.181,1.849-0.181
		h1.213v-0.685c0-0.339-0.036-0.639-0.107-0.9s-0.188-0.478-0.348-0.65s-0.367-0.304-0.621-0.391
		c-0.254-0.088-0.567-0.132-0.939-0.132c-0.398,0-0.755,0.047-1.071,0.142c-0.317,0.095-0.594,0.199-0.832,0.313
		c-0.238,0.115-0.437,0.219-0.596,0.313c-0.16,0.095-0.279,0.142-0.357,0.142c-0.052,0-0.098-0.013-0.137-0.039
		c-0.039-0.026-0.073-0.065-0.103-0.117c-0.029-0.052-0.051-0.119-0.063-0.201c-0.013-0.081-0.02-0.171-0.02-0.269
		c0-0.163,0.011-0.292,0.034-0.386c0.022-0.094,0.079-0.184,0.166-0.269c0.088-0.085,0.24-0.184,0.455-0.298
		c0.215-0.114,0.463-0.219,0.743-0.313c0.28-0.095,0.587-0.173,0.919-0.235s0.668-0.093,1.007-0.093c0.632,0,1.17,0.072,1.614,0.215
		s0.802,0.354,1.076,0.63c0.273,0.278,0.473,0.622,0.596,1.032c0.124,0.411,0.186,0.89,0.186,1.438V-38.294z M-750.619-42.314
		h-1.379c-0.443,0-0.828,0.038-1.154,0.112c-0.326,0.076-0.597,0.187-0.812,0.333c-0.215,0.147-0.374,0.323-0.475,0.528
		c-0.101,0.206-0.151,0.442-0.151,0.709c0,0.457,0.145,0.82,0.435,1.09c0.29,0.271,0.696,0.406,1.218,0.406
		c0.424,0,0.817-0.107,1.178-0.323c0.362-0.215,0.742-0.544,1.14-0.988V-42.314z"/>
	<path fill="#FFFFFF" d="M-738.334-38.304c0,0.052-0.013,0.097-0.039,0.132c-0.026,0.036-0.069,0.067-0.127,0.093
		c-0.059,0.026-0.14,0.045-0.245,0.059c-0.104,0.013-0.234,0.02-0.391,0.02c-0.163,0-0.296-0.006-0.401-0.02
		s-0.186-0.033-0.245-0.059c-0.059-0.026-0.101-0.057-0.127-0.093c-0.026-0.035-0.039-0.08-0.039-0.132v-3.863h-4.49v3.863
		c0,0.052-0.013,0.097-0.039,0.132c-0.026,0.036-0.068,0.067-0.127,0.093c-0.059,0.026-0.14,0.045-0.245,0.059
		c-0.104,0.013-0.238,0.02-0.401,0.02c-0.157,0-0.287-0.006-0.391-0.02c-0.104-0.013-0.188-0.033-0.25-0.059
		c-0.062-0.026-0.104-0.057-0.127-0.093c-0.023-0.035-0.034-0.08-0.034-0.132v-8.803c0-0.052,0.011-0.096,0.034-0.132
		c0.023-0.036,0.065-0.069,0.127-0.098c0.062-0.03,0.145-0.049,0.25-0.059c0.104-0.01,0.234-0.015,0.391-0.015
		c0.163,0,0.297,0.005,0.401,0.015c0.104,0.009,0.186,0.029,0.245,0.059c0.059,0.029,0.101,0.062,0.127,0.098
		c0.026,0.036,0.039,0.08,0.039,0.132v3.58h4.49v-3.58c0-0.052,0.013-0.096,0.039-0.132c0.026-0.036,0.068-0.069,0.127-0.098
		c0.059-0.03,0.14-0.049,0.245-0.059c0.104-0.01,0.238-0.015,0.401-0.015c0.157,0,0.287,0.005,0.391,0.015
		c0.104,0.009,0.186,0.029,0.245,0.059c0.059,0.029,0.101,0.062,0.127,0.098c0.026,0.036,0.039,0.08,0.039,0.132V-38.304z"/>
	<path fill="#FFFFFF" d="M-730.089-46.637c0,0.13-0.009,0.241-0.024,0.333c-0.017,0.091-0.039,0.166-0.069,0.225
		c-0.029,0.059-0.062,0.101-0.098,0.127c-0.036,0.026-0.08,0.039-0.131,0.039h-3.316v7.609c0,0.052-0.013,0.097-0.039,0.132
		c-0.026,0.036-0.068,0.067-0.127,0.093c-0.059,0.026-0.141,0.045-0.245,0.059c-0.104,0.013-0.238,0.02-0.401,0.02
		c-0.157,0-0.287-0.006-0.392-0.02c-0.104-0.013-0.188-0.033-0.249-0.059c-0.063-0.026-0.105-0.057-0.127-0.093
		c-0.023-0.035-0.034-0.08-0.034-0.132v-8.48c0-0.195,0.044-0.34,0.132-0.435c0.088-0.095,0.21-0.142,0.367-0.142h4.431
		c0.052,0,0.096,0.014,0.131,0.044c0.036,0.029,0.069,0.075,0.098,0.137c0.03,0.062,0.052,0.137,0.069,0.224
		C-730.098-46.867-730.089-46.761-730.089-46.637z"/>
	<path fill="#FFFFFF" d="M-721.981-38.304c0,0.052-0.013,0.097-0.039,0.132c-0.026,0.036-0.068,0.067-0.127,0.093
		c-0.059,0.026-0.141,0.045-0.245,0.059c-0.104,0.013-0.235,0.02-0.391,0.02c-0.163,0-0.297-0.006-0.401-0.02
		c-0.104-0.013-0.188-0.033-0.249-0.059c-0.063-0.026-0.106-0.057-0.132-0.093c-0.026-0.035-0.039-0.08-0.039-0.132v-7.688h-2.426
		c-0.104,1.037-0.23,1.959-0.376,2.768c-0.147,0.809-0.312,1.513-0.494,2.112c-0.183,0.6-0.388,1.105-0.616,1.516
		c-0.229,0.411-0.478,0.742-0.748,0.993c-0.271,0.251-0.564,0.432-0.88,0.543c-0.317,0.111-0.654,0.166-1.013,0.166
		c-0.059,0-0.109-0.01-0.152-0.029c-0.042-0.02-0.076-0.055-0.102-0.107c-0.026-0.052-0.046-0.125-0.059-0.22
		c-0.013-0.094-0.02-0.217-0.02-0.367c0-0.156,0.005-0.284,0.015-0.381c0.009-0.098,0.025-0.176,0.048-0.235
		s0.052-0.098,0.088-0.117c0.036-0.02,0.08-0.029,0.132-0.029c0.215,0,0.421-0.05,0.616-0.151c0.196-0.101,0.378-0.268,0.548-0.5
		c0.169-0.231,0.329-0.534,0.479-0.909s0.287-0.836,0.411-1.384c0.124-0.547,0.241-1.188,0.352-1.921
		c0.111-0.734,0.215-1.577,0.313-2.529c0.013-0.195,0.06-0.34,0.142-0.435c0.081-0.094,0.197-0.142,0.347-0.142h4.519
		c0.157,0,0.279,0.047,0.367,0.142c0.088,0.095,0.132,0.24,0.132,0.435V-38.304z"/>
	<path fill="#FFFFFF" d="M-711.154-38.294c0,0.046-0.013,0.088-0.039,0.127c-0.026,0.039-0.068,0.07-0.127,0.092
		c-0.059,0.023-0.141,0.041-0.245,0.054c-0.104,0.013-0.235,0.02-0.391,0.02c-0.157,0-0.287-0.006-0.392-0.02
		c-0.104-0.013-0.189-0.031-0.254-0.054c-0.065-0.022-0.111-0.053-0.137-0.092c-0.026-0.04-0.039-0.082-0.039-0.127v-5.066
		c0-0.254,0.006-0.513,0.02-0.778c0.013-0.264,0.029-0.523,0.049-0.777c-0.15,0.261-0.315,0.517-0.494,0.768s-0.36,0.5-0.542,0.748
		l-3.736,5.105c-0.045,0.052-0.086,0.098-0.123,0.137c-0.036,0.039-0.082,0.07-0.137,0.093c-0.056,0.022-0.125,0.039-0.21,0.049
		c-0.085,0.01-0.189,0.015-0.313,0.015c-0.144,0-0.261-0.006-0.352-0.02s-0.165-0.031-0.221-0.054
		c-0.055-0.022-0.094-0.053-0.117-0.092c-0.023-0.04-0.034-0.082-0.034-0.127v-8.822c0-0.045,0.011-0.088,0.034-0.127
		s0.065-0.072,0.127-0.098c0.062-0.026,0.145-0.044,0.25-0.054c0.104-0.01,0.231-0.015,0.381-0.015c0.313,0,0.528,0.024,0.646,0.074
		c0.117,0.048,0.176,0.122,0.176,0.22v5.096c0,0.254-0.006,0.507-0.02,0.758c-0.013,0.251-0.029,0.501-0.049,0.749
		c0.15-0.248,0.301-0.49,0.455-0.729c0.153-0.237,0.318-0.471,0.494-0.699l3.785-5.174c0.039-0.052,0.08-0.098,0.123-0.137
		c0.042-0.039,0.094-0.07,0.157-0.093c0.061-0.022,0.135-0.039,0.22-0.048c0.084-0.01,0.195-0.015,0.333-0.015
		c0.137,0,0.252,0.005,0.347,0.015c0.094,0.009,0.169,0.027,0.225,0.054c0.056,0.026,0.095,0.059,0.117,0.098
		c0.023,0.039,0.035,0.085,0.035,0.137V-38.294z"/>
	<path fill="#FFFFFF" d="M-700.327-38.294c0,0.046-0.013,0.088-0.039,0.127c-0.026,0.039-0.068,0.07-0.127,0.092
		c-0.059,0.023-0.141,0.041-0.245,0.054c-0.104,0.013-0.235,0.02-0.391,0.02c-0.157,0-0.287-0.006-0.392-0.02
		c-0.104-0.013-0.189-0.031-0.254-0.054c-0.065-0.022-0.111-0.053-0.137-0.092c-0.026-0.04-0.039-0.082-0.039-0.127v-5.066
		c0-0.254,0.006-0.513,0.02-0.778c0.013-0.264,0.029-0.523,0.049-0.777c-0.15,0.261-0.315,0.517-0.494,0.768s-0.36,0.5-0.542,0.748
		l-3.736,5.105c-0.045,0.052-0.086,0.098-0.123,0.137c-0.036,0.039-0.082,0.07-0.137,0.093c-0.056,0.022-0.125,0.039-0.21,0.049
		c-0.085,0.01-0.189,0.015-0.313,0.015c-0.144,0-0.261-0.006-0.352-0.02s-0.165-0.031-0.221-0.054
		c-0.055-0.022-0.094-0.053-0.117-0.092c-0.023-0.04-0.034-0.082-0.034-0.127v-8.822c0-0.045,0.011-0.088,0.034-0.127
		s0.065-0.072,0.127-0.098c0.062-0.026,0.145-0.044,0.25-0.054c0.104-0.01,0.231-0.015,0.381-0.015c0.313,0,0.528,0.024,0.646,0.074
		c0.117,0.048,0.176,0.122,0.176,0.22v5.096c0,0.254-0.007,0.507-0.02,0.758c-0.013,0.251-0.029,0.501-0.049,0.749
		c0.15-0.248,0.301-0.49,0.455-0.729c0.153-0.237,0.318-0.471,0.494-0.699l3.785-5.174c0.039-0.052,0.08-0.098,0.123-0.137
		c0.042-0.039,0.094-0.07,0.157-0.093c0.061-0.022,0.135-0.039,0.22-0.048c0.084-0.01,0.195-0.015,0.333-0.015
		c0.137,0,0.252,0.005,0.347,0.015c0.094,0.009,0.169,0.027,0.225,0.054c0.056,0.026,0.095,0.059,0.117,0.098
		c0.023,0.039,0.035,0.085,0.035,0.137V-38.294z M-701.188-51.264c0,0.372-0.055,0.721-0.166,1.047
		c-0.111,0.326-0.287,0.611-0.528,0.855c-0.241,0.245-0.551,0.438-0.929,0.578c-0.378,0.14-0.838,0.21-1.379,0.21
		c-0.496,0-0.931-0.062-1.306-0.186c-0.375-0.124-0.688-0.301-0.939-0.533c-0.251-0.231-0.44-0.514-0.567-0.846
		c-0.128-0.333-0.191-0.708-0.191-1.125c0-0.065,0.011-0.121,0.035-0.166c0.022-0.046,0.065-0.082,0.127-0.107
		c0.062-0.026,0.143-0.046,0.245-0.059c0.101-0.013,0.223-0.02,0.367-0.02c0.156,0,0.28,0.008,0.372,0.024
		c0.091,0.017,0.162,0.041,0.21,0.074c0.049,0.032,0.082,0.075,0.098,0.127c0.016,0.052,0.024,0.114,0.024,0.186
		c0,0.208,0.033,0.401,0.098,0.577c0.065,0.176,0.165,0.33,0.299,0.46c0.133,0.13,0.295,0.231,0.484,0.303s0.407,0.107,0.655,0.107
		c0.241,0,0.455-0.036,0.641-0.107c0.186-0.072,0.344-0.173,0.474-0.303c0.131-0.13,0.229-0.287,0.293-0.47
		c0.065-0.183,0.098-0.378,0.098-0.587c0-0.065,0.008-0.122,0.024-0.171c0.017-0.048,0.049-0.089,0.098-0.122
		c0.049-0.033,0.117-0.057,0.206-0.074c0.088-0.016,0.207-0.024,0.357-0.024c0.156,0,0.285,0.007,0.387,0.02
		c0.101,0.013,0.182,0.033,0.244,0.059c0.062,0.026,0.106,0.062,0.132,0.107C-701.201-51.384-701.188-51.329-701.188-51.264z"/>
	<path fill="#FFFFFF" d="M-691.006-39.644c0,0.111-0.003,0.207-0.01,0.289c-0.006,0.082-0.018,0.15-0.034,0.205
		c-0.017,0.056-0.037,0.105-0.059,0.147c-0.023,0.042-0.076,0.104-0.157,0.186c-0.082,0.082-0.22,0.183-0.416,0.304
		c-0.195,0.121-0.416,0.228-0.66,0.322c-0.245,0.095-0.511,0.171-0.797,0.23c-0.287,0.059-0.584,0.088-0.89,0.088
		c-0.632,0-1.193-0.104-1.682-0.313c-0.489-0.208-0.898-0.514-1.228-0.914c-0.33-0.401-0.581-0.893-0.753-1.478
		c-0.173-0.583-0.259-1.256-0.259-2.019c0-0.867,0.105-1.612,0.317-2.235s0.502-1.133,0.871-1.531
		c0.368-0.398,0.802-0.693,1.3-0.885c0.499-0.192,1.039-0.289,1.619-0.289c0.281,0,0.553,0.026,0.817,0.078
		c0.264,0.052,0.507,0.121,0.729,0.206s0.419,0.183,0.592,0.293s0.298,0.206,0.376,0.284c0.079,0.078,0.132,0.14,0.162,0.186
		c0.029,0.046,0.054,0.1,0.073,0.161c0.02,0.063,0.033,0.132,0.039,0.211c0.007,0.078,0.01,0.176,0.01,0.293
		c0,0.254-0.029,0.433-0.088,0.533c-0.059,0.102-0.13,0.152-0.215,0.152c-0.098,0-0.21-0.054-0.337-0.161
		c-0.127-0.108-0.289-0.227-0.484-0.357c-0.196-0.13-0.432-0.249-0.709-0.357c-0.277-0.107-0.604-0.161-0.983-0.161
		c-0.776,0-1.371,0.298-1.785,0.896c-0.415,0.596-0.621,1.462-0.621,2.596c0,0.567,0.054,1.065,0.161,1.492
		c0.108,0.427,0.266,0.784,0.475,1.071c0.208,0.287,0.464,0.501,0.768,0.641c0.303,0.141,0.65,0.21,1.041,0.21
		c0.372,0,0.698-0.059,0.979-0.176c0.28-0.117,0.523-0.246,0.728-0.386c0.206-0.14,0.378-0.267,0.519-0.381
		c0.14-0.114,0.249-0.171,0.328-0.171c0.045,0,0.084,0.013,0.117,0.039c0.033,0.026,0.06,0.07,0.083,0.132
		c0.022,0.062,0.039,0.14,0.048,0.234C-691.011-39.887-691.006-39.774-691.006-39.644z"/>
	<path fill="#FFFFFF" d="M-681.685-38.236c0,0.039-0.012,0.074-0.034,0.103c-0.023,0.03-0.065,0.054-0.127,0.074
		s-0.144,0.034-0.244,0.044c-0.102,0.01-0.23,0.015-0.387,0.015c-0.183,0-0.331-0.006-0.445-0.02
		c-0.114-0.013-0.207-0.031-0.278-0.054c-0.072-0.022-0.124-0.052-0.157-0.087c-0.032-0.036-0.055-0.077-0.068-0.123l-0.939-2.279
		c-0.117-0.293-0.243-0.546-0.376-0.758c-0.134-0.211-0.289-0.383-0.464-0.513c-0.176-0.13-0.375-0.225-0.597-0.284
		s-0.476-0.088-0.763-0.088h-0.685v3.961c0,0.033-0.016,0.065-0.049,0.098c-0.033,0.032-0.082,0.059-0.146,0.078
		c-0.065,0.02-0.15,0.036-0.254,0.049c-0.104,0.013-0.225,0.02-0.362,0.02c-0.137,0-0.258-0.006-0.362-0.02
		c-0.104-0.013-0.189-0.029-0.254-0.049c-0.065-0.02-0.113-0.046-0.142-0.078c-0.03-0.033-0.044-0.065-0.044-0.098v-8.939
		c0-0.033,0.015-0.063,0.044-0.093c0.029-0.03,0.076-0.054,0.142-0.073c0.065-0.02,0.15-0.035,0.254-0.044
		c0.104-0.01,0.225-0.015,0.362-0.015c0.137,0,0.257,0.005,0.362,0.015c0.104,0.009,0.189,0.024,0.254,0.044
		c0.065,0.02,0.114,0.043,0.146,0.073c0.033,0.029,0.049,0.06,0.049,0.093v3.688h0.685c0.248,0,0.474-0.028,0.68-0.083
		c0.205-0.056,0.393-0.147,0.562-0.274c0.169-0.127,0.321-0.292,0.455-0.494c0.133-0.202,0.256-0.447,0.367-0.733l0.821-2.025
		c0.013-0.052,0.036-0.098,0.069-0.137c0.032-0.039,0.082-0.072,0.146-0.098c0.065-0.026,0.151-0.044,0.259-0.054
		c0.107-0.01,0.25-0.015,0.425-0.015c0.157,0,0.285,0.005,0.386,0.015c0.101,0.009,0.179,0.024,0.235,0.044
		c0.055,0.02,0.093,0.043,0.113,0.073c0.02,0.029,0.029,0.06,0.029,0.093c0,0.059-0.009,0.121-0.025,0.186
		c-0.016,0.065-0.041,0.14-0.073,0.225l-0.841,1.937c-0.13,0.326-0.272,0.6-0.425,0.821c-0.154,0.222-0.309,0.406-0.465,0.553
		c-0.157,0.146-0.316,0.261-0.479,0.342c-0.163,0.082-0.319,0.146-0.469,0.191v0.02c0.228,0.078,0.438,0.172,0.631,0.284
		c0.192,0.111,0.372,0.248,0.538,0.411c0.167,0.163,0.321,0.357,0.465,0.582c0.144,0.226,0.277,0.484,0.401,0.778l0.968,2.23
		c0.026,0.046,0.046,0.088,0.059,0.127c0.013,0.04,0.023,0.077,0.03,0.112c0.006,0.037,0.011,0.066,0.014,0.089
		C-681.687-38.276-681.685-38.255-681.685-38.236z"/>
	<path fill="#FFFFFF" d="M-671.738-38.294c0,0.046-0.013,0.088-0.039,0.127c-0.026,0.039-0.068,0.07-0.127,0.092
		c-0.059,0.023-0.14,0.041-0.244,0.054c-0.104,0.013-0.235,0.02-0.392,0.02c-0.156,0-0.287-0.006-0.391-0.02
		s-0.189-0.031-0.254-0.054c-0.065-0.022-0.111-0.053-0.137-0.092c-0.026-0.04-0.039-0.082-0.039-0.127v-5.066
		c0-0.254,0.006-0.513,0.02-0.778c0.013-0.264,0.029-0.523,0.049-0.777c-0.15,0.261-0.315,0.517-0.494,0.768s-0.36,0.5-0.542,0.748
		l-3.736,5.105c-0.045,0.052-0.086,0.098-0.123,0.137c-0.036,0.039-0.082,0.07-0.137,0.093c-0.056,0.022-0.125,0.039-0.21,0.049
		c-0.085,0.01-0.189,0.015-0.313,0.015c-0.144,0-0.261-0.006-0.353-0.02s-0.165-0.031-0.22-0.054
		c-0.055-0.022-0.094-0.053-0.117-0.092c-0.023-0.04-0.034-0.082-0.034-0.127v-8.822c0-0.045,0.011-0.088,0.034-0.127
		s0.065-0.072,0.127-0.098c0.062-0.026,0.145-0.044,0.25-0.054c0.104-0.01,0.231-0.015,0.381-0.015c0.313,0,0.528,0.024,0.646,0.074
		c0.117,0.048,0.176,0.122,0.176,0.22v5.096c0,0.254-0.006,0.507-0.02,0.758c-0.013,0.251-0.029,0.501-0.049,0.749
		c0.15-0.248,0.301-0.49,0.455-0.729c0.153-0.237,0.318-0.471,0.494-0.699l3.785-5.174c0.039-0.052,0.08-0.098,0.123-0.137
		c0.042-0.039,0.094-0.07,0.156-0.093c0.062-0.022,0.135-0.039,0.22-0.048c0.084-0.01,0.195-0.015,0.333-0.015
		c0.137,0,0.252,0.005,0.347,0.015c0.094,0.009,0.169,0.027,0.225,0.054c0.055,0.026,0.095,0.059,0.117,0.098
		c0.023,0.039,0.035,0.085,0.035,0.137V-38.294z"/>
	<path fill="#FFFFFF" d="M-660.911-38.294c0,0.046-0.013,0.088-0.039,0.127c-0.026,0.039-0.068,0.07-0.127,0.092
		c-0.059,0.023-0.14,0.041-0.244,0.054c-0.104,0.013-0.235,0.02-0.392,0.02c-0.156,0-0.287-0.006-0.391-0.02
		s-0.189-0.031-0.254-0.054c-0.065-0.022-0.111-0.053-0.137-0.092c-0.026-0.04-0.039-0.082-0.039-0.127v-5.066
		c0-0.254,0.006-0.513,0.02-0.778c0.013-0.264,0.029-0.523,0.049-0.777c-0.15,0.261-0.315,0.517-0.494,0.768s-0.36,0.5-0.542,0.748
		l-3.736,5.105c-0.045,0.052-0.086,0.098-0.123,0.137c-0.036,0.039-0.082,0.07-0.137,0.093c-0.056,0.022-0.125,0.039-0.21,0.049
		c-0.085,0.01-0.189,0.015-0.313,0.015c-0.144,0-0.261-0.006-0.353-0.02c-0.091-0.013-0.165-0.031-0.22-0.054
		c-0.055-0.022-0.094-0.053-0.117-0.092c-0.023-0.04-0.034-0.082-0.034-0.127v-8.822c0-0.045,0.011-0.088,0.034-0.127
		s0.065-0.072,0.127-0.098c0.062-0.026,0.145-0.044,0.25-0.054c0.104-0.01,0.231-0.015,0.381-0.015c0.313,0,0.528,0.024,0.646,0.074
		c0.117,0.048,0.176,0.122,0.176,0.22v5.096c0,0.254-0.006,0.507-0.02,0.758c-0.013,0.251-0.029,0.501-0.049,0.749
		c0.15-0.248,0.301-0.49,0.455-0.729c0.153-0.237,0.318-0.471,0.494-0.699l3.785-5.174c0.039-0.052,0.08-0.098,0.123-0.137
		c0.042-0.039,0.094-0.07,0.156-0.093c0.062-0.022,0.135-0.039,0.22-0.048c0.084-0.01,0.195-0.015,0.333-0.015
		c0.137,0,0.252,0.005,0.347,0.015c0.094,0.009,0.169,0.027,0.225,0.054c0.055,0.026,0.095,0.059,0.117,0.098
		c0.023,0.039,0.035,0.085,0.035,0.137V-38.294z M-661.772-51.264c0,0.372-0.055,0.721-0.166,1.047
		c-0.111,0.326-0.287,0.611-0.528,0.855c-0.241,0.245-0.551,0.438-0.929,0.578c-0.378,0.14-0.838,0.21-1.379,0.21
		c-0.496,0-0.931-0.062-1.306-0.186c-0.375-0.124-0.688-0.301-0.939-0.533c-0.251-0.231-0.44-0.514-0.567-0.846
		c-0.127-0.333-0.191-0.708-0.191-1.125c0-0.065,0.011-0.121,0.035-0.166c0.022-0.046,0.065-0.082,0.126-0.107
		c0.062-0.026,0.144-0.046,0.245-0.059c0.101-0.013,0.223-0.02,0.367-0.02c0.156,0,0.28,0.008,0.372,0.024
		c0.091,0.017,0.162,0.041,0.21,0.074c0.049,0.032,0.082,0.075,0.098,0.127c0.017,0.052,0.025,0.114,0.025,0.186
		c0,0.208,0.033,0.401,0.098,0.577c0.065,0.176,0.165,0.33,0.299,0.46c0.133,0.13,0.294,0.231,0.484,0.303
		c0.189,0.072,0.407,0.107,0.655,0.107c0.241,0,0.455-0.036,0.641-0.107c0.186-0.072,0.344-0.173,0.474-0.303
		s0.229-0.287,0.293-0.47c0.065-0.183,0.098-0.378,0.098-0.587c0-0.065,0.008-0.122,0.024-0.171
		c0.017-0.048,0.049-0.089,0.098-0.122c0.05-0.033,0.118-0.057,0.206-0.074c0.087-0.016,0.207-0.024,0.357-0.024
		c0.156,0,0.285,0.007,0.386,0.02c0.101,0.013,0.182,0.033,0.244,0.059c0.062,0.026,0.106,0.062,0.132,0.107
		C-661.785-51.384-661.772-51.329-661.772-51.264z"/>
	<path fill="#FFFFFF" d="M-644.466-43.07c0,0.786-0.118,1.503-0.354,2.152c-0.235,0.649-0.57,1.203-1.004,1.66
		c-0.434,0.458-0.953,0.811-1.558,1.061c-0.604,0.249-1.276,0.374-2.013,0.374c-0.82,0-1.522-0.127-2.106-0.379
		s-1.065-0.633-1.445-1.143c-0.379-0.508-0.656-1.151-0.83-1.926c-0.174-0.775-0.261-1.686-0.261-2.73
		c0-0.758,0.039-1.472,0.118-2.142c0.078-0.669,0.195-1.282,0.348-1.839c0.154-0.557,0.343-1.045,0.569-1.465
		c0.226-0.42,0.458-0.757,0.697-1.009c0.239-0.252,0.471-0.456,0.697-0.61s0.475-0.29,0.748-0.41
		c0.273-0.12,0.577-0.224,0.912-0.313s0.7-0.164,1.097-0.226l3.258-0.471c0.123-0.014,0.224-0.017,0.302-0.01
		c0.078,0.007,0.138,0.046,0.179,0.118s0.068,0.185,0.082,0.338c0.014,0.154,0.021,0.368,0.021,0.641
		c0,0.191-0.007,0.357-0.021,0.497c-0.014,0.14-0.041,0.261-0.082,0.364c-0.041,0.102-0.097,0.183-0.169,0.241
		c-0.072,0.058-0.163,0.094-0.271,0.107l-3.013,0.451c-0.28,0.041-0.526,0.087-0.738,0.139c-0.212,0.051-0.398,0.109-0.558,0.174
		c-0.161,0.065-0.301,0.139-0.42,0.221s-0.237,0.181-0.354,0.297c-0.116,0.117-0.222,0.263-0.317,0.441
		c-0.096,0.178-0.178,0.373-0.246,0.584c-0.068,0.212-0.126,0.444-0.174,0.697c-0.048,0.253-0.092,0.516-0.133,0.789
		c0.184-0.191,0.391-0.367,0.62-0.527c0.229-0.16,0.473-0.297,0.733-0.41c0.259-0.113,0.534-0.201,0.825-0.266
		c0.29-0.065,0.596-0.098,0.917-0.098c0.669,0,1.251,0.106,1.747,0.318c0.495,0.212,0.905,0.518,1.229,0.917
		c0.324,0.399,0.567,0.885,0.728,1.455C-644.546-44.441-644.466-43.794-644.466-43.07z M-647.079-42.927
		c0-0.382-0.035-0.738-0.103-1.065c-0.068-0.328-0.178-0.611-0.328-0.851c-0.15-0.239-0.351-0.428-0.6-0.569
		c-0.25-0.14-0.548-0.21-0.896-0.21c-0.232,0-0.448,0.029-0.646,0.087c-0.198,0.058-0.391,0.145-0.579,0.261
		s-0.374,0.256-0.558,0.42c-0.185,0.164-0.379,0.355-0.584,0.574c-0.007,0.082-0.01,0.171-0.01,0.267s0,0.195,0,0.297
		c0,0.643,0.037,1.201,0.112,1.675c0.075,0.475,0.196,0.87,0.364,1.184c0.167,0.314,0.386,0.547,0.656,0.697
		c0.27,0.15,0.6,0.226,0.989,0.226c0.349,0,0.659-0.067,0.933-0.2c0.273-0.133,0.502-0.328,0.687-0.584
		c0.185-0.256,0.324-0.57,0.42-0.942C-647.126-42.033-647.079-42.456-647.079-42.927z"/>
	<path fill="#FFFFFF" d="M-633.984-43.244c0,0.314-0.07,0.546-0.21,0.697c-0.14,0.15-0.333,0.225-0.579,0.225h-5.564
		c0,0.39,0.046,0.743,0.138,1.061c0.092,0.318,0.239,0.588,0.441,0.81c0.201,0.222,0.461,0.391,0.778,0.507
		c0.318,0.116,0.698,0.174,1.143,0.174c0.451,0,0.847-0.032,1.188-0.097c0.342-0.065,0.637-0.136,0.887-0.215
		c0.249-0.078,0.456-0.15,0.62-0.215s0.297-0.098,0.399-0.098c0.062,0,0.113,0.012,0.154,0.036s0.075,0.066,0.103,0.128
		c0.027,0.062,0.046,0.148,0.057,0.261s0.015,0.255,0.015,0.425c0,0.15-0.004,0.278-0.01,0.384
		c-0.007,0.106-0.017,0.197-0.031,0.271c-0.014,0.076-0.034,0.138-0.062,0.189s-0.063,0.101-0.107,0.149
		c-0.045,0.048-0.166,0.112-0.364,0.194c-0.198,0.082-0.451,0.163-0.758,0.241c-0.308,0.079-0.66,0.147-1.055,0.205
		c-0.396,0.058-0.82,0.087-1.271,0.087c-0.813,0-1.525-0.103-2.137-0.308s-1.122-0.516-1.532-0.933
		c-0.41-0.416-0.716-0.942-0.917-1.578c-0.202-0.635-0.302-1.38-0.302-2.234c0-0.813,0.105-1.545,0.317-2.198
		c0.211-0.652,0.519-1.206,0.922-1.66c0.403-0.454,0.893-0.8,1.47-1.04c0.577-0.239,1.228-0.358,1.952-0.358
		c0.765,0,1.419,0.113,1.962,0.338c0.543,0.225,0.989,0.538,1.337,0.938c0.348,0.399,0.604,0.873,0.769,1.419
		c0.164,0.547,0.246,1.141,0.246,1.783V-43.244z M-636.484-43.982c0.021-0.724-0.125-1.292-0.436-1.706
		c-0.311-0.413-0.791-0.62-1.439-0.62c-0.328,0-0.613,0.062-0.855,0.185c-0.243,0.123-0.444,0.289-0.604,0.497
		c-0.161,0.208-0.284,0.455-0.369,0.738c-0.085,0.284-0.135,0.586-0.148,0.907H-636.484z"/>
	<path fill="#FFFFFF" d="M-624.875-40.939c0,0.506-0.106,0.952-0.318,1.337c-0.212,0.386-0.509,0.712-0.892,0.979
		c-0.383,0.266-0.845,0.466-1.388,0.599c-0.543,0.133-1.153,0.2-1.829,0.2c-0.348,0-0.683-0.026-1.004-0.077
		c-0.321-0.051-0.617-0.116-0.886-0.195c-0.271-0.078-0.494-0.16-0.671-0.246s-0.306-0.16-0.384-0.226
		c-0.079-0.064-0.137-0.129-0.174-0.195c-0.038-0.064-0.067-0.138-0.087-0.22s-0.034-0.183-0.041-0.302
		c-0.007-0.119-0.01-0.265-0.01-0.436c0-0.157,0.007-0.283,0.021-0.379s0.032-0.174,0.057-0.236
		c0.023-0.062,0.052-0.104,0.087-0.128c0.034-0.024,0.075-0.036,0.123-0.036c0.088,0,0.203,0.042,0.343,0.128
		c0.14,0.085,0.317,0.178,0.533,0.276c0.215,0.1,0.478,0.193,0.789,0.282c0.311,0.089,0.685,0.133,1.122,0.133
		c0.3,0,0.565-0.031,0.794-0.092c0.229-0.061,0.42-0.148,0.574-0.261s0.27-0.251,0.348-0.415c0.079-0.164,0.118-0.348,0.118-0.553
		c0-0.191-0.038-0.362-0.113-0.512c-0.076-0.15-0.2-0.278-0.374-0.384c-0.174-0.105-0.403-0.186-0.687-0.241
		c-0.284-0.055-0.63-0.082-1.04-0.082h-0.983c-0.089,0-0.161-0.015-0.215-0.046c-0.055-0.031-0.099-0.08-0.133-0.149
		c-0.034-0.068-0.056-0.16-0.066-0.276s-0.016-0.256-0.016-0.42c0-0.157,0.007-0.288,0.021-0.394s0.036-0.19,0.067-0.251
		c0.031-0.061,0.072-0.105,0.123-0.133c0.051-0.027,0.114-0.041,0.19-0.041h0.953c0.369,0,0.687-0.027,0.953-0.082
		c0.266-0.055,0.485-0.135,0.656-0.241c0.17-0.106,0.295-0.236,0.374-0.39c0.078-0.154,0.118-0.333,0.118-0.538
		c0-0.178-0.038-0.336-0.113-0.477c-0.075-0.14-0.181-0.256-0.317-0.349c-0.137-0.092-0.302-0.16-0.497-0.205
		s-0.409-0.067-0.641-0.067c-0.389,0-0.736,0.043-1.04,0.128c-0.304,0.085-0.569,0.179-0.794,0.282
		c-0.225,0.102-0.412,0.194-0.558,0.276c-0.147,0.082-0.258,0.123-0.333,0.123c-0.041,0-0.079-0.008-0.113-0.025
		c-0.035-0.017-0.067-0.055-0.098-0.113s-0.055-0.139-0.072-0.241c-0.017-0.103-0.025-0.239-0.025-0.41
		c0-0.266,0.019-0.479,0.056-0.64c0.038-0.16,0.099-0.283,0.185-0.369c0.085-0.085,0.236-0.181,0.451-0.287
		c0.215-0.106,0.468-0.201,0.758-0.287c0.291-0.085,0.608-0.155,0.953-0.21c0.345-0.055,0.698-0.082,1.061-0.082
		c0.56,0,1.072,0.055,1.537,0.164c0.464,0.109,0.858,0.275,1.183,0.497c0.324,0.222,0.574,0.497,0.748,0.825
		c0.174,0.328,0.261,0.707,0.261,1.137c0,0.26-0.041,0.509-0.123,0.748c-0.082,0.239-0.198,0.456-0.348,0.65
		c-0.15,0.195-0.333,0.368-0.548,0.518c-0.215,0.15-0.463,0.267-0.743,0.349l-0.01,0.021c0.293,0.034,0.568,0.116,0.825,0.246
		c0.256,0.13,0.481,0.294,0.676,0.492s0.349,0.429,0.461,0.691C-624.931-41.531-624.875-41.246-624.875-40.939z"/>
	<path fill="#FFFFFF" d="M-610.075-42.842c0,0.77-0.083,1.46-0.249,2.073c-0.167,0.613-0.411,1.133-0.734,1.56
		c-0.322,0.427-0.722,0.757-1.198,0.988c-0.476,0.231-1.021,0.347-1.633,0.347c-0.261,0-0.502-0.026-0.724-0.078
		s-0.439-0.134-0.651-0.245s-0.422-0.251-0.63-0.42c-0.209-0.169-0.431-0.368-0.665-0.597v4.401c0,0.052-0.013,0.098-0.039,0.137
		c-0.026,0.039-0.069,0.071-0.127,0.098c-0.059,0.026-0.14,0.045-0.245,0.059c-0.104,0.013-0.238,0.02-0.401,0.02
		c-0.156,0-0.287-0.006-0.391-0.02s-0.188-0.033-0.249-0.059c-0.063-0.026-0.105-0.059-0.128-0.098
		c-0.023-0.04-0.034-0.085-0.034-0.137v-12.294c0-0.059,0.01-0.105,0.029-0.142c0.02-0.036,0.059-0.067,0.117-0.093
		c0.059-0.026,0.134-0.044,0.225-0.054c0.091-0.01,0.202-0.015,0.333-0.015c0.137,0,0.249,0.005,0.337,0.015
		c0.088,0.009,0.161,0.027,0.22,0.054c0.059,0.026,0.099,0.057,0.122,0.093c0.023,0.036,0.035,0.083,0.035,0.142v1.184
		c0.268-0.274,0.525-0.512,0.772-0.714c0.248-0.202,0.497-0.37,0.749-0.503c0.25-0.134,0.509-0.235,0.772-0.304
		c0.265-0.068,0.543-0.103,0.836-0.103c0.639,0,1.184,0.124,1.633,0.372c0.45,0.248,0.816,0.587,1.101,1.017
		c0.283,0.431,0.49,0.931,0.621,1.502C-610.141-44.086-610.075-43.481-610.075-42.842z M-611.748-42.657
		c0-0.45-0.035-0.885-0.104-1.306c-0.069-0.42-0.187-0.794-0.354-1.12c-0.167-0.326-0.392-0.587-0.674-0.783
		c-0.282-0.195-0.633-0.293-1.053-0.293c-0.209,0-0.416,0.031-0.62,0.093c-0.203,0.062-0.41,0.16-0.62,0.293s-0.43,0.31-0.659,0.528
		c-0.23,0.218-0.473,0.487-0.728,0.807v3.501c0.446,0.541,0.869,0.955,1.27,1.242c0.4,0.287,0.82,0.43,1.259,0.43
		c0.407,0,0.756-0.098,1.048-0.293c0.292-0.195,0.528-0.457,0.709-0.782c0.18-0.326,0.313-0.691,0.398-1.096
		C-611.791-41.838-611.748-42.246-611.748-42.657z"/>
	<path fill="#FFFFFF" d="M-600.138-43.087c0,0.254-0.063,0.435-0.191,0.543c-0.128,0.107-0.273,0.161-0.437,0.161h-5.797
		c0,0.489,0.049,0.929,0.147,1.32c0.099,0.392,0.262,0.727,0.492,1.008c0.229,0.28,0.527,0.495,0.894,0.646
		c0.367,0.15,0.815,0.225,1.347,0.225c0.419,0,0.792-0.034,1.12-0.103c0.328-0.068,0.611-0.145,0.85-0.23
		c0.239-0.084,0.436-0.162,0.59-0.229c0.154-0.069,0.27-0.103,0.349-0.103c0.046,0,0.087,0.012,0.123,0.034
		c0.036,0.023,0.064,0.057,0.083,0.103c0.02,0.045,0.035,0.109,0.044,0.19c0.01,0.082,0.015,0.181,0.015,0.298
		c0,0.085-0.003,0.159-0.01,0.22c-0.006,0.062-0.015,0.118-0.024,0.166c-0.01,0.049-0.026,0.093-0.049,0.132
		c-0.022,0.039-0.052,0.077-0.087,0.113c-0.036,0.036-0.142,0.094-0.318,0.176c-0.176,0.082-0.404,0.161-0.685,0.239
		c-0.28,0.079-0.605,0.148-0.973,0.211c-0.369,0.062-0.762,0.092-1.179,0.092c-0.724,0-1.358-0.101-1.903-0.303
		c-0.544-0.202-1.002-0.502-1.374-0.899c-0.372-0.398-0.652-0.896-0.841-1.497c-0.189-0.6-0.284-1.297-0.284-2.093
		c0-0.756,0.098-1.436,0.293-2.04c0.195-0.603,0.477-1.115,0.846-1.535c0.368-0.421,0.813-0.744,1.335-0.969
		c0.521-0.225,1.105-0.337,1.75-0.337c0.691,0,1.279,0.111,1.766,0.333c0.485,0.222,0.885,0.521,1.198,0.895
		c0.313,0.375,0.543,0.815,0.689,1.32c0.147,0.505,0.22,1.045,0.22,1.619V-43.087z M-601.762-43.566
		c0.02-0.848-0.169-1.513-0.566-1.996c-0.396-0.482-0.985-0.724-1.767-0.724c-0.4,0-0.751,0.075-1.052,0.225
		c-0.302,0.15-0.555,0.349-0.758,0.597c-0.204,0.248-0.361,0.536-0.473,0.866c-0.111,0.329-0.174,0.673-0.187,1.032H-601.762z"/>
	<path fill="#FFFFFF" d="M-592.431-46.637c0,0.13-0.008,0.241-0.024,0.333c-0.017,0.091-0.039,0.166-0.069,0.225
		c-0.029,0.059-0.062,0.101-0.098,0.127c-0.036,0.026-0.08,0.039-0.132,0.039h-3.315v7.609c0,0.052-0.013,0.097-0.039,0.132
		c-0.026,0.036-0.068,0.067-0.127,0.093c-0.059,0.026-0.141,0.045-0.245,0.059c-0.104,0.013-0.238,0.02-0.401,0.02
		c-0.156,0-0.287-0.006-0.391-0.02c-0.104-0.013-0.188-0.033-0.249-0.059c-0.063-0.026-0.105-0.057-0.127-0.093
		c-0.023-0.035-0.034-0.08-0.034-0.132v-8.48c0-0.195,0.044-0.34,0.132-0.435c0.088-0.095,0.21-0.142,0.367-0.142h4.431
		c0.052,0,0.096,0.014,0.132,0.044c0.036,0.029,0.069,0.075,0.098,0.137c0.03,0.062,0.052,0.137,0.069,0.224
		C-592.439-46.867-592.431-46.761-592.431-46.637z"/>
	<path fill="#FFFFFF" d="M-582.924-38.294c0,0.046-0.013,0.088-0.039,0.127c-0.026,0.039-0.068,0.07-0.127,0.092
		c-0.059,0.023-0.14,0.041-0.245,0.054s-0.235,0.02-0.391,0.02c-0.157,0-0.287-0.006-0.391-0.02
		c-0.104-0.013-0.189-0.031-0.254-0.054c-0.065-0.022-0.111-0.053-0.137-0.092c-0.026-0.04-0.039-0.082-0.039-0.127v-5.066
		c0-0.254,0.007-0.513,0.02-0.778c0.013-0.264,0.029-0.523,0.049-0.777c-0.15,0.261-0.314,0.517-0.494,0.768
		c-0.179,0.251-0.36,0.5-0.542,0.748l-3.736,5.105c-0.045,0.052-0.086,0.098-0.122,0.137c-0.036,0.039-0.082,0.07-0.137,0.093
		c-0.055,0.022-0.125,0.039-0.21,0.049c-0.085,0.01-0.189,0.015-0.313,0.015c-0.144,0-0.261-0.006-0.352-0.02
		s-0.165-0.031-0.22-0.054c-0.056-0.022-0.095-0.053-0.118-0.092c-0.022-0.04-0.034-0.082-0.034-0.127v-8.822
		c0-0.045,0.011-0.088,0.034-0.127c0.023-0.039,0.065-0.072,0.128-0.098c0.062-0.026,0.145-0.044,0.249-0.054
		c0.104-0.01,0.231-0.015,0.381-0.015c0.313,0,0.528,0.024,0.646,0.074c0.118,0.048,0.176,0.122,0.176,0.22v5.096
		c0,0.254-0.007,0.507-0.02,0.758c-0.013,0.251-0.029,0.501-0.049,0.749c0.15-0.248,0.301-0.49,0.455-0.729
		c0.153-0.237,0.318-0.471,0.494-0.699l3.785-5.174c0.04-0.052,0.08-0.098,0.123-0.137c0.042-0.039,0.094-0.07,0.157-0.093
		c0.062-0.022,0.135-0.039,0.22-0.048c0.085-0.01,0.196-0.015,0.333-0.015s0.252,0.005,0.348,0.015
		c0.094,0.009,0.169,0.027,0.224,0.054c0.056,0.026,0.095,0.059,0.118,0.098c0.022,0.039,0.034,0.085,0.034,0.137V-38.294z"/>
	<path fill="#FFFFFF" d="M-573.603-39.644c0,0.111-0.003,0.207-0.01,0.289c-0.007,0.082-0.019,0.15-0.034,0.205
		c-0.017,0.056-0.036,0.105-0.059,0.147c-0.023,0.042-0.076,0.104-0.157,0.186c-0.082,0.082-0.22,0.183-0.416,0.304
		c-0.195,0.121-0.416,0.228-0.66,0.322c-0.245,0.095-0.511,0.171-0.797,0.23c-0.287,0.059-0.583,0.088-0.89,0.088
		c-0.632,0-1.193-0.104-1.682-0.313c-0.489-0.208-0.898-0.514-1.228-0.914c-0.33-0.401-0.581-0.893-0.753-1.478
		c-0.173-0.583-0.259-1.256-0.259-2.019c0-0.867,0.105-1.612,0.317-2.235s0.502-1.133,0.871-1.531
		c0.368-0.398,0.802-0.693,1.3-0.885c0.5-0.192,1.039-0.289,1.619-0.289c0.28,0,0.552,0.026,0.817,0.078
		c0.264,0.052,0.507,0.121,0.729,0.206s0.418,0.183,0.591,0.293s0.298,0.206,0.377,0.284c0.078,0.078,0.132,0.14,0.162,0.186
		c0.029,0.046,0.053,0.1,0.073,0.161c0.02,0.063,0.033,0.132,0.039,0.211c0.007,0.078,0.01,0.176,0.01,0.293
		c0,0.254-0.029,0.433-0.088,0.533c-0.059,0.102-0.13,0.152-0.215,0.152c-0.098,0-0.21-0.054-0.338-0.161
		c-0.126-0.108-0.288-0.227-0.484-0.357s-0.432-0.249-0.709-0.357c-0.277-0.107-0.604-0.161-0.982-0.161
		c-0.776,0-1.371,0.298-1.785,0.896c-0.414,0.596-0.621,1.462-0.621,2.596c0,0.567,0.054,1.065,0.161,1.492
		c0.108,0.427,0.266,0.784,0.475,1.071c0.208,0.287,0.464,0.501,0.768,0.641c0.303,0.141,0.65,0.21,1.042,0.21
		c0.372,0,0.698-0.059,0.978-0.176c0.28-0.117,0.523-0.246,0.729-0.386c0.206-0.14,0.378-0.267,0.519-0.381
		c0.14-0.114,0.25-0.171,0.328-0.171c0.045,0,0.084,0.013,0.117,0.039c0.033,0.026,0.06,0.07,0.083,0.132
		c0.022,0.062,0.039,0.14,0.048,0.234C-573.608-39.887-573.603-39.774-573.603-39.644z"/>
	<path fill="#FFFFFF" d="M-565.299-46.627c0,0.13-0.007,0.241-0.02,0.333c-0.013,0.091-0.034,0.167-0.064,0.225
		c-0.029,0.059-0.063,0.103-0.103,0.132c-0.039,0.03-0.088,0.044-0.146,0.044h-2.641v7.59c0,0.052-0.013,0.097-0.039,0.132
		c-0.026,0.036-0.068,0.067-0.127,0.093c-0.059,0.026-0.14,0.045-0.245,0.059s-0.238,0.02-0.401,0.02
		c-0.157,0-0.287-0.006-0.391-0.02c-0.104-0.013-0.188-0.033-0.25-0.059c-0.062-0.026-0.104-0.057-0.126-0.093
		c-0.023-0.035-0.035-0.08-0.035-0.132v-7.59h-2.641c-0.052,0-0.1-0.014-0.142-0.044c-0.043-0.029-0.077-0.073-0.103-0.132
		c-0.026-0.059-0.047-0.135-0.063-0.23c-0.017-0.094-0.024-0.207-0.024-0.337c0-0.117,0.008-0.222,0.024-0.313
		c0.016-0.091,0.039-0.167,0.069-0.229c0.029-0.062,0.063-0.108,0.103-0.137c0.039-0.03,0.084-0.044,0.137-0.044h6.896
		c0.052,0,0.099,0.014,0.142,0.044c0.042,0.029,0.076,0.075,0.102,0.137c0.026,0.062,0.047,0.14,0.063,0.234
		C-565.308-46.851-565.299-46.745-565.299-46.627z"/>
	<path fill="#FFFFFF" d="M-555.607-42.842c0,0.77-0.083,1.46-0.249,2.073c-0.167,0.613-0.411,1.133-0.734,1.56
		c-0.322,0.427-0.722,0.757-1.198,0.988c-0.476,0.231-1.021,0.347-1.633,0.347c-0.261,0-0.502-0.026-0.724-0.078
		s-0.439-0.134-0.651-0.245s-0.422-0.251-0.63-0.42s-0.43-0.368-0.665-0.597v4.401c0,0.052-0.013,0.098-0.039,0.137
		c-0.026,0.039-0.069,0.071-0.127,0.098c-0.059,0.026-0.14,0.045-0.245,0.059c-0.104,0.013-0.238,0.02-0.401,0.02
		c-0.156,0-0.287-0.006-0.391-0.02s-0.188-0.033-0.249-0.059c-0.063-0.026-0.105-0.059-0.128-0.098
		c-0.022-0.04-0.034-0.085-0.034-0.137v-12.294c0-0.059,0.01-0.105,0.029-0.142c0.02-0.036,0.059-0.067,0.117-0.093
		c0.059-0.026,0.134-0.044,0.225-0.054c0.091-0.01,0.202-0.015,0.333-0.015c0.137,0,0.249,0.005,0.337,0.015
		c0.088,0.009,0.161,0.027,0.22,0.054c0.059,0.026,0.099,0.057,0.122,0.093c0.022,0.036,0.034,0.083,0.034,0.142v1.184
		c0.268-0.274,0.525-0.512,0.773-0.714c0.248-0.202,0.497-0.37,0.748-0.503c0.251-0.134,0.509-0.235,0.772-0.304
		c0.265-0.068,0.543-0.103,0.836-0.103c0.639,0,1.184,0.124,1.633,0.372c0.45,0.248,0.816,0.587,1.101,1.017
		c0.283,0.431,0.49,0.931,0.621,1.502C-555.672-44.086-555.607-43.481-555.607-42.842z M-557.279-42.657
		c0-0.45-0.035-0.885-0.104-1.306c-0.069-0.42-0.187-0.794-0.354-1.12c-0.167-0.326-0.392-0.587-0.674-0.783
		c-0.282-0.195-0.633-0.293-1.053-0.293c-0.209,0-0.416,0.031-0.62,0.093c-0.203,0.062-0.41,0.16-0.62,0.293s-0.43,0.31-0.659,0.528
		c-0.23,0.218-0.473,0.487-0.729,0.807v3.501c0.446,0.541,0.869,0.955,1.27,1.242c0.4,0.287,0.82,0.43,1.259,0.43
		c0.407,0,0.756-0.098,1.048-0.293c0.292-0.195,0.528-0.457,0.709-0.782c0.18-0.326,0.313-0.691,0.398-1.096
		C-557.322-41.838-557.279-42.246-557.279-42.657z"/>
	<path fill="#FFFFFF" d="M-546.55-38.294c0,0.078-0.026,0.137-0.079,0.176c-0.052,0.039-0.124,0.068-0.215,0.088
		s-0.225,0.029-0.401,0.029c-0.169,0-0.305-0.01-0.406-0.029s-0.174-0.049-0.22-0.088c-0.045-0.039-0.068-0.098-0.068-0.176v-0.88
		c-0.385,0.411-0.813,0.73-1.286,0.958c-0.473,0.229-0.974,0.342-1.502,0.342c-0.463,0-0.882-0.061-1.256-0.181
		c-0.375-0.12-0.695-0.294-0.958-0.523c-0.265-0.228-0.469-0.508-0.617-0.841c-0.146-0.333-0.22-0.711-0.22-1.135
		c0-0.496,0.101-0.926,0.303-1.291s0.492-0.668,0.871-0.91c0.378-0.241,0.841-0.422,1.389-0.543c0.548-0.12,1.164-0.181,1.849-0.181
		h1.213v-0.685c0-0.339-0.036-0.639-0.108-0.9s-0.188-0.478-0.347-0.65s-0.367-0.304-0.621-0.391
		c-0.254-0.088-0.567-0.132-0.939-0.132c-0.397,0-0.755,0.047-1.071,0.142c-0.316,0.095-0.594,0.199-0.832,0.313
		c-0.238,0.115-0.437,0.219-0.596,0.313c-0.16,0.095-0.279,0.142-0.357,0.142c-0.052,0-0.098-0.013-0.137-0.039
		c-0.039-0.026-0.073-0.065-0.103-0.117c-0.029-0.052-0.05-0.119-0.063-0.201c-0.013-0.081-0.02-0.171-0.02-0.269
		c0-0.163,0.011-0.292,0.035-0.386c0.022-0.094,0.078-0.184,0.166-0.269c0.089-0.085,0.24-0.184,0.455-0.298
		c0.215-0.114,0.463-0.219,0.744-0.313c0.28-0.095,0.586-0.173,0.919-0.235c0.333-0.062,0.668-0.093,1.007-0.093
		c0.632,0,1.17,0.072,1.614,0.215s0.802,0.354,1.076,0.63c0.274,0.278,0.473,0.622,0.597,1.032s0.186,0.89,0.186,1.438V-38.294z
		 M-548.154-42.314h-1.379c-0.443,0-0.828,0.038-1.154,0.112c-0.326,0.076-0.597,0.187-0.812,0.333
		c-0.215,0.147-0.374,0.323-0.475,0.528c-0.101,0.206-0.151,0.442-0.151,0.709c0,0.457,0.145,0.82,0.436,1.09
		c0.29,0.271,0.696,0.406,1.217,0.406c0.424,0,0.817-0.107,1.178-0.323c0.363-0.215,0.742-0.544,1.14-0.988V-42.314z"/>
	<path fill="#FFFFFF" d="M-534.52-35.067c-0.006,0.072-0.065,0.126-0.176,0.161c-0.111,0.036-0.277,0.054-0.499,0.054
		c-0.241,0-0.417-0.02-0.528-0.059c-0.111-0.039-0.167-0.091-0.167-0.156v-2.993h-7.199c-0.156,0-0.278-0.047-0.367-0.142
		c-0.087-0.095-0.132-0.237-0.132-0.426v-8.48c0-0.052,0.011-0.096,0.034-0.132c0.022-0.036,0.065-0.069,0.127-0.098
		c0.062-0.03,0.145-0.049,0.249-0.059c0.104-0.01,0.235-0.015,0.391-0.015c0.163,0,0.297,0.005,0.401,0.015
		c0.104,0.009,0.186,0.029,0.244,0.059c0.059,0.029,0.101,0.062,0.127,0.098c0.026,0.036,0.039,0.08,0.039,0.132v7.658h4.215v-7.658
		c0-0.052,0.013-0.096,0.039-0.132c0.026-0.036,0.07-0.069,0.132-0.098c0.062-0.03,0.146-0.049,0.25-0.059
		c0.104-0.01,0.234-0.015,0.391-0.015c0.163,0,0.296,0.005,0.401,0.015c0.104,0.009,0.186,0.029,0.245,0.059
		c0.059,0.029,0.101,0.062,0.127,0.098c0.026,0.036,0.039,0.08,0.039,0.132v7.658h1.223c0.157,0,0.261,0.03,0.313,0.088
		s0.078,0.163,0.078,0.313V-35.067z"/>
	<path fill="#FFFFFF" d="M-524.905-38.294c0,0.046-0.013,0.088-0.039,0.127c-0.026,0.039-0.069,0.07-0.127,0.092
		c-0.059,0.023-0.14,0.041-0.245,0.054c-0.104,0.013-0.234,0.02-0.391,0.02c-0.156,0-0.287-0.006-0.391-0.02
		s-0.189-0.031-0.254-0.054c-0.065-0.022-0.111-0.053-0.137-0.092c-0.026-0.04-0.04-0.082-0.04-0.127v-5.066
		c0-0.254,0.007-0.513,0.02-0.778c0.013-0.264,0.029-0.523,0.049-0.777c-0.15,0.261-0.315,0.517-0.494,0.768
		c-0.18,0.251-0.36,0.5-0.543,0.748l-3.736,5.105c-0.046,0.052-0.087,0.098-0.123,0.137c-0.036,0.039-0.082,0.07-0.137,0.093
		c-0.055,0.022-0.125,0.039-0.21,0.049c-0.084,0.01-0.189,0.015-0.313,0.015c-0.143,0-0.261-0.006-0.352-0.02
		s-0.165-0.031-0.22-0.054c-0.055-0.022-0.095-0.053-0.117-0.092c-0.023-0.04-0.034-0.082-0.034-0.127v-8.822
		c0-0.045,0.011-0.088,0.034-0.127c0.022-0.039,0.065-0.072,0.127-0.098c0.062-0.026,0.145-0.044,0.249-0.054
		c0.104-0.01,0.231-0.015,0.381-0.015c0.313,0,0.528,0.024,0.646,0.074c0.117,0.048,0.176,0.122,0.176,0.22v5.096
		c0,0.254-0.006,0.507-0.02,0.758c-0.013,0.251-0.029,0.501-0.049,0.749c0.15-0.248,0.301-0.49,0.455-0.729
		c0.153-0.237,0.317-0.471,0.494-0.699l3.785-5.174c0.039-0.052,0.08-0.098,0.123-0.137c0.042-0.039,0.094-0.07,0.156-0.093
		c0.062-0.022,0.135-0.039,0.22-0.048c0.085-0.01,0.196-0.015,0.333-0.015c0.137,0,0.252,0.005,0.348,0.015
		c0.094,0.009,0.169,0.027,0.225,0.054c0.055,0.026,0.094,0.059,0.117,0.098s0.035,0.085,0.035,0.137V-38.294z"/>
	<path fill="#FFFFFF" d="M-514.078-38.294c0,0.046-0.013,0.088-0.039,0.127c-0.026,0.039-0.069,0.07-0.127,0.092
		c-0.059,0.023-0.14,0.041-0.245,0.054c-0.104,0.013-0.234,0.02-0.391,0.02c-0.156,0-0.287-0.006-0.391-0.02
		s-0.189-0.031-0.254-0.054c-0.065-0.022-0.111-0.053-0.137-0.092c-0.026-0.04-0.04-0.082-0.04-0.127v-5.066
		c0-0.254,0.007-0.513,0.02-0.778c0.013-0.264,0.029-0.523,0.049-0.777c-0.15,0.261-0.315,0.517-0.494,0.768s-0.36,0.5-0.542,0.748
		l-3.736,5.105c-0.046,0.052-0.087,0.098-0.123,0.137c-0.036,0.039-0.082,0.07-0.137,0.093c-0.055,0.022-0.125,0.039-0.21,0.049
		c-0.084,0.01-0.189,0.015-0.313,0.015c-0.143,0-0.261-0.006-0.352-0.02s-0.165-0.031-0.22-0.054
		c-0.055-0.022-0.095-0.053-0.117-0.092c-0.023-0.04-0.034-0.082-0.034-0.127v-8.822c0-0.045,0.011-0.088,0.034-0.127
		c0.022-0.039,0.065-0.072,0.127-0.098c0.062-0.026,0.145-0.044,0.249-0.054c0.104-0.01,0.231-0.015,0.382-0.015
		c0.313,0,0.528,0.024,0.646,0.074c0.117,0.048,0.176,0.122,0.176,0.22v5.096c0,0.254-0.006,0.507-0.02,0.758
		c-0.013,0.251-0.029,0.501-0.049,0.749c0.15-0.248,0.301-0.49,0.455-0.729c0.153-0.237,0.317-0.471,0.494-0.699l3.785-5.174
		c0.039-0.052,0.08-0.098,0.123-0.137c0.042-0.039,0.094-0.07,0.156-0.093c0.062-0.022,0.135-0.039,0.22-0.048
		c0.085-0.01,0.196-0.015,0.333-0.015c0.137,0,0.252,0.005,0.348,0.015c0.094,0.009,0.169,0.027,0.225,0.054
		c0.055,0.026,0.094,0.059,0.117,0.098s0.035,0.085,0.035,0.137V-38.294z"/>
</g>
<g id="Layer_1_2_">
</g>
</svg>
