<?xml version="1.0" encoding="utf-8"?>
<!-- Generator: Adobe Illustrator 16.0.0, SVG Export Plug-In . SVG Version: 6.00 Build 0)  -->
<!DOCTYPE svg PUBLIC "-//W3C//DTD SVG 1.1//EN" "http://www.w3.org/Graphics/SVG/1.1/DTD/svg11.dtd">
<svg version="1.1" id="Layer_1" xmlns="http://www.w3.org/2000/svg" xmlns:xlink="http://www.w3.org/1999/xlink" x="0px" y="0px"
	 width="72px" height="72px" viewBox="-23.126 -23.5 72 72" enable-background="new -23.126 -23.5 72 72" xml:space="preserve">
<circle fill="#03A9F4" stroke="#363636" stroke-miterlimit="10" cx="12.874" cy="12.5" r="31"/>
<rect x="-23.126" y="-23.5" fill="none" width="72" height="72"/>
<path fill="#03A9F4" stroke="#03A9F4" stroke-miterlimit="10" d="M12.874,48c-19.575,0-35.5-15.926-35.5-35.5
	c0-19.575,15.925-35.5,35.5-35.5c19.584,0,35.5,15.925,35.5,35.5C48.374,32.074,32.451,48,12.874,48z M12.874-17.675
	c-16.635,0-30.175,13.536-30.175,30.175c0,16.641,13.536,30.175,30.175,30.175c16.644,0,30.175-13.535,30.175-30.175
	C43.049-4.139,29.512-17.675,12.874-17.675z"/>
<path fill="#FFFFFF" stroke="#FFFFFF" stroke-miterlimit="10" d="M20.737,11.884c-0.538,0.488-1.096,0.959-1.607,1.472
	c-2.349,2.363-4.656,4.759-7.038,7.085c-1.15,1.126-2.391,2.183-3.908,2.864c-0.817,0.37-1.672,0.571-2.566,0.352
	C4.177,23.3,3.417,22.14,3.5,20.504c0.081-1.55,0.621-2.989,1.251-4.389c0.914-2.044,1.912-4.057,2.875-6.083
	c1.165-2.458,2.358-4.906,3.483-7.38c0.368-0.811,0.556-1.697,0.816-2.556c0.048-0.17,0.036-0.36,0.048-0.542
	c-0.039-0.025-0.077-0.054-0.116-0.081c-0.282,0.275-0.608,0.522-0.844,0.832C9.825,1.87,8.668,3.452,7.49,5.022
	c-1.257,1.671-2.483,3.372-3.813,4.992c-0.544,0.663-1.268,1.231-2.024,1.675c-1.458,0.858-3.125,0.11-3.637-1.513
	c-0.378-1.208-0.03-2.324,0.501-3.375c0.853-1.678,1.814-3.304,2.696-4.968C1.671,0.978,2.057,0.08,2.002-0.919
	C1.961-1.573,1.66-2.112,1.132-2.514C0.71-2.829,0.247-2.71-0.188-2.517c-0.961,0.43-1.668,1.144-2.292,1.946
	c-0.327,0.425-0.769,0.562-1.152,0.344c-0.478-0.265-0.651-0.75-0.333-1.224c0.84-1.25,1.916-2.275,3.391-2.824
	C1.065-4.881,2.418-4.222,3.34-2.813c0.704,1.068,0.838,2.231,0.454,3.398C3.432,1.69,2.949,2.765,2.44,3.813
	C1.805,5.129,1.053,6.396,0.423,7.708C0.194,8.18,0.132,8.73,0.07,9.25c-0.023,0.19,0.124,0.444,0.282,0.583
	C0.415,9.892,0.75,9.765,0.875,9.64c0.681-0.685,1.412-1.338,1.97-2.112c1.518-2.092,2.937-4.252,4.439-6.357
	c0.761-1.063,1.578-2.09,2.448-3.069c0.552-0.622,1.24-1.144,2.117-1.312c1.343-0.251,2.599,0.806,2.712,2.238
	c0.081,0.979-0.038,1.938-0.389,2.843c-0.761,1.969-1.521,3.936-2.376,5.865c-1.325,2.972-2.765,5.896-4.083,8.874
	c-0.479,1.078-0.754,2.238-1.101,3.364c-0.072,0.214-0.054,0.448-0.083,0.809c0.448-0.254,0.822-0.427,1.146-0.661
	c1.533-1.094,2.814-2.44,4.098-3.792c2.069-2.172,4.146-4.343,6.27-6.472c0.718-0.718,1.556-1.342,2.551-1.726
	c1.806-0.693,3.48,0.164,3.896,2.001c0.18,0.802,0.085,1.596-0.101,2.391c-0.485,2.091-1.438,4.02-2.257,5.989
	c-0.737,1.758-1.437,3.527-2.121,5.307c-0.177,0.467-0.217,0.982-0.32,1.472c-0.054,0.251,0.089,0.427,0.32,0.415
	c0.422-0.017,0.873-0.021,1.255-0.173c1.257-0.485,2.251-1.348,3.229-2.22c0.712-0.639,1.391-1.309,2.085-1.964
	c0.583-0.554,1.041-0.557,1.615-0.012c0.452,0.421,0.903,0.846,1.337,1.282c0.429,0.427,0.469,0.927,0.036,1.337
	c-1.813,1.711-3.593,3.471-5.874,4.634c-1.53,0.786-3.136,1.212-4.871,0.656c-2.31-0.742-3.311-2.477-2.839-4.844
	c0.386-1.923,1.188-3.701,1.984-5.487c0.915-2.044,1.799-4.102,2.691-6.155c0.106-0.249,0.16-0.518,0.237-0.775
	C20.842,11.954,20.789,11.917,20.737,11.884z"/>
</svg>
