<svg version="1.1" xmlns="http://www.w3.org/2000/svg" xmlns:xlink="http://www.w3.org/1999/xlink" x="0px" y="0px" width="42px" height="42px" viewBox="0 0 42 42" enable-background="new 0 0 42 42" xml:space="preserve"><rect fill="none" width="42" height="42"/><path fill="#000000" d="M22.52,23.708v-0.227c0-3.624,2.707-6.645,6.139-6.645h0.203c3.43,0,6.139,3.02,6.139,6.645v0.479c0,0.287-0.232,0.521-0.52,0.521h-1.352h-6.854l0.021,0.246c0.244,1.65,1.281,2.383,2.459,2.383c0.822,0,1.654-0.659,2.139-1.872c0.08-0.197,0.27-0.328,0.48-0.328h2.877c0.342,0,0.592,0.325,0.5,0.655c-0.732,2.736-3.072,4.783-5.891,4.783h-0.207C25.225,30.353,22.52,27.335,22.52,23.708z M33.525,25.95h-1.816l-0.086,0.189c-0.611,1.161-1.625,2.01-2.865,2.01c-2.006,0-3.551-1.526-3.551-4.188v-0.053c0-0.428,0.398-0.592,0.721-0.479l7.199,0.01h0.828l-0.023-0.539c-0.264-2.854-2.469-5.023-5.068-5.023h-0.205c-2.775,0-5.1,2.469-5.1,5.602v0.228c0,3.138,2.324,5.604,5.1,5.604h0.203c1.998,0,3.758-1.276,4.592-3.168L33.525,25.95z M25.395,22.376c0.439-1.813,1.689-3.335,3.361-3.335c1.67,0,2.918,1.526,3.357,3.335c0.08,0.326-0.17,0.641-0.506,0.641h-5.709C25.563,23.017,25.313,22.702,25.395,22.376z M28.758,20.082c-0.729,0-1.469,0.525-1.959,1.462l-0.188,0.432H30.9l-0.189-0.432C30.217,20.605,29.479,20.082,28.758,20.082z"/><path fill="#000000" d="M9,29.837V12.163c0-0.286,0.232-0.52,0.52-0.52h4.336c2.099,0.016,3.463,0.056,4.05,0.126c0.956,0.113,1.785,0.422,2.471,0.934c0.676,0.517,1.2,1.193,1.579,2.023c0.377,0.821,0.57,1.676,0.57,2.558c0,1.118-0.296,2.114-0.9,2.967c-0.169,0.236-0.357,0.454-0.565,0.652l-0.112,0.098l0.112,0.098c0.207,0.196,0.396,0.414,0.565,0.649c0.604,0.851,0.9,1.847,0.9,2.962c0,0.885-0.193,1.741-0.57,2.563c-0.379,0.83-0.904,1.504-1.579,2.021c-0.686,0.518-1.516,0.823-2.471,0.936c-0.587,0.07-1.953,0.11-4.05,0.127H9.52C9.232,30.354,9,30.121,9,29.837z M17.783,29.194c0.806-0.092,1.452-0.344,1.964-0.729c0.525-0.399,0.947-0.935,1.26-1.622c0.319-0.695,0.476-1.402,0.476-2.133c0-0.921-0.243-1.699-0.707-2.357c-0.26-0.364-0.578-0.67-0.964-0.917c-0.316-0.206-0.314-0.671,0.005-0.875c0.379-0.241,0.696-0.548,0.958-0.911c0.464-0.659,0.708-1.438,0.708-2.362c0-0.726-0.156-1.433-0.476-2.127c-0.313-0.687-0.735-1.224-1.26-1.623c-0.514-0.387-1.159-0.639-1.965-0.733c-0.517-0.063-1.816-0.103-3.931-0.119h-3.811v16.631h3.812C15.969,29.298,17.267,29.26,17.783,29.194z M12.469,27.53v-5.379c0-0.283,0.232-0.519,0.521-0.519h3.468c1.648,0,2.665,1.601,2.665,3.151s-0.991,3.265-2.665,3.265h-3.468C12.701,28.05,12.469,27.815,12.469,27.53z M18.08,24.784c0-1.229-0.77-2.112-1.624-2.112h-2.947v4.338h2.947C17.305,27.01,18.08,26.007,18.08,24.784z M12.469,19.846V14.47c0-0.286,0.232-0.521,0.521-0.521h3.468c1.657,0,2.665,1.698,2.665,3.264c0,1.555-1.014,3.152-2.665,3.152h-3.468C12.701,20.365,12.469,20.133,12.469,19.846z M18.08,17.214c0-1.237-0.792-2.225-1.624-2.225h-2.947v4.337h2.947C17.311,19.326,18.08,18.444,18.08,17.214z"/><path fill="#000000" d="M25.639,14.495v0.517c0,0.43,0.348,0.779,0.775,0.779h4.684c0.432,0,0.779-0.35,0.779-0.779v-0.517c0-0.429-0.35-0.779-0.779-0.779h-4.684C25.986,13.716,25.639,14.065,25.639,14.495z"/></svg>