<svg version="1.1" xmlns="http://www.w3.org/2000/svg" xmlns:xlink="http://www.w3.org/1999/xlink" x="0px" y="0px" width="42px" height="42px" viewBox="0 0 42 42" enable-background="new 0 0 42 42" xml:space="preserve"><rect fill="none" width="42" height="42"/><path fill="#FFFFFF" d="M9,29.93V12.071c0-1.963,1.667-3.527,3.658-3.527h13.615c0.51,0.004,0.978-0.018,1.32,0.15l0.051,0.025l0.124,0.079c0.32,0.236,0.551,0.716,0.83,1.18l5.966,9.781l0.188,0.271c0.422,0.755,0.265,1.483-0.157,2.148l-6.433,10.279c-0.597,1.031-1.087,0.998-1.904,0.998H12.658C10.667,33.458,9,31.895,9,29.93z M26.889,32.29c0.016-0.007,0.084-0.038,0.305-0.411l6.44-10.299c0.303-0.475,0.317-0.772,0.008-1.177l-0.043-0.053l-5.974-9.785c-0.312-0.524-0.411-0.712-0.472-0.795l-0.059-0.058l-0.051-0.016c-0.084-0.013-0.27-0.016-0.777-0.022H12.658c-1.412,0-2.526,1.104-2.526,2.396v17.854c0,1.295,1.113,2.397,2.526,2.397h13.596C26.729,32.326,26.825,32.315,26.889,32.29z"/><path fill="#FFFFFF" d="M15.769,28.924l3.034-6.063c-1.786-0.798-3.034-2.595-3.034-4.688c0-2.637,1.983-4.808,4.526-5.093l3.396,0.001v1.13h-0.003v7.921h0.003v1.133h-0.003v5.662h-1.13v-5.662l-2.263,0.002c-0.175-0.021-0.352-0.051-0.523-0.089l-2.875,5.746H15.769z M22.563,22.132V14.21h-2.265c-1.918,0.277-3.396,1.955-3.396,3.96c0,2.009,1.475,3.688,3.396,3.96L22.563,22.132L22.563,22.132z"/></svg>