<svg version="1.1" xmlns="http://www.w3.org/2000/svg" xmlns:xlink="http://www.w3.org/1999/xlink" x="0px" y="0px" width="42px" height="42px" viewBox="0 0 42 42" enable-background="new 0 0 42 42" xml:space="preserve"><rect fill="none" width="42" height="42"/><path fill="#FFFFFF" d="M19.417,32.582c-2.577-1.129-3.364-5.783-3.847-7.81c-0.362-1.528-0.698-2.943-1.136-4.246c-0.375-1.124-0.482-1.974-0.971-2.837c-0.254-0.444-0.443-0.444-0.862-0.343c-0.395,0.108-1.276,0.501-2.082,0.381c-0.857-0.127-1.06-0.946-1.347-1.23C9.063,16.383,9,16.237,9,16.079v-0.146c0-0.17,0.076-0.335,0.208-0.451c1.766-1.479,3.548-3.485,5.746-4.843c0.722-0.444,2.068-1.009,3.255-0.641s1.974,1.878,2.285,2.906c0.381,1.231,0.584,2.73,0.762,3.854c0.325,2.038,0.236,5.017,1.516,6.456c0.538,0.602,0.868,0.482,1.239,0.127c0.5-0.47,0.919-1.302,1.254-1.97c0.566-1.098,1.019-2.15,1.092-3.064c0.104-1.2-0.145-1.625-0.403-1.809c-0.33-0.235-0.947-0.311-2.044-0.222c-0.419,0.033-0.736-0.362-0.617-0.762c1.303-4.234,5.111-6.018,6.348-6.214c1.308-0.216,3.555-0.235,4.672,1.25c0.803,1.047,0.765,2.387,0.574,3.517c-0.308,1.665-2.225,7.255-5.703,12.182c-1.521,2.082-3.318,4.177-5.659,5.624C22.69,32.393,20.807,33.204,19.417,32.582z M22.898,30.869c2.153-1.333,3.847-3.275,5.319-5.31c3.174-4.487,5.002-9.544,5.434-11.374l0.063-0.324c0.19-1.054,0.14-1.961-0.343-2.604c-0.673-0.887-2.234-1.008-3.542-0.792c-0.774,0.121-3.466,1.314-4.888,4.101l-0.198,0.502l0.604,0.024c0.482,0.057,0.922,0.184,1.282,0.444c0.8,0.565,1.016,1.562,0.901,2.862c-0.097,1.174-0.655,2.412-1.219,3.511c-0.307,0.602-0.82,1.643-1.493,2.285c-0.8,0.762-1.892,0.97-2.935-0.203c-1.582-1.771-1.442-4.818-1.798-7.052c-0.189-1.181-0.375-2.56-0.724-3.688c-0.305-1.008-0.939-1.955-1.504-2.125c-0.678-0.209-1.638,0.121-2.285,0.521c-1.593,0.978-2.844,2.228-4.202,3.485l-1.053,0.939l0.109,0.171c0.102,0.178,0.183,0.305,0.267,0.316c0.482,0.076,0.857-0.151,1.606-0.349c0.749-0.197,1.581-0.17,2.19,0.901c0.559,0.99,0.768,2.17,1.06,3.039c0.457,1.358,0.806,2.839,1.168,4.354c0.724,3.034,1.384,6.208,3.18,6.995C20.686,31.856,22.076,31.377,22.898,30.869z"/></svg>