<svg version="1.1" xmlns="http://www.w3.org/2000/svg" xmlns:xlink="http://www.w3.org/1999/xlink" x="0px" y="0px" width="42px" height="42px" viewBox="0 0 42 42" enable-background="new 0 0 42 42" xml:space="preserve"><rect fill="none" width="42" height="42"/><path fill="#000000" d="M16.046,33.413l-0.165-0.175c-0.742-0.767-0.742-2.011,0.001-2.777c0.918-0.952,2.239-2.323,3.609-3.745l0.264-0.271l-0.544-0.107c-0.975-0.21-2.054-0.563-2.941-1.155c-0.75-0.5-1.404-0.965-1.758-1.505c-0.411-0.625-0.4-1.287-0.039-2.043c0.483-1.003,1.825-1.721,3.376-0.457c1.559,1.276,4.137,1.289,4.152,1.289c0.015,0,2.596-0.013,4.154-1.289c1.552-1.267,2.892-0.552,3.377,0.457c0.358,0.756,0.365,1.418-0.043,2.04c-0.354,0.543-1.006,1.008-1.757,1.506c-0.884,0.589-1.955,0.939-2.923,1.15l-0.54,0.106l0.269,0.276l3.613,3.745c0.746,0.77,0.746,2.014,0,2.782l-0.168,0.173c-0.754,0.777-1.98,0.777-2.731,0c-0.69-0.713-1.604-1.663-2.601-2.691l-0.636-0.662l-3.235,3.354c-0.374,0.384-0.865,0.584-1.37,0.587C16.917,33.997,16.421,33.799,16.046,33.413z M18.036,32.689l3.607-3.742c0.206-0.213,0.546-0.213,0.749,0c1.37,1.419,2.689,2.79,3.609,3.742c0.343,0.355,0.896,0.355,1.238,0l0.163-0.173c0.355-0.368,0.355-0.97,0-1.335l-3.608-3.745l-0.975-1.013c-0.3-0.31-0.111-0.83,0.32-0.876c1.147-0.125,2.825-0.442,4.021-1.236c0.787-0.523,1.241-0.874,1.462-1.209c0.163-0.249,0.211-0.516-0.03-1.021c-0.208-0.435-0.782-0.916-1.777-0.101c-1.881,1.532-4.827,1.522-4.813,1.522c0.016,0-2.93,0.013-4.813-1.522c-0.991-0.81-1.571-0.331-1.777,0.101c-0.244,0.508-0.194,0.771-0.029,1.021c0.215,0.335,0.675,0.686,1.461,1.209c1.205,0.802,2.901,1.117,4.047,1.238c0.429,0.046,0.619,0.564,0.323,0.874l-0.971,1.013c-1.374,1.419-2.692,2.79-3.61,3.742c-0.354,0.368-0.354,0.97,0.001,1.341l0.163,0.17c0.173,0.178,0.396,0.267,0.618,0.267C17.639,32.959,17.861,32.87,18.036,32.689z"/><path fill="#000000" d="M15.25,14.761C15.25,11.026,18.274,8,22.006,8c3.73,0,6.755,3.026,6.755,6.761c0,3.732-3.024,6.756-6.755,6.756C18.274,21.52,15.25,18.493,15.25,14.761z M27.722,14.761c0-3.161-2.562-5.721-5.716-5.721c-3.155,0-5.716,2.561-5.716,5.721c0,3.157,2.559,5.717,5.716,5.717C25.16,20.478,27.722,17.918,27.722,14.761z M18.415,14.761c0-1.984,1.608-3.594,3.588-3.594c1.984,0,3.592,1.61,3.592,3.594c0,1.983-1.61,3.586-3.592,3.586C20.025,18.349,18.415,16.745,18.415,14.761z M24.556,14.761c0-1.412-1.145-2.555-2.553-2.555c-1.404,0-2.548,1.144-2.548,2.555c0,1.408,1.143,2.545,2.548,2.545C23.413,17.309,24.556,16.169,24.556,14.761z"/></svg>