<svg version="1.1" xmlns="http://www.w3.org/2000/svg" xmlns:xlink="http://www.w3.org/1999/xlink" x="0px" y="0px" width="42px" height="42px" viewBox="0 0 42 42" enable-background="new 0 0 42 42" xml:space="preserve"><rect fill="none" width="42" height="42"/><path fill="#000000" d="M11.951,33.406l0.043-24.814c0-0.156,0.061-0.307,0.171-0.417C12.277,8.064,12.428,8,12.584,8H23.33c3.728,0,7.141,1.979,7.133,6.083c0,2.492-0.684,3.881-1.996,5.021l-0.6,0.466l0.435,0.164c0.17,0.07,0.328,0.137,0.455,0.203c0.749,0.385,1.195,0.782,1.663,1.286c1.391,1.475,1.63,2.857,1.63,4.987c0,5.274-4.862,7.79-9.269,7.79h-10.24C12.212,33.998,11.948,33.731,11.951,33.406z M30.866,26.207c0-2-0.224-3.023-1.308-4.183c-0.406-0.438-0.751-0.737-1.341-1.042c-0.327-0.169-1.506-0.548-1.874-0.772l-0.051-0.037c-0.345-0.242-0.332-0.763,0.025-0.987c2.042-1.266,2.964-2.284,2.964-5.11c0.005-3.228-2.585-4.898-5.949-4.898H13.171l-0.04,23.633h9.65C26.896,32.812,30.866,30.514,30.866,26.207z M18.426,29.425c-0.329,0-0.593-0.267-0.592-0.592V22.66c0-0.327,0.266-0.592,0.592-0.592c1.401,0,3.27-0.174,4.698,0.145c1.577,0.358,2.773,1.344,2.732,3.543c-0.035,2.122-1.227,3.095-2.76,3.461C21.685,29.562,19.86,29.425,18.426,29.425z M22.819,28.071c1.105-0.27,1.834-0.835,1.859-2.336c0.027-1.554-0.693-2.115-1.811-2.366c-0.633-0.143-1.344-0.171-2.098-0.165l-1.757,0.032v5.013l-0.59-0.01C20.021,28.241,21.588,28.368,22.819,28.071z M18.426,18.92c-0.328,0-0.592-0.263-0.592-0.589v-3.222l-0.001-1.975c-0.003-0.327,0.261-0.591,0.59-0.591c1.124,0,2.604-0.125,3.731,0.14c1.274,0.298,2.234,1.122,2.234,2.883c0,1.815-0.802,2.75-2.071,3.131C21.21,19.023,19.723,18.92,18.426,18.92z M21.979,17.563c0.724-0.216,1.227-0.66,1.227-1.997c0-1.142-0.508-1.542-1.32-1.732c-0.716-0.167-1.571-0.144-2.503-0.123l-0.368,0.005l0.003,1.393l-0.003,2.638l-0.589-0.008C19.892,17.738,21.091,17.827,21.979,17.563z"/></svg>