<svg version="1.1" xmlns="http://www.w3.org/2000/svg" xmlns:xlink="http://www.w3.org/1999/xlink" x="0px" y="0px" width="42px" height="42px" viewBox="0 0 42 42" enable-background="new 0 0 42 42" xml:space="preserve"><rect fill="none" width="42" height="42"/><path fill="#FFFFFF" d="M9,29.445v-16.89C9,10.041,11.041,8,13.553,8h16.896C32.96,8,35,10.042,35,12.554v16.891C35,31.958,32.96,34,30.449,34H13.553C11.04,33.998,9,31.958,9,29.445z M33.818,29.445v-16.89c0-1.86-1.512-3.374-3.369-3.374H13.554c-0.074,0-0.147,0.002-0.221,0.009h0.393v7.087h-1.184l-0.001-6.94c-1.368,0.431-2.36,1.712-2.36,3.218v3.724h23.622v1.18H10.181v11.988c0,1.857,1.512,3.371,3.373,3.371h16.895C32.307,32.816,33.818,31.305,33.818,29.445z M16.083,24.548c0-3.261,2.649-5.907,5.91-5.907c3.261,0,5.909,2.647,5.909,5.907c0,3.263-2.648,5.908-5.909,5.908C18.731,30.458,16.083,27.811,16.083,24.548z M26.723,24.548c0-2.606-2.117-4.726-4.729-4.726c-2.611,0-4.729,2.12-4.729,4.726s2.118,4.729,4.729,4.729C24.604,29.275,26.723,27.157,26.723,24.548z M18.46,24.542c0-1.949,1.582-3.537,3.533-3.537c1.95,0,3.534,1.587,3.534,3.537c0,1.952-1.582,3.538-3.534,3.538C20.04,28.08,18.46,26.494,18.46,24.542z M24.348,24.542c0-1.298-1.06-2.354-2.354-2.354c-1.297,0-2.351,1.058-2.351,2.354c0,1.301,1.054,2.354,2.351,2.354C23.289,26.896,24.348,25.844,24.348,24.542z M14.906,16.276V9.19h1.184v7.086H14.906z M17.267,16.276V9.19h1.184v7.086H17.267z M26.727,12.736c0-1.3,1.049-2.37,2.353-2.37c1.301,0,2.353,1.069,2.353,2.37c0,1.304-1.052,2.371-2.353,2.371C27.773,15.106,26.727,14.04,26.727,12.736z M30.25,12.736c0-0.659-0.533-1.189-1.172-1.189c-0.641,0-1.174,0.53-1.174,1.189c0,0.662,0.531,1.189,1.174,1.189C29.717,13.925,30.25,13.398,30.25,12.736z"/></svg>