<svg version="1.1" xmlns="http://www.w3.org/2000/svg" xmlns:xlink="http://www.w3.org/1999/xlink" x="0px" y="0px" width="42px" height="42px" viewBox="0 0 42 42" enable-background="new 0 0 42 42" xml:space="preserve"><rect fill="none" width="42" height="42"/><path fill="#000000" d="M25.068,33.822c-0.076-0.051-0.146-0.107-0.205-0.172c-0.24-0.25-0.318-0.569-0.318-0.832c0-0.418,0.014-1.797,0.014-3.504c0-1.078-0.359-1.691-0.662-1.959c-0.352-0.312-0.17-0.892,0.295-0.944c2.617-0.306,5.213-1.224,5.213-5.771c0-1.257-0.438-2.271-1.146-3.063c-0.136-0.155-0.176-0.374-0.099-0.563c0.086-0.213,0.396-1.123,0.062-2.413l-0.084-0.25c-0.408,0.034-1.283,0.244-2.714,1.235c-0.133,0.094-0.301,0.122-0.458,0.077c-0.938-0.266-1.955-0.397-2.972-0.403c-1.008,0.005-2.021,0.136-2.963,0.403c-0.155,0.044-0.324,0.018-0.456-0.074c-1.434-0.994-2.311-1.203-2.715-1.238l-0.083,0.25c-0.332,1.29-0.022,2.203,0.061,2.417c0.075,0.189,0.035,0.407-0.1,0.558c-0.709,0.793-1.143,1.807-1.143,3.064c0,4.517,2.568,5.471,5.195,5.785c0.463,0.054,0.644,0.634,0.294,0.941c-0.239,0.212-0.515,0.645-0.613,1.368c-0.023,0.179-0.14,0.339-0.306,0.414c-0.754,0.355-2.982,1.082-4.333-1.283c-0.007-0.012-0.142-0.254-0.393-0.501l0.255,0.362c0.175,0.272,0.352,0.609,0.518,1.049c-0.033-0.111,0.526,2.015,3.563,1.338c0.338-0.075,0.66,0.181,0.66,0.525c0.003,1.043,0.02,1.896,0.02,2.176c0,0.271-0.086,0.601-0.367,0.875l-0.122,0.101c-0.286,0.196-0.637,0.245-1.006,0.175l-0.075-0.021C12.718,32.186,9,27.188,9,21.308C9,13.974,14.806,8,21.994,8C29.182,8,35,13.972,35,21.308c0,5.879-3.715,10.87-8.881,12.641l-0.069,0.018C25.689,34.037,25.35,33.999,25.068,33.822z M25.811,32.907l0.828-0.322c4.268-1.858,7.276-6.198,7.276-11.278c0-6.763-5.354-12.226-11.922-12.226c-6.563,0-11.908,5.461-11.908,12.226c0,5.08,3.009,9.425,7.279,11.278l0.825,0.319h0.151l0.028-0.086c0-0.235-0.008-0.719-0.014-1.412l-0.02-0.115c-2.875,0.35-3.874-1.491-4.104-2.046l-0.044-0.115c-0.511-1.333-1.215-1.63-1.108-1.577l-0.075-0.045c-0.245-0.172-0.444-0.345-0.566-0.527c-0.369-0.559-0.02-0.987,0.361-1.137c0.279-0.105,0.619-0.096,0.631-0.096c1.583,0.109,2.361,1.616,2.352,1.598c0.659,1.152,1.597,1.219,2.307,1.049l0.378-0.137l0.067-0.314c0.062-0.201,0.133-0.389,0.229-0.577l-0.207-0.041c-2.574-0.541-5.046-2.076-5.046-6.681c0-1.147,0.301-2.147,0.824-2.993l0.396-0.529l-0.056-0.195c-0.162-0.667-0.281-1.844,0.273-3.288c0.058-0.153,0.181-0.271,0.338-0.321c0.182-0.06,1.141-0.271,3.034,0.827l0.669,0.426l1.354-0.279c0.549-0.073,1.1-0.111,1.651-0.116c0.555,0.005,1.111,0.043,1.658,0.116l1.354,0.279l0.669-0.425c1.893-1.098,2.85-0.887,3.034-0.828c0.155,0.049,0.28,0.168,0.338,0.321c0.56,1.443,0.437,2.618,0.272,3.289l-0.055,0.193l0.396,0.529c0.522,0.844,0.827,1.844,0.827,2.992c0,4.637-2.495,6.144-5.068,6.672l-0.221,0.035l0.152,0.284c0.186,0.466,0.293,1.026,0.293,1.685c0,1.707-0.014,3.082-0.014,3.502l0.021,0.092L25.811,32.907z"/></svg>