<svg version="1.1" xmlns="http://www.w3.org/2000/svg" xmlns:xlink="http://www.w3.org/1999/xlink" x="0px" y="0px" width="42px" height="42px" viewBox="0 0 42 42" enable-background="new 0 0 42 42" xml:space="preserve"><rect fill="none" width="42" height="42"/><path fill="#000000" d="M26.659,9.72c-3.229,0-5.865,2.752-5.865,6.145v0.189c-3.311-0.469-6.371-2.266-8.51-5.026c-0.164-0.225-0.422-0.351-0.703-0.351l-0.072,0.01c-0.299,0.02-0.57,0.189-0.714,0.461c-0.515,0.928-0.785,1.993-0.785,3.066c0,1.002,0.234,1.967,0.658,2.824c-0.081,0.019-0.162,0.055-0.243,0.099c-0.27,0.153-0.452,0.442-0.452,0.768v0.082c0,1.805,0.759,3.462,1.986,4.611l-0.019,0.01c-0.207,0.235-0.278,0.566-0.188,0.875c0.523,1.723,1.732,3.086,3.258,3.772c-1.209,0.623-2.544,0.938-3.925,0.938c-0.359,0-0.72-0.02-1.082-0.063l-0.108-0.009c-0.371,0-0.705,0.232-0.84,0.586c-0.144,0.398,0,0.832,0.343,1.064c2.426,1.644,5.23,2.508,8.11,2.508c5.666,0,9.201-2.814,11.182-5.176c2.445-2.927,3.85-6.805,3.85-10.631v-0.251c0.906-0.749,1.679-1.643,2.318-2.651c0.219-0.333,0.18-0.777-0.078-1.082c-0.174-0.201-0.428-0.309-0.678-0.309c-0.057,0-0.106,0.011-0.174,0.019c0.145-0.296,0.27-0.603,0.362-0.92c0.106-0.361-0.009-0.75-0.304-0.984c-0.166-0.125-0.354-0.189-0.553-0.189c-0.164,0-0.326,0.045-0.472,0.144c-0.748,0.469-1.551,0.813-2.397,1.038C29.499,10.28,28.102,9.72,26.659,9.72z M26.659,10.621c1.424,0,2.713,0.642,3.625,1.652c1.129-0.234,2.19-0.668,3.149-1.273c-0.369,1.227-1.154,2.257-2.185,2.906c1.01-0.125,1.966-0.412,2.851-0.83c-0.658,1.056-1.509,1.977-2.473,2.716c0.01,0.226,0.01,0.451,0.01,0.677c0,6.922-4.988,14.906-14.13,14.906c-2.806,0-5.415-0.868-7.615-2.354c0.387,0.041,0.785,0.069,1.19,0.069c2.319,0,4.466-0.839,6.163-2.237c-2.175-0.045-4.006-1.56-4.637-3.645c0.307,0.064,0.615,0.1,0.939,0.1c0.451,0,0.884-0.063,1.309-0.19c-2.275-0.478-3.988-2.598-3.988-5.132v-0.064c0.667,0.388,1.434,0.623,2.246,0.65c-1.325-0.939-2.21-2.534-2.21-4.358c0-0.956,0.253-1.859,0.677-2.634c2.456,3.176,6.11,5.261,10.242,5.477c-0.09-0.387-0.135-0.785-0.135-1.191C21.687,12.967,23.913,10.621,26.659,10.621z"/></svg>