<?xml version="1.0" encoding="utf-8"?>
<!-- Generator: Adobe Illustrator 16.0.0, SVG Export Plug-In . SVG Version: 6.00 Build 0)  -->
<!DOCTYPE svg PUBLIC "-//W3C//DTD SVG 1.1//EN" "http://www.w3.org/Graphics/SVG/1.1/DTD/svg11.dtd">
<svg version="1.1" id="Layer_1" xmlns="http://www.w3.org/2000/svg" xmlns:xlink="http://www.w3.org/1999/xlink" x="0px" y="0px"
	 width="318px" height="318px" viewBox="-401.361 -161.332 318 318" enable-background="new -401.361 -161.332 318 318"
	 xml:space="preserve">
<g id="Layer_1_1_">
</g>
<g>
	<rect x="-401.361" y="-161.332" fill="#DB4040" width="318" height="318"/>
	<path fill="#FFFFFF" d="M-201.395-5.653c-2.795,2.606-5.706,5.12-8.367,7.873c-12.245,12.61-24.267,25.423-36.671,37.86
		c-5.993,6.016-12.466,11.661-20.367,15.306c-4.264,1.98-8.713,3.057-13.372,1.886c-7.511-1.912-11.468-8.097-11.038-16.85
		c0.421-8.287,3.239-15.973,6.517-23.451c4.769-10.92,9.969-21.678,14.986-32.503c6.064-13.138,12.289-26.217,18.145-39.45
		c1.925-4.33,2.901-9.063,4.259-13.646c0.248-0.914,0.19-1.932,0.248-2.908c-0.204-0.131-0.403-0.286-0.607-0.432
		c-1.469,1.468-3.168,2.79-4.392,4.447c-6.193,8.36-12.227,16.818-18.362,25.21c-6.553,8.935-12.941,18.016-19.871,26.676
		c-2.835,3.534-6.615,6.572-10.545,8.948c-7.59,4.583-16.286,0.59-18.948-8.081c-1.983-6.448-0.16-12.422,2.609-18.041
		c4.445-8.964,9.462-17.648,14.054-26.539c2.387-4.585,4.392-9.378,4.108-14.715c-0.218-3.485-1.788-6.368-4.543-8.518
		c-2.196-1.677-4.614-1.045-6.868-0.014c-5.018,2.298-8.7,6.109-11.947,10.403c-1.704,2.267-4.006,2.99-6.002,1.834
		c-2.489-1.422-3.389-4.019-1.73-6.542c4.378-6.681,9.982-12.16,17.67-15.086c8.54-3.245,15.585,0.277,20.398,7.808
		c3.669,5.712,4.361,11.93,2.365,18.167c-1.89,5.907-4.41,11.644-7.054,17.247c-3.314,7.036-7.231,13.799-10.514,20.82
		c-1.189,2.507-1.513,5.455-1.837,8.234c-0.124,1.023,0.648,2.374,1.464,3.121c0.329,0.311,2.077-0.375,2.729-1.036
		c3.549-3.665,7.355-7.158,10.257-11.275c7.91-11.188,15.306-22.723,23.136-33.976c3.962-5.678,8.225-11.171,12.755-16.395
		c2.875-3.316,6.468-6.109,11.038-7.005c6.996-1.335,13.536,4.308,14.13,11.962c0.417,5.229-0.2,10.348-2.027,15.186
		c-3.966,10.534-7.923,21.042-12.382,31.345c-6.903,15.878-14.41,31.509-21.282,47.414c-2.493,5.761-3.931,11.956-5.741,17.977
		c-0.373,1.14-0.279,2.385-0.435,4.321c2.338-1.36,4.286-2.285,5.976-3.536c7.985-5.852,14.667-13.036,21.356-20.252
		c10.785-11.606,21.601-23.209,32.661-34.575c3.745-3.844,8.11-7.178,13.305-9.226c9.405-3.704,18.132,0.876,20.301,10.694
		c0.94,4.279,0.448,8.527-0.528,12.775c-2.524,11.166-7.488,21.481-11.761,32c-3.837,9.394-7.493,18.852-11.046,28.36
		c-0.932,2.5-1.131,5.243-1.673,7.867c-0.279,1.343,0.466,2.281,1.673,2.223c2.191-0.095,4.547-0.126,6.539-0.922
		c6.553-2.598,11.734-7.21,16.827-11.865c3.713-3.412,7.24-6.992,10.86-10.499c3.035-2.957,5.421-2.973,8.425-0.064
		c2.347,2.254,4.703,4.525,6.96,6.856c2.24,2.28,2.449,4.946,0.187,7.141c-9.441,9.159-18.726,18.544-30.611,24.769
		c-7.972,4.192-16.339,6.477-25.376,3.502c-12.041-3.966-17.257-13.233-14.791-25.891c2.01-10.279,6.189-19.779,10.333-29.315
		c4.769-10.925,9.378-21.922,14.019-32.894c0.563-1.327,0.843-2.757,1.242-4.139C-200.859-5.275-201.134-5.466-201.395-5.653z"/>
</g>
</svg>
