<?xml version="1.0" encoding="utf-8"?>
<svg version="1.1" xmlns="http://www.w3.org/2000/svg" xmlns:xlink="http://www.w3.org/1999/xlink" x="0px" y="0px"
	 viewBox="0 0 512 512" enable-background="new 0 0 512 512" xml:space="preserve">
<path fill="#D54848" d="M0,0v512h512V0H0z M397.404,356.426c-15.345,15.007-30.437,30.404-49.756,40.623
	c-12.96,6.879-26.564,10.612-41.26,5.734c-19.566-6.507-28.055-21.707-24.05-42.459c3.274-16.854,10.066-32.438,16.806-48.085
	c7.748-17.933,15.235-35.961,22.786-53.954c0.914-2.183,1.364-4.533,2.017-6.784c-0.458-0.311-0.905-0.617-1.339-0.916
	c-4.55,4.268-9.275,8.4-13.604,12.915c-19.907,20.688-39.451,41.698-59.618,62.094c-9.74,9.878-20.266,19.141-33.113,25.105
	c-6.917,3.242-14.167,5.018-21.728,3.095c-12.208-3.145-18.648-13.279-17.942-27.646c0.679-13.597,5.267-26.192,10.602-38.458
	c7.743-17.918,16.2-35.557,24.353-53.32c9.854-21.54,19.977-42.999,29.504-64.688c3.121-7.108,4.711-14.873,6.92-22.39
	c0.408-1.497,0.301-3.166,0.408-4.763c-0.337-0.227-0.657-0.479-0.993-0.71c-2.383,2.411-5.155,4.575-7.145,7.287
	c-10.063,13.717-19.87,27.59-29.849,41.354c-10.646,14.647-21.028,29.554-32.303,43.754c-4.604,5.801-10.742,10.788-17.145,14.676
	c-12.341,7.526-26.474,0.968-30.804-13.255c-3.219-10.577-0.257-20.369,4.237-29.589c7.223-14.695,15.376-28.946,22.84-43.521
	c3.872-7.528,7.144-15.386,6.671-24.143c-0.353-5.722-2.897-10.454-7.376-13.966c-3.572-2.759-7.495-1.727-11.168-0.021
	c-8.152,3.765-14.135,10.019-19.416,17.06c-2.766,3.713-6.511,4.889-9.756,2.999c-4.05-2.325-5.504-6.58-2.815-10.726
	c7.123-10.963,16.228-19.948,28.726-24.754c13.891-5.311,25.335,0.458,33.159,12.81c5.97,9.37,7.086,19.565,3.849,29.795
	c-3.071,9.688-7.169,19.107-11.474,28.285c-5.383,11.54-11.752,22.633-17.086,34.145c-1.938,4.122-2.464,8.949-2.991,13.506
	c-0.2,1.676,1.055,3.9,2.384,5.125c0.536,0.505,3.369-0.611,4.434-1.7c5.767-6.005,11.953-11.747,16.68-18.507
	c12.849-18.349,24.873-37.272,37.607-55.727c6.439-9.309,13.359-18.313,20.729-26.903c4.679-5.435,10.509-10.023,17.944-11.491
	c11.366-2.194,22.006,7.064,22.965,19.615c0.684,8.582-0.326,16.979-3.296,24.926c-6.44,17.274-12.879,34.5-20.12,51.409
	c-11.225,26.03-23.434,51.676-34.601,77.769c-4.047,9.436-6.383,19.605-9.328,29.475c-0.599,1.862-0.456,3.911-0.706,7.087
	c3.793-2.222,6.968-3.751,9.713-5.807c12.982-9.589,23.85-21.379,34.713-33.22c17.527-19.032,35.116-38.069,53.094-56.71
	c6.092-6.301,13.177-11.771,21.617-15.131c15.297-6.08,29.478,1.443,33.002,17.532c1.524,7.034,0.729,13.991-0.858,20.959
	c-4.103,18.313-12.172,35.228-19.119,52.487c-6.238,15.418-12.175,30.934-17.963,46.512c-1.511,4.101-1.84,8.603-2.723,12.905
	c-0.444,2.206,0.768,3.748,2.723,3.642c3.574-0.151,7.396-0.197,10.643-1.511c10.65-4.258,19.063-11.823,27.346-19.47
	c6.03-5.59,11.773-11.46,17.662-17.216c4.931-4.857,8.807-4.881,13.688-0.104c3.825,3.699,7.645,7.419,11.317,11.245
	C400.743,348.45,401.075,352.824,397.404,356.426z"/>
</svg>
