<?xml version="1.0" encoding="utf-8"?>
<svg version="1.1" xmlns="http://www.w3.org/2000/svg" xmlns:xlink="http://www.w3.org/1999/xlink" x="0px" y="0px"
	 viewBox="0 0 512 512" enable-background="new 0 0 512 512" xml:space="preserve">
<rect y="0" fill="none" width="512" height="512"/>
<path fill="#FFFFFF" d="M322.606,250.588c-4.549,4.268-9.274,8.399-13.604,12.915c-19.906,20.688-39.451,41.697-59.618,62.094
	c-9.74,9.878-20.266,19.141-33.113,25.104c-6.917,3.242-14.167,5.019-21.728,3.096c-12.208-3.146-18.648-13.279-17.942-27.646
	c0.679-13.597,5.267-26.191,10.602-38.458c7.743-17.918,16.2-35.556,24.353-53.319c9.854-21.54,19.977-42.999,29.504-64.688
	c3.121-7.107,4.711-14.873,6.92-22.39c0.408-1.497,0.301-3.166,0.408-4.764c-0.337-0.227-0.657-0.479-0.993-0.71
	c-2.383,2.411-5.155,4.575-7.145,7.287c-10.063,13.717-19.87,27.59-29.849,41.354c-10.646,14.646-21.028,29.554-32.303,43.754
	c-4.604,5.801-10.742,10.788-17.145,14.676c-12.341,7.526-26.474,0.968-30.804-13.255c-3.219-10.577-0.257-20.369,4.237-29.589
	c7.223-14.695,15.376-28.946,22.84-43.521c3.872-7.527,7.144-15.386,6.671-24.143c-0.353-5.722-2.897-10.454-7.376-13.966
	c-3.572-2.76-7.495-1.728-11.168-0.021c-8.152,3.766-14.135,10.02-19.416,17.061c-2.766,3.713-6.511,4.889-9.756,2.999
	c-4.05-2.325-5.504-6.58-2.815-10.727c7.123-10.963,16.228-19.948,28.726-24.754c13.891-5.311,25.335,0.458,33.159,12.811
	c5.97,9.369,7.086,19.564,3.849,29.795c-3.071,9.688-7.169,19.106-11.474,28.284c-5.383,11.54-11.752,22.634-17.086,34.146
	c-1.938,4.122-2.464,8.949-2.991,13.506c-0.2,1.676,1.055,3.9,2.384,5.125c0.536,0.505,3.369-0.611,4.434-1.7
	c5.767-6.005,11.953-11.747,16.68-18.507c12.849-18.349,24.873-37.271,37.607-55.727c6.439-9.31,13.359-18.313,20.729-26.903
	c4.679-5.435,10.509-10.023,17.944-11.491c11.366-2.193,22.005,7.064,22.964,19.615c0.685,8.582-0.326,16.979-3.296,24.926
	c-6.439,17.274-12.878,34.5-20.12,51.409c-11.225,26.03-23.434,51.675-34.601,77.768c-4.047,9.437-6.383,19.605-9.328,29.476
	c-0.599,1.861-0.456,3.911-0.706,7.087c3.793-2.223,6.968-3.751,9.713-5.808c12.982-9.589,23.85-21.379,34.713-33.22
	c17.526-19.031,35.116-38.068,53.094-56.709c6.092-6.301,13.176-11.771,21.616-15.131c15.298-6.08,29.478,1.443,33.002,17.532
	c1.524,7.034,0.729,13.991-0.858,20.959c-4.103,18.312-12.172,35.227-19.118,52.486c-6.238,15.418-12.175,30.935-17.964,46.513
	c-1.51,4.101-1.84,8.603-2.723,12.904c-0.443,2.206,0.768,3.748,2.723,3.643c3.574-0.151,7.396-0.197,10.644-1.511
	c10.649-4.259,19.063-11.823,27.347-19.471c6.029-5.59,11.772-11.46,17.661-17.216c4.931-4.856,8.808-4.881,13.688-0.104
	c3.824,3.698,7.645,7.419,11.316,11.244c3.646,3.742,3.979,8.116,0.307,11.719c-15.344,15.007-30.437,30.403-49.756,40.623
	c-12.959,6.879-26.563,10.611-41.26,5.733c-19.566-6.507-28.055-21.707-24.05-42.459c3.274-16.854,10.065-32.438,16.806-48.085
	c7.748-17.933,15.235-35.961,22.787-53.953c0.914-2.183,1.363-4.533,2.017-6.784C323.488,251.192,323.041,250.886,322.606,250.588z"
	/>
</svg>
