<?xml version="1.0" encoding="utf-8"?>
<!-- Generator: Adobe Illustrator 16.0.0, SVG Export Plug-In . SVG Version: 6.00 Build 0)  -->
<!DOCTYPE svg PUBLIC "-//W3C//DTD SVG 1.1//EN" "http://www.w3.org/Graphics/SVG/1.1/DTD/svg11.dtd">
<svg version="1.1" id="Layer_1" xmlns="http://www.w3.org/2000/svg" xmlns:xlink="http://www.w3.org/1999/xlink" x="0px" y="0px"
	 width="80px" height="80px" viewBox="1472.38 684.482 80 80" enable-background="new 1472.38 684.482 80 80" xml:space="preserve">
<rect x="1472.38" y="684.482" fill="none" width="80" height="80"/>
<path fill="#FFFFFF" d="M1540.094,724.484c0,15.305-12.406,27.713-27.713,27.713c-15.31,0-27.715-12.408-27.715-27.713
	c0-15.309,12.406-27.715,27.715-27.715C1527.688,696.77,1540.094,709.176,1540.094,724.484z"/>
<path fill="#D54848" d="M1512.38,684.482c-22.054,0-40,17.943-40,40c0,22.062,17.945,40,40,40c22.06,0,40-17.943,40-40
	C1552.38,702.429,1534.437,684.482,1512.38,684.482z M1522.299,723.715c-0.68,0.62-1.385,1.214-2.027,1.855
	c-2.964,2.978-5.87,5.991-8.869,8.929c-1.46,1.423-3.018,2.754-4.927,3.607c-1.035,0.467-2.113,0.718-3.239,0.447
	c-1.816-0.449-2.771-1.912-2.67-3.974c0.102-1.953,0.784-3.767,1.575-5.536c1.162-2.572,2.412-5.111,3.627-7.667
	c1.464-3.095,2.972-6.181,4.388-9.3c0.463-1.029,0.697-2.143,1.032-3.229c0.062-0.209,0.042-0.449,0.062-0.684
	c-0.052-0.03-0.097-0.072-0.148-0.098c-0.352,0.341-0.766,0.656-1.062,1.044c-1.498,1.976-2.957,3.965-4.441,5.951
	c-1.588,2.104-3.128,4.255-4.808,6.289c-0.686,0.832-1.599,1.558-2.551,2.115c-1.833,1.083-3.942,0.143-4.581-1.905
	c-0.485-1.523-0.032-2.936,0.626-4.258c1.08-2.112,2.293-4.16,3.397-6.259c0.582-1.08,1.065-2.21,0.993-3.482
	c-0.046-0.814-0.431-1.495-1.102-2.003c-0.533-0.391-1.106-0.248-1.658,0c-1.213,0.533-2.104,1.439-2.886,2.452
	c-0.412,0.533-0.973,0.703-1.452,0.433c-0.601-0.332-0.82-0.945-0.419-1.546c1.056-1.573,2.411-2.865,4.269-3.558
	c2.072-0.764,3.778,0.067,4.935,1.842c0.884,1.342,1.051,2.821,0.575,4.283c-0.459,1.397-1.063,2.754-1.708,4.076
	c-0.799,1.652-1.748,3.251-2.543,4.908c-0.277,0.592-0.362,1.289-0.44,1.939c-0.029,0.239,0.158,0.566,0.355,0.744
	c0.079,0.067,0.501-0.095,0.655-0.256c0.858-0.862,1.782-1.686,2.483-2.651c1.911-2.642,3.704-5.359,5.595-8.016
	c0.955-1.34,1.99-2.64,3.077-3.87c0.697-0.778,1.569-1.445,2.675-1.654c1.688-0.315,3.272,1.018,3.418,2.826
	c0.092,1.236-0.046,2.444-0.493,3.591c-0.958,2.478-1.915,4.958-2.996,7.389c-1.672,3.75-3.485,7.438-5.148,11.188
	c-0.604,1.354-0.948,2.826-1.394,4.241c-0.089,0.268-0.069,0.566-0.103,1.021c0.564-0.323,1.04-0.547,1.447-0.834
	c1.934-1.387,3.553-3.069,5.169-4.788c2.613-2.737,5.224-5.466,7.893-8.152c0.922-0.91,1.967-1.694,3.228-2.174
	c2.278-0.873,4.385,0.206,4.907,2.525c0.231,1.004,0.111,2.009-0.126,3.008c-0.609,2.637-1.807,5.066-2.846,7.553
	c-0.924,2.213-1.81,4.442-2.669,6.69c-0.228,0.586-0.27,1.236-0.403,1.858c-0.071,0.321,0.11,0.542,0.403,0.524
	c0.528-0.027,1.101-0.03,1.576-0.217c1.587-0.617,2.834-1.697,4.069-2.805c0.903-0.804,1.757-1.638,2.633-2.469
	c0.738-0.703,1.306-0.703,2.041-0.022c0.565,0.541,1.135,1.068,1.68,1.621c0.544,0.538,0.599,1.169,0.039,1.68
	c-2.278,2.156-4.525,4.383-7.4,5.848c-1.932,0.993-3.954,1.529-6.145,0.82c-2.906-0.932-4.178-3.122-3.575-6.102
	c0.485-2.425,1.499-4.671,2.507-6.914c1.144-2.581,2.264-5.171,3.385-7.766c0.135-0.313,0.2-0.647,0.303-0.977
	C1522.43,723.805,1522.36,723.757,1522.299,723.715z"/>
</svg>
