<?xml version="1.0" encoding="utf-8"?>
<!-- Generator: Adobe Illustrator 16.0.0, SVG Export Plug-In . SVG Version: 6.00 Build 0)  -->
<!DOCTYPE svg PUBLIC "-//W3C//DTD SVG 1.1//EN" "http://www.w3.org/Graphics/SVG/1.1/DTD/svg11.dtd">
<svg version="1.1" id="Layer_1" xmlns="http://www.w3.org/2000/svg" xmlns:xlink="http://www.w3.org/1999/xlink" x="0px" y="0px"
	 width="80px" height="80px" viewBox="-167.361 -42.332 80 80" enable-background="new -167.361 -42.332 80 80"
	 xml:space="preserve">
<rect x="-167.361" y="-42.332" fill="#D55148" width="80" height="80"/>
<path fill="#FFFFFF" d="M-117.184-3.129c-0.695,0.631-1.417,1.24-2.079,1.906c-3.041,3.055-6.026,6.157-9.108,9.168
	c-1.488,1.457-3.096,2.825-5.058,3.706c-1.058,0.479-2.164,0.742-3.32,0.457c-1.866-0.463-2.85-1.962-2.742-4.081
	c0.105-2.007,0.805-3.868,1.62-5.679c1.183-2.645,2.476-5.25,3.72-7.872c1.507-3.182,3.052-6.349,4.506-9.553
	c0.478-1.048,0.72-2.196,1.058-3.306c0.062-0.221,0.047-0.467,0.062-0.703c-0.05-0.035-0.101-0.07-0.15-0.105
	c-0.365,0.355-0.787,0.675-1.091,1.077c-1.537,2.025-3.036,4.073-4.561,6.105c-1.627,2.164-3.214,4.364-4.935,6.461
	c-0.704,0.854-1.642,1.591-2.618,2.166c-1.887,1.11-4.045,0.143-4.706-1.958c-0.492-1.561-0.04-3.007,0.648-4.367
	c1.104-2.171,2.35-4.273,3.49-6.426c0.592-1.11,1.091-2.272,1.019-3.563c-0.054-0.845-0.443-1.544-1.127-2.063
	c-0.545-0.409-1.146-0.255-1.706-0.004c-1.245,0.556-2.16,1.479-2.967,2.518c-0.423,0.548-0.995,0.724-1.491,0.444
	c-0.619-0.343-0.841-0.972-0.43-1.583c1.088-1.619,2.48-2.945,4.389-3.655c2.121-0.785,3.871,0.068,5.066,1.89
	c0.913,1.384,1.083,2.889,0.589,4.399c-0.469,1.431-1.096,2.82-1.752,4.176c-0.822,1.704-1.795,3.341-2.609,5.041
	c-0.296,0.609-0.377,1.322-0.457,1.994c-0.031,0.247,0.161,0.576,0.364,0.755c0.081,0.074,0.515-0.09,0.676-0.251
	c0.88-0.885,1.826-1.733,2.549-2.731c1.963-2.708,3.8-5.503,5.745-8.227c0.984-1.375,2.042-2.705,3.166-3.972
	c0.715-0.803,1.606-1.479,2.741-1.696c1.737-0.324,3.362,1.043,3.508,2.896c0.105,1.267-0.049,2.508-0.502,3.679
	c-0.984,2.551-1.969,5.095-3.074,7.591c-1.714,3.844-3.58,7.631-5.286,11.482c-0.619,1.394-0.976,2.895-1.426,4.352
	c-0.092,0.277-0.069,0.578-0.106,1.046c0.579-0.328,1.064-0.554,1.483-0.855c1.983-1.417,3.644-3.157,5.304-4.905
	c2.677-2.811,5.365-5.619,8.112-8.373c0.93-0.931,2.013-1.739,3.302-2.235c2.337-0.898,4.504,0.212,5.042,2.588
	c0.234,1.038,0.111,2.065-0.13,3.094c-0.628,2.705-1.861,5.201-2.92,7.75c-0.954,2.276-1.86,4.566-2.744,6.867
	c-0.23,0.605-0.282,1.27-0.415,1.906c-0.069,0.325,0.115,0.553,0.415,0.538c0.546-0.022,1.129-0.031,1.625-0.223
	c1.626-0.629,2.913-1.745,4.178-2.874c0.922-0.826,1.798-1.692,2.698-2.541c0.754-0.718,1.345-0.721,2.091-0.015
	c0.584,0.546,1.167,1.095,1.729,1.66c0.556,0.553,0.608,1.199,0.046,1.729c-2.344,2.216-4.65,4.491-7.602,5.999
	c-1.979,1.015-4.058,1.567-6.303,0.848c-2.99-0.96-4.287-3.206-3.673-6.271c0.5-2.488,1.537-4.79,2.566-7.099
	c1.184-2.646,2.328-5.309,3.482-7.967c0.139-0.321,0.208-0.668,0.307-1.001C-117.047-3.04-117.118-3.084-117.184-3.129z"/>
</svg>
