<?xml version="1.0" encoding="utf-8"?>
<!-- Generator: Adobe Illustrator 16.0.0, SVG Export Plug-In . SVG Version: 6.00 Build 0)  -->
<!DOCTYPE svg PUBLIC "-//W3C//DTD SVG 1.1//EN" "http://www.w3.org/Graphics/SVG/1.1/DTD/svg11.dtd">
<svg version="1.1" id="Layer_1" xmlns="http://www.w3.org/2000/svg" xmlns:xlink="http://www.w3.org/1999/xlink" x="0px" y="0px"
	 width="1792px" height="512px" viewBox="0 0 1792 512" enable-background="new 0 0 1792 512" xml:space="preserve">
<title>No Sign-up English</title>
<rect x="512" y="0" fill="none" width="1280" height="512"/>
<rect y="0" fill="#D54848" width="512" height="512"/>
<path fill="#FFFFFF" d="M322.608,250.587c-4.55,4.268-9.276,8.399-13.604,12.915c-19.906,20.686-39.45,41.697-59.618,62.095
	c-9.74,9.874-20.266,19.137-33.113,25.103c-6.916,3.242-14.166,5.021-21.727,3.094c-12.209-3.143-18.649-13.279-17.944-27.646
	c0.68-13.594,5.267-26.191,10.603-38.458c7.742-17.918,16.2-35.555,24.351-53.317c9.854-21.541,19.978-43,29.504-64.688
	c3.121-7.108,4.711-14.873,6.92-22.39c0.408-1.497,0.303-3.166,0.408-4.762c-0.336-0.227-0.656-0.479-0.994-0.71
	c-2.383,2.411-5.153,4.575-7.144,7.287c-10.063,13.717-19.87,27.591-29.848,41.355c-10.646,14.647-21.028,29.553-32.304,43.754
	c-4.605,5.801-10.742,10.788-17.145,14.676c-12.342,7.524-26.475,0.968-30.805-13.257c-3.219-10.577-0.257-20.368,4.238-29.589
	c7.222-14.695,15.374-28.946,22.84-43.52c3.871-7.527,7.144-15.386,6.67-24.143c-0.353-5.722-2.896-10.454-7.376-13.966
	c-3.571-2.759-7.496-1.728-11.168-0.022c-8.151,3.764-14.135,10.02-19.415,17.061c-2.767,3.713-6.511,4.889-9.757,2.999
	c-4.049-2.325-5.505-6.58-2.816-10.727c7.124-10.961,16.229-19.948,28.726-24.754c13.891-5.311,25.335,0.458,33.16,12.811
	c5.968,9.369,7.086,19.565,3.848,29.795c-3.071,9.688-7.169,19.107-11.474,28.285c-5.382,11.541-11.751,22.633-17.086,34.144
	c-1.938,4.123-2.462,8.949-2.991,13.506c-0.198,1.675,1.055,3.899,2.384,5.125c0.536,0.505,3.368-0.611,4.433-1.699
	c5.767-6.005,11.953-11.749,16.681-18.507c12.85-18.349,24.872-37.273,37.607-55.727c6.439-9.31,13.359-18.314,20.728-26.904
	c4.679-5.435,10.51-10.023,17.946-11.491c11.366-2.196,22.005,7.064,22.963,19.614c0.685,8.582-0.325,16.978-3.293,24.925
	c-6.443,17.275-12.881,34.5-20.121,51.41c-11.226,26.031-23.436,51.676-34.603,77.768c-4.047,9.438-6.383,19.606-9.327,29.478
	c-0.6,1.859-0.455,3.908-0.705,7.083c3.792-2.221,6.967-3.748,9.711-5.806c12.983-9.589,23.851-21.378,34.714-33.22
	c17.528-19.032,35.118-38.067,53.093-56.708c6.091-6.3,13.176-11.771,21.619-15.131c15.295-6.081,29.476,1.443,33,17.532
	c1.526,7.034,0.729,13.991-0.856,20.959c-4.105,18.313-12.173,35.229-19.12,52.486c-6.237,15.418-12.174,30.932-17.963,46.51
	c-1.51,4.104-1.838,8.603-2.722,12.907c-0.446,2.205,0.766,3.748,2.722,3.644c3.573-0.151,7.397-0.198,10.643-1.511
	c10.649-4.261,19.063-11.827,27.345-19.472c6.029-5.591,11.773-11.461,17.661-17.217c4.931-4.857,8.809-4.88,13.689-0.102
	c3.825,3.698,7.645,7.418,11.318,11.244c3.646,3.743,3.978,8.117,0.307,11.717c-15.346,15.008-30.439,30.405-49.757,40.626
	c-12.96,6.88-26.563,10.61-41.258,5.732c-19.567-6.507-28.056-21.706-24.05-42.459c3.271-16.855,10.064-32.439,16.802-48.084
	c7.75-17.933,15.236-35.961,22.788-53.955c0.914-2.182,1.364-4.531,2.019-6.783C323.489,251.191,323.042,250.885,322.608,250.587z"
	/>
<text transform="matrix(1 0 0 1 644.6235 219.8152)"><tspan x="0" y="0" fill="#FFFFFF" font-family="'SegoeProDisplay'" font-size="136">английский</tspan><tspan x="0" y="149.6" fill="#FFFFFF" font-family="'SegoeProDisplay'" font-size="136">без регистрации</tspan></text>
</svg>
