<?xml version="1.0" encoding="utf-8"?>
<!-- Generator: Adobe Illustrator 16.0.0, SVG Export Plug-In . SVG Version: 6.00 Build 0)  -->
<!DOCTYPE svg PUBLIC "-//W3C//DTD SVG 1.1//EN" "http://www.w3.org/Graphics/SVG/1.1/DTD/svg11.dtd">
<svg version="1.1" id="Layer_1" xmlns="http://www.w3.org/2000/svg" xmlns:xlink="http://www.w3.org/1999/xlink" x="0px" y="0px"
	 width="512px" height="512px" viewBox="-383.361 -258.332 512 512" enable-background="new -383.361 -258.332 512 512"
	 xml:space="preserve">
<rect x="-383.361" y="-258.332" fill="none" width="512" height="512"/>
<g id="Layer_1_1_">
</g>
<g>
	<path fill="#D54848" d="M-383.361-2.332c0-140.8,115.2-256,256-256l0,0c140.8,0,256,115.2,256,256l0,0c0,140.8-115.2,256-256,256
		l0,0C-268.161,253.668-383.361,138.468-383.361-2.332L-383.361-2.332z"/>
</g>
<path fill="#FFFFFF" d="M-60.755-7.699c-4.551,4.238-9.277,8.344-13.605,12.824c-19.906,20.551-39.449,41.422-59.617,61.68
	c-9.742,9.809-20.266,19.008-33.113,24.934c-6.918,3.22-14.168,4.984-21.727,3.074c-12.207-3.121-18.648-13.19-17.945-27.457
	c0.68-13.504,5.266-26.016,10.602-38.199c7.742-17.801,16.199-35.319,24.352-52.961c9.855-21.397,19.977-42.711,29.504-64.254
	c3.121-7.059,4.711-14.776,6.922-22.241c0.406-1.488,0.301-3.146,0.406-4.728c-0.336-0.227-0.656-0.473-0.992-0.703
	c-2.383,2.392-5.152,4.543-7.145,7.238c-10.063,13.625-19.871,27.402-29.848,41.074c-10.648,14.551-21.031,29.358-32.305,43.461
	c-4.605,5.762-10.742,10.715-17.145,14.578c-12.344,7.473-26.477,0.961-30.805-13.168c-3.219-10.505-0.258-20.234,4.238-29.388
	c7.223-14.598,15.375-28.75,22.84-43.229c3.871-7.474,7.145-15.281,6.672-23.978c-0.352-5.68-2.895-10.383-7.375-13.871
	c-3.57-2.741-7.496-1.711-11.168-0.022c-8.152,3.742-14.137,9.953-19.418,16.945c-2.766,3.688-6.512,4.862-9.758,2.979
	c-4.051-2.309-5.504-6.535-2.816-10.652c7.121-10.891,16.23-19.815,28.727-24.586c13.891-5.28,25.336,0.457,33.16,12.72
	c5.969,9.305,7.09,19.434,3.848,29.594c-3.07,9.625-7.168,18.977-11.473,28.094c-5.383,11.465-11.75,22.48-17.086,33.914
	c-1.938,4.094-2.465,8.887-2.992,13.414c-0.199,1.664,1.055,3.875,2.383,5.09c0.535,0.504,3.371-0.608,4.434-1.688
	c5.766-5.961,11.953-11.664,16.68-18.379c12.848-18.224,24.871-37.023,37.609-55.353c6.438-9.246,13.359-18.19,20.727-26.719
	c4.68-5.398,10.512-9.953,17.945-11.414c11.367-2.18,22.008,7.016,22.965,19.484c0.684,8.522-0.324,16.866-3.293,24.754
	c-6.441,17.159-12.883,34.272-20.121,51.063c-11.223,25.855-23.434,51.328-34.602,77.242c-4.047,9.375-6.383,19.479-9.328,29.277
	c-0.598,1.858-0.453,3.891-0.703,7.043c3.793-2.207,6.969-3.73,9.711-5.763c12.984-9.526,23.852-21.237,34.715-33
	c17.527-18.901,35.117-37.809,53.094-56.328c6.09-6.254,13.176-11.694,21.617-15.03c15.297-6.039,29.48,1.434,33,17.414
	c1.527,6.983,0.727,13.897-0.855,20.819c-4.105,18.191-12.176,34.988-19.121,52.134c-6.238,15.313-12.176,30.723-17.961,46.202
	c-1.512,4.07-1.84,8.543-2.719,12.82c-0.449,2.188,0.762,3.723,2.719,3.617c3.57-0.152,7.395-0.199,10.641-1.504
	c10.648-4.224,19.066-11.742,27.344-19.336c6.031-5.551,11.777-11.383,17.664-17.099c4.93-4.827,8.809-4.848,13.688-0.102
	c3.824,3.672,7.648,7.367,11.32,11.168c3.641,3.719,3.977,8.063,0.305,11.633c-15.344,14.91-30.438,30.207-49.758,40.353
	c-12.961,6.832-26.563,10.543-41.258,5.702c-19.566-6.465-28.055-21.565-24.047-42.176c3.27-16.742,10.063-32.223,16.801-47.762
	c7.75-17.809,15.238-35.719,22.789-53.59c0.914-2.168,1.363-4.504,2.016-6.738C-59.873-7.098-60.322-7.402-60.755-7.699z"/>
</svg>
