<?xml version="1.0" encoding="utf-8"?>
<svg version="1.1" xmlns="http://www.w3.org/2000/svg" xmlns:xlink="http://www.w3.org/1999/xlink" x="0" y="0"
	 width="512" height="512" viewBox="0 0 512 512" enable-background="new 0 0 512 512" xml:space="preserve">
<title>No Sign-up English</title>
<rect y="0" fill="#D54848" width="512" height="512"/>
<path fill="#FFFFFF" d="M322.611,250.615c-4.551,4.238-9.277,8.344-13.605,12.824c-19.905,20.551-39.449,41.422-59.618,61.68
	c-9.742,9.809-20.266,19.008-33.113,24.934c-6.918,3.222-14.168,4.984-21.727,3.074c-12.207-3.121-18.648-13.188-17.945-27.457
	c0.68-13.504,5.266-26.016,10.602-38.199c7.742-17.801,16.199-35.318,24.352-52.961c9.855-21.396,19.977-42.711,29.504-64.254
	c3.121-7.059,4.711-14.774,6.922-22.239c0.406-1.488,0.301-3.146,0.406-4.729c-0.336-0.227-0.656-0.473-0.992-0.703
	c-2.383,2.394-5.152,4.543-7.145,7.238c-10.063,13.625-19.871,27.402-29.848,41.074c-10.648,14.551-21.031,29.356-32.305,43.461
	c-4.605,5.762-10.742,10.715-17.145,14.578c-12.344,7.473-26.477,0.961-30.805-13.168c-3.219-10.507-0.258-20.234,4.238-29.39
	c7.223-14.598,15.375-28.75,22.84-43.229c3.871-7.476,7.145-15.281,6.672-23.979c-0.352-5.68-2.895-10.383-7.375-13.871
	c-3.57-2.739-7.496-1.711-11.168-0.021c-8.152,3.742-14.137,9.953-19.418,16.945c-2.766,3.688-6.512,4.86-9.758,2.979
	c-4.051-2.309-5.504-6.535-2.816-10.652c7.121-10.891,16.23-19.813,28.727-24.586c13.891-5.278,25.336,0.457,33.16,12.722
	c5.969,9.305,7.09,19.434,3.848,29.594c-3.07,9.625-7.168,18.977-11.473,28.094c-5.383,11.465-11.75,22.48-17.086,33.914
	c-1.938,4.094-2.465,8.887-2.992,13.414c-0.199,1.664,1.055,3.875,2.383,5.09c0.535,0.504,3.371-0.606,4.434-1.688
	c5.766-5.961,11.953-11.664,16.68-18.379c12.848-18.226,24.871-37.023,37.609-55.354c6.438-9.246,13.359-18.189,20.727-26.719
	c4.68-5.398,10.512-9.953,17.945-11.414c11.368-2.18,22.009,7.016,22.966,19.483c0.685,8.521-0.324,16.865-3.293,24.755
	c-6.44,17.159-12.884,34.272-20.122,51.063c-11.223,25.855-23.434,51.328-34.602,77.242c-4.047,9.375-6.383,19.479-9.328,29.277
	c-0.598,1.856-0.453,3.891-0.703,7.043c3.793-2.207,6.969-3.73,9.711-5.765c12.984-9.524,23.852-21.235,34.715-33
	c17.528-18.899,35.118-37.808,53.094-56.327c6.091-6.254,13.177-11.692,21.617-15.028c15.297-6.039,29.48,1.434,33,17.414
	c1.527,6.981,0.728,13.896-0.854,20.817c-4.105,18.191-12.176,34.988-19.121,52.135c-6.238,15.313-12.176,30.723-17.961,46.201
	c-1.512,4.07-1.84,8.543-2.719,12.82c-0.449,2.188,0.762,3.723,2.719,3.617c3.569-0.152,7.395-0.199,10.641-1.504
	c10.648-4.226,19.066-11.742,27.344-19.336c6.031-5.553,11.777-11.384,17.664-17.101c4.931-4.827,8.81-4.848,13.688-0.102
	c3.824,3.672,7.647,7.367,11.32,11.168c3.641,3.719,3.977,8.063,0.305,11.633c-15.344,14.91-30.438,30.207-49.758,40.354
	c-12.961,6.832-26.563,10.543-41.258,5.7c-19.566-6.465-28.056-21.563-24.048-42.176c3.271-16.742,10.063-32.223,16.802-47.762
	c7.75-17.811,15.237-35.719,22.789-53.59c0.913-2.168,1.362-4.504,2.016-6.738C323.493,251.216,323.044,250.912,322.611,250.615z"/>
</svg>
