<?xml version="1.0" encoding="utf-8"?>
<!-- Generator: Adobe Illustrator 16.0.0, SVG Export Plug-In . SVG Version: 6.00 Build 0)  -->
<!DOCTYPE svg PUBLIC "-//W3C//DTD SVG 1.1//EN" "http://www.w3.org/Graphics/SVG/1.1/DTD/svg11.dtd">
<svg version="1.1" id="Layer_1" xmlns="http://www.w3.org/2000/svg" xmlns:xlink="http://www.w3.org/1999/xlink" x="0px" y="0px"
	 width="1792px" height="512px" viewBox="0 0 1792 512" enable-background="new 0 0 1792 512" xml:space="preserve">
<title>No Sign-up English</title>
<rect x="512" y="0" fill="none" width="1280" height="512"/>
<rect y="0" fill="#D54848" width="512" height="512"/>
<path fill="#FFFFFF" d="M322.611,250.587c-4.55,4.268-9.276,8.398-13.604,12.915c-19.906,20.686-39.45,41.693-59.618,62.094
	c-9.74,9.874-20.266,19.138-33.113,25.104c-6.916,3.241-14.166,5.022-21.727,3.096c-12.209-3.146-18.649-13.278-17.944-27.646
	c0.68-13.593,5.267-26.19,10.603-38.457c7.742-17.918,16.2-35.556,24.351-53.317c9.854-21.541,19.978-43,29.504-64.688
	c3.121-7.106,4.711-14.874,6.92-22.389c0.408-1.497,0.303-3.166,0.408-4.762c-0.336-0.229-0.656-0.479-0.994-0.71
	c-2.383,2.41-5.153,4.574-7.144,7.286c-10.063,13.719-19.87,27.593-29.848,41.356c-10.646,14.645-21.028,29.552-32.304,43.752
	c-4.605,5.801-10.742,10.79-17.145,14.676c-12.342,7.526-26.475,0.968-30.805-13.256c-3.219-10.577-0.257-20.368,4.238-29.589
	c7.222-14.696,15.374-28.947,22.84-43.522c3.871-7.524,7.144-15.385,6.67-24.143c-0.353-5.722-2.896-10.453-7.376-13.966
	c-3.571-2.759-7.496-1.729-11.168-0.022c-8.151,3.766-14.135,10.021-19.415,17.062c-2.767,3.713-6.511,4.889-9.757,2.999
	c-4.049-2.325-5.505-6.58-2.816-10.728c7.124-10.961,16.229-19.948,28.726-24.754c13.891-5.311,25.335,0.458,33.16,12.812
	c5.968,9.368,7.086,19.563,3.848,29.795c-3.071,9.688-7.169,19.105-11.474,28.285c-5.382,11.542-11.751,22.632-17.086,34.144
	c-1.938,4.124-2.462,8.949-2.991,13.506c-0.198,1.675,1.055,3.9,2.384,5.125c0.536,0.505,3.368-0.611,4.433-1.7
	c5.767-6.003,11.953-11.748,16.681-18.506c12.85-18.348,24.872-37.271,37.607-55.728c6.438-9.311,13.359-18.313,20.728-26.904
	c4.679-5.434,10.51-10.022,17.946-11.491c11.366-2.194,22.005,7.064,22.963,19.614c0.685,8.582-0.325,16.978-3.293,24.925
	c-6.443,17.275-12.881,34.5-20.121,51.409c-11.226,26.031-23.436,51.677-34.603,77.77c-4.047,9.438-6.383,19.605-9.327,29.479
	c-0.6,1.857-0.455,3.905-0.705,7.081c3.792-2.221,6.967-3.749,9.711-5.806c12.983-9.589,23.851-21.378,34.714-33.22
	c17.528-19.032,35.118-38.066,53.093-56.708c6.091-6.301,13.176-11.772,21.619-15.131c15.295-6.081,29.476,1.443,33,17.532
	c1.526,7.034,0.729,13.99-0.856,20.959c-4.105,18.312-12.173,35.229-19.12,52.482c-6.237,15.418-12.174,30.936-17.963,46.514
	c-1.51,4.103-1.838,8.603-2.722,12.906c-0.446,2.203,0.766,3.748,2.722,3.644c3.573-0.151,7.397-0.198,10.643-1.511
	c10.649-4.263,19.063-11.826,27.345-19.472c6.029-5.593,11.773-11.463,17.661-17.219c4.931-4.857,8.809-4.878,13.689-0.1
	c3.825,3.696,7.645,7.418,11.318,11.242c3.646,3.742,3.978,8.116,0.307,11.719c-15.346,15.008-30.439,30.402-49.757,40.626
	c-12.96,6.88-26.563,10.607-41.258,5.73c-19.567-6.508-28.056-21.707-24.05-42.46c3.271-16.855,10.064-32.438,16.802-48.084
	c7.75-17.933,15.236-35.961,22.788-53.954c0.914-2.183,1.364-4.531,2.019-6.782C323.492,251.191,323.045,250.885,322.611,250.587z"
	/>
<g>
	<path fill="#FFFFFF" d="M703.459,219.816h-10.891v-10.625h-0.266c-4.738,8.191-11.71,12.285-20.918,12.285
		c-6.552,0-11.798-1.782-15.738-5.346c-3.941-3.563-5.91-8.356-5.91-14.377c0-12.661,7.481-20.055,22.445-22.18l20.387-2.855
		c0-11.51-4.671-17.266-14.012-17.266c-8.191,0-15.583,2.767-22.18,8.301v-11.156c1.992-1.504,5.401-2.955,10.227-4.35
		c4.825-1.395,9.12-2.092,12.883-2.092c15.981,0,23.973,8.478,23.973,25.434V219.816z M692.568,185.417l-16.469,2.324
		c-5.623,0.797-9.563,2.136-11.82,4.018c-2.258,1.882-3.387,4.925-3.387,9.131c0,3.41,1.217,6.143,3.652,8.201
		c2.434,2.059,5.555,3.088,9.363,3.088c5.401,0,9.861-1.903,13.381-5.711c3.52-3.807,5.279-8.566,5.279-14.277V185.417z"/>
	<path fill="#FFFFFF" d="M779.76,219.816h-10.891v-30.879h-34.664v30.879h-10.891v-68h10.891v27.891h34.664v-27.891h10.891V219.816z
		"/>
	<path fill="#FFFFFF" d="M838.928,161.046h-26.895v58.77h-10.891v-68h37.785V161.046z"/>
	<path fill="#FFFFFF" d="M897.299,219.816h-10.824v-58.77H870.67c-1.727,20.896-4.705,36.07-8.932,45.521
		c-4.228,9.453-10.283,14.178-18.162,14.178c-2.169,0-4.117-0.31-5.844-0.93v-9.363c1.504,0.797,3.188,1.195,5.047,1.195
		c9.739,0,16.004-19.944,18.793-59.832h35.727V219.816z"/>
	<path fill="#FFFFFF" d="M975.658,219.816h-9.762v-52.859l-35.926,52.859h-11.289v-68h9.895v52.328l35.793-52.328h11.289V219.816z"
		/>
	<path fill="#FFFFFF" d="M1054.018,219.816h-9.762v-52.859l-35.926,52.859h-11.289v-68h9.895v52.328l35.793-52.328h11.289V219.816z
		 M1050.033,118.745c-0.266,3.011-1.029,5.755-2.291,8.234c-1.262,2.48-2.934,4.605-5.014,6.375
		c-2.081,1.771-4.527,3.144-7.338,4.117c-2.812,0.974-5.899,1.461-9.264,1.461c-3.409,0-6.508-0.475-9.297-1.428
		c-2.789-0.952-5.202-2.301-7.238-4.051c-2.037-1.749-3.642-3.862-4.814-6.342c-1.174-2.479-1.849-5.268-2.025-8.367h10.691
		c0.133,1.727,0.432,3.343,0.896,4.848c0.465,1.505,1.195,2.822,2.191,3.951s2.279,2.025,3.852,2.689
		c1.571,0.664,3.53,0.996,5.877,0.996c2.036,0,3.818-0.342,5.346-1.029c1.527-0.686,2.822-1.604,3.885-2.756
		c1.063-1.151,1.893-2.479,2.49-3.984c0.598-1.504,0.984-3.077,1.162-4.715H1050.033z"/>
	<path fill="#FFFFFF" d="M1121.221,216.695c-5.269,3.188-11.488,4.781-18.66,4.781c-6.198,0-11.766-1.428-16.701-4.283
		c-4.937-2.855-8.777-6.895-11.521-12.119c-2.745-5.223-4.117-11.09-4.117-17.598c0-11.245,3.221-20.276,9.662-27.094
		c6.441-6.817,15.019-10.227,25.732-10.227c5.932,0,11.178,1.152,15.738,3.453v11.156c-5.092-3.542-10.492-5.313-16.203-5.313
		c-7.039,0-12.762,2.513-17.166,7.537c-4.405,5.025-6.607,11.521-6.607,19.49c0,7.925,2.092,14.189,6.275,18.793
		c4.184,4.605,9.795,6.906,16.834,6.906c5.932,0,11.51-1.948,16.734-5.844V216.695z"/>
	<path fill="#FFFFFF" d="M1193.205,219.816h-15.141l-29.883-32.473h-0.266v32.473h-10.891v-68h10.891v31.012h0.266l28.555-31.012
		h14.41l-31.676,32.938L1193.205,219.816z"/>
	<path fill="#FFFFFF" d="M1260.674,219.816h-9.762v-52.859l-35.926,52.859h-11.289v-68h9.895v52.328l35.793-52.328h11.289V219.816z"
		/>
	<path fill="#FFFFFF" d="M1339.033,219.816h-9.762v-52.859l-35.926,52.859h-11.289v-68h9.895v52.328l35.793-52.328h11.289V219.816z
		 M1335.049,118.745c-0.266,3.011-1.029,5.755-2.291,8.234c-1.262,2.48-2.934,4.605-5.014,6.375
		c-2.081,1.771-4.527,3.144-7.338,4.117c-2.812,0.974-5.899,1.461-9.264,1.461c-3.409,0-6.508-0.475-9.297-1.428
		c-2.789-0.952-5.202-2.301-7.238-4.051c-2.037-1.749-3.642-3.862-4.814-6.342c-1.174-2.479-1.849-5.268-2.025-8.367h10.691
		c0.133,1.727,0.432,3.343,0.896,4.848c0.465,1.505,1.195,2.822,2.191,3.951s2.279,2.025,3.852,2.689
		c1.571,0.664,3.53,0.996,5.877,0.996c2.036,0,3.818-0.342,5.346-1.029c1.527-0.686,2.822-1.604,3.885-2.756
		c1.063-1.151,1.893-2.479,2.49-3.984c0.598-1.504,0.984-3.077,1.162-4.715H1335.049z"/>
	<path fill="#FFFFFF" d="M715.943,336.478c0,6.818-1.318,12.872-3.951,18.162c-2.634,5.291-6.353,9.353-11.156,12.186
		c-4.804,2.833-10.326,4.25-16.568,4.25c-10.449,0-18.494-3.719-24.139-11.156s-8.467-18.063-8.467-31.875
		c0-27.138,6.618-43.895,19.855-50.27c2.346-1.106,5.08-2.036,8.201-2.789s6.331-1.461,9.629-2.125
		c3.297-0.664,6.53-1.361,9.695-2.092c3.165-0.73,5.943-1.671,8.334-2.822v10.227c-2.082,1.107-4.539,1.971-7.371,2.59
		c-2.833,0.62-5.744,1.174-8.732,1.66c-2.988,0.487-5.888,1.029-8.699,1.627c-2.812,0.598-5.236,1.45-7.271,2.557
		c-6.951,3.719-11.023,13.016-12.219,27.891h0.266c2.346-3.63,5.578-6.463,9.695-8.5c4.117-2.036,8.456-3.055,13.016-3.055
		c5.887,0,11.1,1.384,15.639,4.15c4.538,2.768,8.045,6.729,10.525,11.887C714.704,324.138,715.943,329.97,715.943,336.478z
		 M704.787,337.607c0-7.791-1.904-13.979-5.711-18.561c-3.808-4.582-8.965-6.873-15.473-6.873c-9.121,0-16.004,4.339-20.652,13.016
		l-0.133,6.309c0,9.253,1.926,16.613,5.777,22.08c3.852,5.468,9.164,8.201,15.938,8.201c5.977,0,10.846-2.235,14.609-6.707
		C702.905,350.601,704.787,344.779,704.787,337.607z"/>
	<path fill="#FFFFFF" d="M786.4,338.138h-48.012c0.176,7.659,2.202,13.514,6.076,17.564c3.874,4.051,9.241,6.076,16.104,6.076
		c7.703,0,14.719-2.479,21.051-7.438v10.16c-5.933,4.383-13.813,6.574-23.641,6.574c-9.695,0-17.266-3.132-22.711-9.396
		c-5.445-6.264-8.168-14.93-8.168-25.998c0-6.729,1.361-12.871,4.084-18.428c2.723-5.556,6.475-9.861,11.256-12.916
		s10.094-4.582,15.938-4.582c8.809,0,15.682,2.867,20.619,8.6c4.936,5.733,7.404,13.758,7.404,24.072V338.138z M775.244,328.907
		c-0.089-6.286-1.605-11.167-4.549-14.643c-2.945-3.475-7.095-5.213-12.451-5.213c-5.047,0-9.363,1.815-12.949,5.445
		c-3.586,3.631-5.844,8.434-6.773,14.41H775.244z"/>
	<path fill="#FFFFFF" d="M845.568,350.755c0,6.287-2.546,11.245-7.637,14.875c-5.091,3.631-11.931,5.445-20.52,5.445
		c-9.341,0-16.492-1.195-21.449-3.586v-10.691c5.887,3.32,12.816,4.98,20.785,4.98c11.997,0,17.996-3.807,17.996-11.422
		c0-7.525-6.574-11.289-19.723-11.289h-6.707v-9.23h6.375c11.555,0,17.332-3.586,17.332-10.758c0-3.055-1.318-5.489-3.951-7.305
		c-2.634-1.814-6.275-2.723-10.924-2.723c-6.597,0-13.215,1.66-19.855,4.98v-10.16c7.57-2.744,14.477-4.117,20.719-4.117
		c16.557,0,24.836,6.088,24.836,18.262c0,4.029-1.262,7.471-3.785,10.326s-5.933,4.704-10.227,5.545v0.332
		c5.09,0.443,9.153,2.17,12.186,5.18C844.051,342.41,845.568,346.196,845.568,350.755z"/>
	<path fill="#FFFFFF" d="M955.271,333.357c0,11.511-2.812,20.675-8.434,27.492c-5.623,6.818-13.148,10.227-22.578,10.227
		c-8.943,0-15.738-3.807-20.387-11.422h-0.266v41.039h-10.891v-99.277h10.891v11.953h0.266c5.355-9.075,13.191-13.613,23.508-13.613
		c8.5,0,15.273,3.011,20.32,9.031C952.748,314.808,955.271,322.997,955.271,333.357z M944.115,333.224
		c0-7.349-1.727-13.215-5.18-17.598s-8.213-6.574-14.277-6.574c-6.242,0-11.313,2.17-15.207,6.508
		c-3.896,4.339-5.844,9.873-5.844,16.602v9.496c0,5.711,1.869,10.492,5.611,14.344c3.74,3.852,8.355,5.777,13.846,5.777
		c6.551,0,11.698-2.523,15.439-7.57C942.244,349.161,944.115,342.167,944.115,333.224z"/>
	<path fill="#FFFFFF" d="M1025.596,338.138h-48.012c0.177,7.659,2.202,13.514,6.076,17.564c3.873,4.051,9.241,6.076,16.104,6.076
		c7.703,0,14.72-2.479,21.051-7.438v10.16c-5.933,4.383-13.813,6.574-23.641,6.574c-9.695,0-17.266-3.132-22.711-9.396
		c-5.445-6.264-8.168-14.93-8.168-25.998c0-6.729,1.361-12.871,4.084-18.428c2.723-5.556,6.475-9.861,11.256-12.916
		s10.094-4.582,15.938-4.582c8.81,0,15.683,2.867,20.619,8.6c4.936,5.733,7.404,13.758,7.404,24.072V338.138z M1014.439,328.907
		c-0.089-6.286-1.605-11.167-4.549-14.643c-2.944-3.475-7.095-5.213-12.451-5.213c-5.047,0-9.363,1.815-12.949,5.445
		c-3.586,3.631-5.844,8.434-6.773,14.41H1014.439z"/>
	<path fill="#FFFFFF" d="M1078.654,310.646h-26.895v58.77h-10.891v-68h37.785V310.646z"/>
	<path fill="#FFFFFF" d="M1149.311,369.415h-9.762v-52.859l-35.926,52.859h-11.289v-68h9.895v52.328l35.793-52.328h11.289V369.415z"
		/>
	<path fill="#FFFFFF" d="M1216.514,366.294c-5.269,3.188-11.488,4.781-18.66,4.781c-6.198,0-11.766-1.428-16.701-4.283
		c-4.937-2.855-8.777-6.895-11.521-12.119c-2.745-5.224-4.117-11.09-4.117-17.598c0-11.244,3.221-20.275,9.662-27.094
		c6.441-6.817,15.019-10.227,25.732-10.227c5.932,0,11.178,1.151,15.738,3.453v11.156c-5.092-3.541-10.492-5.313-16.203-5.313
		c-7.039,0-12.762,2.513-17.166,7.537c-4.405,5.025-6.607,11.521-6.607,19.49c0,7.925,2.092,14.189,6.275,18.793
		c4.184,4.604,9.795,6.906,16.834,6.906c5.932,0,11.51-1.947,16.734-5.844V366.294z"/>
	<path fill="#FFFFFF" d="M1275.018,310.646h-20.387v58.77h-10.891v-58.77h-20.387v-9.23h51.664V310.646z"/>
	<path fill="#FFFFFF" d="M1349.99,333.357c0,11.511-2.812,20.675-8.434,27.492c-5.623,6.818-13.148,10.227-22.578,10.227
		c-8.943,0-15.738-3.807-20.387-11.422h-0.266v41.039h-10.891v-99.277h10.891v11.953h0.266c5.356-9.075,13.192-13.613,23.508-13.613
		c8.5,0,15.273,3.011,20.32,9.031C1347.467,314.808,1349.99,322.997,1349.99,333.357z M1338.834,333.224
		c0-7.349-1.727-13.215-5.18-17.598s-8.213-6.574-14.277-6.574c-6.242,0-11.312,2.17-15.207,6.508
		c-3.896,4.339-5.844,9.873-5.844,16.602v9.496c0,5.711,1.87,10.492,5.611,14.344c3.74,3.852,8.355,5.777,13.846,5.777
		c6.552,0,11.698-2.523,15.439-7.57C1336.963,349.161,1338.834,342.167,1338.834,333.224z"/>
	<path fill="#FFFFFF" d="M1412.545,369.415h-10.891V358.79h-0.266c-4.737,8.19-11.71,12.285-20.918,12.285
		c-6.553,0-11.799-1.781-15.738-5.346c-3.94-3.563-5.91-8.355-5.91-14.377c0-12.661,7.481-20.055,22.445-22.18l20.387-2.855
		c0-11.51-4.671-17.266-14.012-17.266c-8.19,0-15.584,2.768-22.18,8.301v-11.156c1.992-1.505,5.4-2.955,10.227-4.35
		c4.825-1.395,9.119-2.092,12.883-2.092c15.981,0,23.973,8.479,23.973,25.434V369.415z M1401.654,335.017l-16.469,2.324
		c-5.623,0.797-9.563,2.137-11.82,4.018c-2.258,1.882-3.387,4.926-3.387,9.131c0,3.409,1.217,6.143,3.652,8.201
		c2.435,2.059,5.556,3.088,9.363,3.088c5.4,0,9.861-1.903,13.381-5.711c3.52-3.807,5.279-8.566,5.279-14.277V335.017z"/>
	<path fill="#FFFFFF" d="M1498.873,394.185h-9.363v-24.77H1432.4v-68h10.891v58.77h34.664v-58.77h10.891v58.77h10.027V394.185z"/>
	<path fill="#FFFFFF" d="M1570.326,369.415h-9.762v-52.859l-35.926,52.859h-11.289v-68h9.895v52.328l35.793-52.328h11.289V369.415z"
		/>
	<path fill="#FFFFFF" d="M1648.686,369.415h-9.762v-52.859l-35.926,52.859h-11.289v-68h9.895v52.328l35.793-52.328h11.289V369.415z"
		/>
</g>
</svg>
