<?xml version="1.0" encoding="utf-8"?>
<!-- Generator: Adobe Illustrator 16.0.0, SVG Export Plug-In . SVG Version: 6.00 Build 0)  -->
<!DOCTYPE svg PUBLIC "-//W3C//DTD SVG 1.1//EN" "http://www.w3.org/Graphics/SVG/1.1/DTD/svg11.dtd">
<svg version="1.1" id="Layer_1" xmlns="http://www.w3.org/2000/svg" xmlns:xlink="http://www.w3.org/1999/xlink" x="0px" y="0px"
	 width="72px" height="72px" viewBox="-124 -44.86 72 72" enable-background="new -124 -44.86 72 72" xml:space="preserve">
<g id="Layer_1_1_">
</g>
<g>
	<path fill="#333334" d="M-52-8.86c0,19.8-16.2,36-36,36l0,0c-19.8,0-36-16.2-36-36l0,0c0-19.8,16.2-36,36-36l0,0
		C-68.2-44.86-52-28.66-52-8.86L-52-8.86z"/>
</g>
<path fill="#FFFFFF" d="M-78.749-9.604c-0.632,0.588-1.289,1.156-1.89,1.775c-2.764,2.848-5.478,5.738-8.28,8.544
	c-1.353,1.358-2.813,2.632-4.598,3.454c-0.961,0.446-1.968,0.689-3.019,0.424c-1.695-0.431-2.589-1.828-2.492-3.802
	c0.095-1.869,0.73-3.604,1.472-5.292c1.076-2.465,2.25-4.892,3.382-7.336c1.37-2.963,2.774-5.916,4.098-8.899
	c0.433-0.979,0.654-2.047,0.961-3.082c0.056-0.205,0.042-0.435,0.056-0.654c-0.046-0.031-0.09-0.066-0.137-0.098
	c-0.332,0.331-0.716,0.63-0.992,1.003c-1.398,1.887-2.76,3.795-4.146,5.689c-1.479,2.015-2.921,4.066-4.486,6.019
	c-0.64,0.798-1.492,1.484-2.38,2.02c-1.715,1.035-3.678,0.133-4.279-1.824c-0.447-1.456-0.035-2.803,0.59-4.07
	c1.003-2.023,2.135-3.983,3.172-5.989c0.538-1.034,0.992-2.117,0.927-3.322c-0.049-0.787-0.403-1.438-1.024-1.921
	c-0.496-0.38-1.041-0.237-1.551-0.004c-1.132,0.519-1.964,1.379-2.698,2.347c-0.384,0.512-0.904,0.676-1.355,0.415
	c-0.562-0.32-0.765-0.905-0.392-1.477c0.989-1.507,2.254-2.743,3.99-3.405c1.928-0.731,3.519,0.063,4.604,1.762
	c0.829,1.288,0.986,2.691,0.535,4.098c-0.426,1.334-0.996,2.629-1.593,3.893c-0.748,1.587-1.632,3.113-2.373,4.697
	c-0.269,0.567-0.343,1.232-0.415,1.859c-0.028,0.23,0.146,0.536,0.331,0.704c0.074,0.069,0.468-0.083,0.615-0.234
	c0.801-0.825,1.661-1.615,2.317-2.545c1.785-2.524,3.455-5.128,5.223-7.667c0.894-1.281,1.856-2.521,2.879-3.701
	c0.65-0.749,1.46-1.378,2.492-1.581c1.579-0.303,3.056,0.971,3.189,2.698c0.095,1.18-0.044,2.336-0.457,3.429
	c-0.894,2.375-1.789,4.746-2.795,7.072c-1.558,3.583-3.253,7.109-4.805,10.699c-0.563,1.299-0.887,2.698-1.295,4.056
	c-0.084,0.258-0.063,0.54-0.098,0.975c0.527-0.306,0.967-0.515,1.349-0.797c1.803-1.319,3.312-2.942,4.821-4.571
	c2.435-2.619,4.877-5.237,7.375-7.803c0.846-0.867,1.831-1.619,3.002-2.082c2.124-0.836,4.095,0.198,4.584,2.413
	c0.212,0.967,0.1,1.925-0.119,2.882c-0.57,2.521-1.691,4.847-2.655,7.221c-0.866,2.121-1.691,4.254-2.495,6.4
	c-0.209,0.563-0.256,1.184-0.377,1.775c-0.063,0.303,0.105,0.515,0.377,0.501c0.497-0.021,1.027-0.027,1.478-0.209
	c1.479-0.584,2.648-1.625,3.798-2.677c0.839-0.77,1.635-1.578,2.453-2.368c0.685-0.669,1.223-0.672,1.901-0.014
	c0.531,0.508,1.062,1.02,1.572,1.546c0.505,0.515,0.552,1.118,0.042,1.612c-2.131,2.065-4.228,4.186-6.911,5.588
	c-1.8,0.947-3.689,1.462-5.73,0.791c-2.718-0.895-3.896-2.987-3.34-5.842c0.454-2.319,1.397-4.463,2.334-6.615
	c1.076-2.465,2.117-4.948,3.166-7.423c0.125-0.3,0.189-0.624,0.28-0.934C-78.626-9.521-78.688-9.563-78.749-9.604z"/>
</svg>
