<?xml version="1.0" encoding="utf-8"?>
<!-- Generator: Adobe Illustrator 16.0.0, SVG Export Plug-In . SVG Version: 6.00 Build 0)  -->
<!DOCTYPE svg PUBLIC "-//W3C//DTD SVG 1.1//EN" "http://www.w3.org/Graphics/SVG/1.1/DTD/svg11.dtd">
<svg version="1.1" id="Layer_1" xmlns="http://www.w3.org/2000/svg" xmlns:xlink="http://www.w3.org/1999/xlink" x="0px" y="0px"
	 width="300.161px" height="70.081px" viewBox="-277.361 -37.332 300.161 70.081"
	 enable-background="new -277.361 -37.332 300.161 70.081" xml:space="preserve">
<rect x="-277.361" y="-37.332" fill="#555555" width="300" height="70"/>
<rect x="-277.361" y="-37.332" fill="none" width="300" height="70"/>
<g id="Layer_1_1_">
</g>
<rect x="-277.361" y="-37.332" fill="#DB4040" width="70" height="70"/>
<path fill="#FFFFFF" d="M-233.343-3.063c-0.616,0.574-1.256,1.127-1.842,1.733c-2.696,2.776-5.342,5.596-8.073,8.334
	c-1.319,1.324-2.744,2.567-4.483,3.369c-0.938,0.436-1.918,0.673-2.943,0.415c-1.654-0.421-2.525-1.782-2.43-3.709
	c0.093-1.824,0.713-3.516,1.435-5.162c1.049-2.404,2.194-4.772,3.298-7.155c1.335-2.892,2.705-5.771,3.995-8.684
	c0.423-0.953,0.638-1.995,0.937-3.004c0.055-0.201,0.042-0.425,0.055-0.64c-0.045-0.029-0.089-0.063-0.134-0.095
	c-0.323,0.323-0.697,0.614-0.967,0.979c-1.363,1.84-2.691,3.702-4.042,5.549c-1.442,1.967-2.848,3.966-4.374,5.872
	c-0.624,0.778-1.456,1.447-2.321,1.97c-1.671,1.009-3.585,0.13-4.171-1.779c-0.437-1.419-0.035-2.734,0.574-3.971
	c0.979-1.973,2.083-3.885,3.094-5.842c0.525-1.009,0.967-2.064,0.904-3.239c-0.048-0.767-0.393-1.402-1-1.875
	c-0.483-0.369-1.015-0.23-1.512-0.003c-1.104,0.506-1.915,1.345-2.629,2.29c-0.375,0.499-0.882,0.658-1.322,0.404
	c-0.548-0.313-0.746-0.885-0.381-1.44c0.964-1.471,2.198-2.677,3.89-3.321c1.88-0.714,3.431,0.061,4.49,1.719
	c0.808,1.257,0.96,2.626,0.521,3.999c-0.416,1.3-0.971,2.563-1.553,3.796c-0.729,1.549-1.592,3.038-2.314,4.583
	c-0.262,0.552-0.333,1.201-0.405,1.813c-0.027,0.225,0.143,0.522,0.323,0.687c0.072,0.068,0.457-0.083,0.6-0.228
	c0.781-0.807,1.619-1.576,2.258-2.482c1.741-2.463,3.369-5.002,5.093-7.479c0.872-1.25,1.81-2.459,2.807-3.609
	c0.633-0.73,1.424-1.345,2.43-1.542c1.54-0.294,2.98,0.948,3.11,2.633c0.092,1.151-0.044,2.278-0.446,3.343
	c-0.873,2.319-1.744,4.632-2.725,6.9c-1.52,3.495-3.172,6.936-4.685,10.437c-0.549,1.268-0.865,2.632-1.264,3.957
	c-0.082,0.251-0.061,0.525-0.095,0.951c0.514-0.299,0.943-0.503,1.315-0.778c1.758-1.288,3.229-2.87,4.701-4.458
	c2.374-2.555,4.755-5.109,7.19-7.611c0.824-0.846,1.785-1.58,2.928-2.031c2.071-0.815,3.992,0.193,4.469,2.354
	c0.207,0.942,0.099,1.877-0.116,2.812c-0.556,2.458-1.649,4.729-2.589,7.044c-0.845,2.068-1.649,4.15-2.432,6.243
	c-0.205,0.55-0.249,1.154-0.368,1.732c-0.061,0.295,0.103,0.502,0.368,0.489c0.483-0.021,1.001-0.028,1.44-0.203
	c1.442-0.572,2.583-1.587,3.704-2.612c0.817-0.751,1.594-1.539,2.391-2.311c0.668-0.651,1.193-0.654,1.854-0.014
	c0.517,0.496,1.035,0.996,1.532,1.509c0.493,0.502,0.539,1.089,0.041,1.572c-2.078,2.016-4.122,4.082-6.738,5.452
	c-1.755,0.923-3.597,1.426-5.586,0.771c-2.65-0.873-3.799-2.913-3.256-5.699c0.443-2.263,1.363-4.354,2.275-6.453
	c1.049-2.405,2.064-4.826,3.086-7.241c0.124-0.292,0.185-0.607,0.273-0.911C-233.225-2.98-233.286-3.022-233.343-3.063z"/>
<g>
	<path fill="#FFFFFF" d="M-173.118-5.97c0-3.199-0.939-4.799-2.818-4.799c-1.292,0-2.223,0.56-2.792,1.679s-0.854,2.769-0.854,4.948
		V7.02h-1.656V-5.97c0-1.617-0.229-2.821-0.687-3.612s-1.169-1.187-2.132-1.187c-1.269,0-2.19,0.574-2.766,1.723
		c-0.575,1.148-0.863,3.012-0.863,5.59V7.02h-1.674v-19.072h1.409l0.141,2.654h0.159c0.763-2.016,2.061-3.023,3.893-3.023
		c1.057,0,1.891,0.281,2.502,0.844c0.61,0.563,1.051,1.383,1.321,2.461c0.458-1.172,1.021-2.016,1.691-2.531
		s1.539-0.773,2.607-0.773c1.445,0,2.501,0.554,3.171,1.661s1.004,2.88,1.004,5.317V7.02h-1.656V-5.97z"/>
	<path fill="#FFFFFF" d="M-165.243,3.557c0.376,0,0.699,0.141,0.969,0.422c0.271,0.281,0.405,0.768,0.405,1.459
		c0,0.668-0.135,1.146-0.405,1.433c-0.27,0.287-0.593,0.431-0.969,0.431c-0.916,0-1.374-0.621-1.374-1.863
		C-166.617,4.184-166.159,3.557-165.243,3.557z"/>
	<path fill="#FFFFFF" d="M-152.735,6.009c-0.845,0.908-2.067,1.362-3.664,1.362c-0.869,0-1.633-0.111-2.29-0.334
		c-0.658-0.223-1.169-0.469-1.533-0.738V4.348c0.435,0.434,1.01,0.782,1.726,1.046c0.717,0.264,1.451,0.396,2.202,0.396
		c0.987,0,1.762-0.322,2.326-0.967c0.563-0.645,0.846-1.506,0.846-2.584c0-0.844-0.203-1.556-0.608-2.136s-1.177-1.239-2.317-1.978
		c-1.303-0.82-2.193-1.477-2.669-1.969c-0.476-0.492-0.845-1.043-1.11-1.652c-0.264-0.609-0.396-1.336-0.396-2.18
		c0-1.371,0.464-2.505,1.392-3.401s2.108-1.345,3.541-1.345c1.539,0,2.825,0.363,3.858,1.09l-0.863,1.459
		c-0.963-0.645-1.985-0.967-3.065-0.967c-0.987,0-1.773,0.29-2.361,0.87s-0.881,1.345-0.881,2.294c0,0.844,0.2,1.55,0.599,2.118
		c0.399,0.568,1.245,1.257,2.537,2.065c1.269,0.832,2.138,1.497,2.607,1.995s0.819,1.049,1.048,1.652s0.343,1.298,0.343,2.083
		C-151.467,3.844-151.89,5.101-152.735,6.009z"/>
	<path fill="#FFFFFF" d="M-138.976-6.128c0-1.723-0.226-2.944-0.678-3.665c-0.453-0.721-1.189-1.081-2.211-1.081
		c-1.351,0-2.367,0.598-3.048,1.793s-1.022,3.082-1.022,5.66V7.02h-1.673v-27.352h1.673v8.877c0,0.809-0.023,1.482-0.07,2.021h0.141
		c0.376-0.949,0.943-1.685,1.7-2.206c0.758-0.521,1.547-0.782,2.37-0.782c1.621,0,2.771,0.527,3.453,1.582s1.022,2.625,1.022,4.711
		V7.02h-1.656V-6.128z"/>
	<path fill="#FFFFFF" d="M-132.203-18.574c0.217-0.293,0.496-0.439,0.837-0.439c0.317,0,0.57,0.146,0.757,0.439
		c0.188,0.293,0.282,0.703,0.282,1.23c0,0.504-0.094,0.905-0.282,1.204c-0.188,0.299-0.44,0.448-0.757,0.448
		c-0.341,0-0.62-0.149-0.837-0.448s-0.326-0.7-0.326-1.204C-132.528-17.871-132.42-18.281-132.203-18.574z M-132.282,7.02v-19.072
		h1.673V7.02H-132.282z"/>
	<path fill="#FFFFFF" d="M-109.256-5.97c0-3.199-0.939-4.799-2.819-4.799c-1.292,0-2.223,0.56-2.792,1.679
		c-0.569,1.119-0.854,2.769-0.854,4.948V7.02h-1.656V-5.97c0-1.617-0.229-2.821-0.687-3.612s-1.168-1.187-2.132-1.187
		c-1.268,0-2.19,0.574-2.766,1.723c-0.576,1.148-0.863,3.012-0.863,5.59V7.02h-1.674v-19.072h1.41l0.141,2.654h0.159
		c0.764-2.016,2.061-3.023,3.894-3.023c1.057,0,1.891,0.281,2.501,0.844s1.051,1.383,1.321,2.461
		c0.458-1.172,1.022-2.016,1.691-2.531s1.539-0.773,2.607-0.773c1.445,0,2.502,0.554,3.171,1.661s1.004,2.88,1.004,5.317V7.02
		h-1.656V-5.97z"/>
	<path fill="#FFFFFF" d="M-95.356,4.348h-0.071c-0.916,2.016-2.302,3.023-4.158,3.023c-1.245,0-2.246-0.495-3.003-1.485
		c-0.758-0.99-1.136-2.317-1.136-3.981c0-1.816,0.546-3.255,1.638-4.315s2.625-1.638,4.598-1.731l2.061-0.105V-5.83
		c0-1.781-0.223-3.079-0.669-3.894s-1.186-1.222-2.22-1.222c-1.092,0-2.208,0.357-3.347,1.072l-0.722-1.318
		c1.327-0.82,2.719-1.23,4.175-1.23c1.574,0,2.707,0.495,3.4,1.485s1.04,2.646,1.04,4.966V7.02h-1.375L-95.356,4.348z
		 M-96.422,4.181c0.664-1.178,0.995-2.845,0.995-5.001v-1.986l-1.991,0.105c-1.539,0.082-2.681,0.507-3.426,1.274
		c-0.746,0.768-1.119,1.89-1.119,3.366c0,1.383,0.247,2.396,0.74,3.041s1.163,0.967,2.008,0.967
		C-98.017,5.948-97.086,5.359-96.422,4.181z"/>
	<path fill="#FFFFFF" d="M-80.101-6.128c0-3.164-0.939-4.746-2.818-4.746c-1.433,0-2.481,0.592-3.145,1.775
		c-0.664,1.184-0.996,3.064-0.996,5.643V7.02h-1.674v-19.072h1.41l0.141,2.654h0.159c0.399-0.961,0.975-1.705,1.727-2.232
		s1.556-0.791,2.414-0.791c1.48,0,2.59,0.495,3.33,1.485s1.11,2.581,1.11,4.772V7.02h-1.656V-6.128z"/>
	<path fill="#FFFFFF" d="M-67.169,6.009c-0.846,0.908-2.067,1.362-3.665,1.362c-0.869,0-1.632-0.111-2.29-0.334
		s-1.168-0.469-1.533-0.738V4.348c0.435,0.434,1.01,0.782,1.727,1.046s1.45,0.396,2.202,0.396c0.986,0,1.762-0.322,2.325-0.967
		c0.564-0.645,0.846-1.506,0.846-2.584c0-0.844-0.203-1.556-0.608-2.136c-0.405-0.58-1.177-1.239-2.316-1.978
		c-1.304-0.82-2.193-1.477-2.669-1.969s-0.846-1.043-1.11-1.652s-0.396-1.336-0.396-2.18c0-1.371,0.464-2.505,1.392-3.401
		c0.928-0.896,2.108-1.345,3.541-1.345c1.539,0,2.825,0.363,3.858,1.09l-0.863,1.459c-0.963-0.645-1.985-0.967-3.065-0.967
		c-0.986,0-1.773,0.29-2.361,0.87c-0.587,0.58-0.881,1.345-0.881,2.294c0,0.844,0.2,1.55,0.599,2.118S-71.192-4.3-69.9-3.492
		c1.269,0.832,2.138,1.497,2.607,1.995s0.819,1.049,1.048,1.652s0.344,1.298,0.344,2.083C-65.901,3.844-66.324,5.101-67.169,6.009z"
		/>
	<path fill="#FFFFFF" d="M-59.259-4.353l4.721-7.699h1.814l-4.404,7.014l4.792,12.059h-1.762l-4.158-10.512l-2.114,2.777V7.02
		h-1.674v-27.352h1.674v14.713l-0.124,3.199h0.159L-59.259-4.353z"/>
	<path fill="#FFFFFF" d="M-51.896-12.052h1.691l2.889,11.9c0.341,1.43,0.67,3.041,0.987,4.834h0.141
		c0.223-1.559,0.534-3.182,0.934-4.869l2.819-11.865h1.691l-5.584,22.676c-0.411,1.676-0.948,2.936-1.612,3.779
		s-1.547,1.266-2.651,1.266c-0.446,0-0.952-0.1-1.515-0.299v-1.512c0.47,0.164,0.928,0.246,1.374,0.246
		c0.705,0,1.263-0.302,1.674-0.905c0.411-0.604,0.775-1.573,1.092-2.909l0.845-3.305L-51.896-12.052z"/>
	<path fill="#FFFFFF" d="M-38.295,3.557c0.376,0,0.699,0.141,0.969,0.422c0.27,0.281,0.405,0.768,0.405,1.459
		c0,0.668-0.135,1.146-0.405,1.433c-0.271,0.287-0.593,0.431-0.969,0.431c-0.916,0-1.374-0.621-1.374-1.863
		C-39.669,4.184-39.211,3.557-38.295,3.557z"/>
	<path fill="#FFFFFF" d="M-20.502-2.56c0,3.234-0.464,5.698-1.392,7.392c-0.928,1.693-2.267,2.54-4.017,2.54
		c-0.916,0-1.75-0.252-2.501-0.756c-0.752-0.504-1.374-1.248-1.868-2.232h-0.141l-0.229,2.637h-1.374v-27.352h1.673v8.49
		l-0.07,2.303h0.141c1.01-1.898,2.402-2.848,4.175-2.848C-22.37-12.386-20.502-9.111-20.502-2.56z M-29.363-8.906
		c-0.658,1.289-0.987,3.404-0.987,6.346v0.439c0,5.32,1.416,7.98,4.246,7.98c1.292,0,2.258-0.686,2.898-2.057s0.96-3.492,0.96-6.363
		c0-2.754-0.312-4.822-0.934-6.205c-0.623-1.383-1.621-2.074-2.995-2.074C-27.643-10.839-28.706-10.195-29.363-8.906z"/>
	<path fill="#FFFFFF" d="M-16.212-18.574c0.217-0.293,0.496-0.439,0.837-0.439c0.317,0,0.569,0.146,0.757,0.439
		s0.282,0.703,0.282,1.23c0,0.504-0.094,0.905-0.282,1.204s-0.44,0.448-0.757,0.448c-0.341,0-0.62-0.149-0.837-0.448
		s-0.326-0.7-0.326-1.204C-16.538-17.871-16.43-18.281-16.212-18.574z M-16.292,7.02v-19.072h1.673V7.02H-16.292z"/>
	<path fill="#FFFFFF" d="M-11.024,7.02V5.684l5.638-16.26h-5.268v-1.477h7.029v1.354l-5.62,16.242h5.884V7.02H-11.024z"/>
</g>
</svg>
