<svg version="1.1" xmlns="http://www.w3.org/2000/svg" xmlns:xlink="http://www.w3.org/1999/xlink" x="0px" y="0px" width="72px" height="72px" viewBox="0 0 72 72" enable-background="new 0 0 72 72" xml:space="preserve"><rect x="-22.932" y="-23.5" fill="none" width="72" height="72"/><g><path d="M13.069,42.5c-16.542,0-30.001-13.459-30.001-30c0-16.542,13.458-30,30.001-30c16.547,0,30,13.458,30,30C43.068,29.041,29.616,42.5,13.069,42.5z M13.069-15.5c-15.164,0-27.501,12.561-27.501,28c0,15.441,12.336,28,27.501,28c15.166,0,27.5-12.56,27.5-28C40.568-2.939,28.234-15.5,13.069-15.5z"/><g><rect x="-3.61" y="4.928" transform="matrix(0.7071 -0.7071 0.7071 0.7071 -2.6736 6.4008)" width="20" height="3"/><rect x="-3.486" y="17.072" transform="matrix(-0.7071 -0.7071 0.7071 -0.7071 -2.0112 36.311)" width="20.001" height="3"/><rect y="11.088" width="29" height="2.699"/></g></g></svg>