<svg version="1.1" xmlns="http://www.w3.org/2000/svg" xmlns:xlink="http://www.w3.org/1999/xlink" x="0px" y="0px" width="72px" height="72px" viewBox="-23.188 -23.5 72 72" enable-background="new -23.188 -23.5 72 72" xml:space="preserve"><g><circle fill="none" cx="12.813" cy="12.5" r="25.5"/><path fill="#383838" d="M12.813,42.5c-16.543,0-29.998-13.459-29.998-30c0-16.542,13.458-30,29.998-30c16.55,0,30,13.458,30,30C42.813,29.041,29.359,42.5,12.813,42.5z M12.813-13C-1.246-13-12.686-1.561-12.686,12.5c0,14.063,11.439,25.5,25.498,25.5c14.063,0,25.5-11.438,25.5-25.5C38.313-1.561,26.875-13,12.813-13z"/><path fill="#383838" d="M14.699,27.5h-3.783V4.771L0.5,15.189L-2.188,12.5l15.001-15l15,15l-2.689,2.689L14.711,4.76V27.5H14.699z"/><rect x="-23.188" y="-23.5" fill="none" width="72" height="72"/></g></svg>