<svg version="1.1" xmlns="http://www.w3.org/2000/svg" xmlns:xlink="http://www.w3.org/1999/xlink" x="0px" y="0px" viewBox="0 0 160 160" enable-background="new 0 0 160 160" xml:space="preserve"><rect fill="none" width="160" height="160"/><g><path fill="#FFFFFF" d="M80.002,146.666c-36.76,0-66.668-29.908-66.668-66.666c0-36.76,29.906-66.666,66.668-66.666c36.771,0,66.668,29.906,66.668,66.666C146.667,116.758,116.773,146.666,80.002,146.666z M80.002,17.777c-33.697,0-61.113,27.914-61.113,62.223c0,34.313,27.414,62.223,61.113,62.223c33.703,0,61.111-27.912,61.111-62.223C141.111,45.691,113.703,17.777,80.002,17.777z"/><g><rect x="42.938" y="63.174" transform="matrix(0.7071 -0.7071 0.7071 0.7071 -27.9424 65.5517)" fill="#FFFFFF" width="44.444" height="6.665"/><rect x="43.214" y="90.16" transform="matrix(-0.7071 -0.7071 0.7071 -0.7071 45.5948 205.8732)" fill="#FFFFFF" width="44.447" height="6.666"/><rect x="50.961" y="76.863" fill="#FFFFFF" width="64.443" height="5.996"/></g></g></svg>