<svg version="1.1" xmlns="http://www.w3.org/2000/svg" xmlns:xlink="http://www.w3.org/1999/xlink" x="0px" y="0px" width="160px" height="160px" viewBox="0 0 160 160" enable-background="new 0 0 160 160" xml:space="preserve"><rect fill="none" width="160" height="160"/><path d="M80.001,128C53.534,128,32,106.466,32,80c0-26.467,21.533-48,48.001-48C106.475,32,128,53.533,128,80C128,106.466,106.475,128,80.001,128z M80.001,39.2c-22.498,0-40.802,18.302-40.802,40.8c0,22.5,18.303,40.8,40.802,40.8c22.5,0,40.799-18.3,40.799-40.8C120.8,57.502,102.501,39.2,80.001,39.2z"/><path d="M104,76.968v6.065H67.634l16.67,16.67L80.002,104L56,80.002L80,56l4.303,4.301L67.62,76.964h36.376v0.004H104z"/><rect x="32" y="32" fill="none" width="96" height="96"/></svg>