<svg version="1.1" xmlns="http://www.w3.org/2000/svg" xmlns:xlink="http://www.w3.org/1999/xlink" x="0px" y="0px" width="72px" height="72px" viewBox="-23.188 -23.5 72 72" enable-background="new -23.188 -23.5 72 72" xml:space="preserve"><path fill="#FFFFFF" d="M12.811,42.5c-16.543,0-29.998-13.459-29.998-30c0-16.542,13.455-30,29.998-30c16.554,0,30.001,13.458,30.001,30C42.812,29.041,29.359,42.5,12.811,42.5z M12.811-13C-1.25-13-12.687-1.561-12.687,12.5c0,14.063,11.439,25.5,25.498,25.5c14.063,0,25.501-11.438,25.501-25.5C38.312-1.561,26.875-13,12.811-13z"/><rect x="-23.188" y="-23.5" fill="none" width="72" height="72"/><path fill="#FFFFFF" d="M-3.687,16.622v-8.25h19.149L6.625-1.939h10.314L29.315,12.5L16.942,26.938H6.627l8.832-10.313L-3.687,16.622L-3.687,16.622z"/></svg>