<svg version="1.1" xmlns="http://www.w3.org/2000/svg" xmlns:xlink="http://www.w3.org/1999/xlink" x="0px" y="0px" width="72px" height="72px" viewBox="-23.149 -23.5 72 72" enable-background="new -23.149 -23.5 72 72" xml:space="preserve"><path fill="#383838" d="M12.852,42.5c-16.542,0-30.001-13.459-30.001-30c0-16.542,13.458-30,30.001-30c16.547,0,29.999,13.458,29.999,30C42.851,29.041,29.399,42.5,12.852,42.5z M12.852-13C-1.209-13-12.649-1.561-12.649,12.5c0,14.063,11.439,25.5,25.501,25.5c14.063,0,25.499-11.438,25.499-25.5C38.351-1.561,26.915-13,12.852-13z"/><path fill="#383838" d="M27.852,10.606v3.791H5.122l10.419,10.418l-2.689,2.684L-2.15,12.502l15.001-15l2.689,2.688L5.113,10.603h22.736v0.003H27.852z"/><rect x="-23.149" y="-23.5" fill="none" width="72" height="72"/></svg>