<svg version="1.1" xmlns="http://www.w3.org/2000/svg" xmlns:xlink="http://www.w3.org/1999/xlink" x="0px" y="0px" width="72px" height="72px" viewBox="-23.187 -23.5 72 72" enable-background="new -23.187 -23.5 72 72" xml:space="preserve"><path fill="#383838" d="M12.813,42.5c-16.542,0-30-13.459-30-30c0-16.542,13.458-30,30-30c16.55,0,30,13.458,30,30C42.813,29.041,29.36,42.5,12.813,42.5z M12.813-13c-14.061,0-25.5,11.439-25.5,25.5c0,14.063,11.439,25.5,25.5,25.5c14.065,0,25.5-11.438,25.5-25.5C38.313-1.561,26.876-13,12.813-13z"/><rect x="-23.187" y="-23.5" fill="none" width="72" height="72"/><path fill="#383838" d="M10.16,16.626l8.838,10.313H8.683L-3.689,12.501L8.686-1.938H19L10.163,8.376h19.154v8.25H10.16z"/></svg>