<svg version="1.1" xmlns="http://www.w3.org/2000/svg" xmlns:xlink="http://www.w3.org/1999/xlink" x="0px" y="0px" viewBox="0 0 160 160" enable-background="new 0 0 160 160" xml:space="preserve"><path d="M116,76H53.656l21.172-21.171c1.562-1.562,1.562-4.094,0-5.657c-1.563-1.563-4.095-1.562-5.657,0l-28,28c-1.562,1.562-1.562,4.095-0.001,5.657l28,28C69.952,111.609,70.976,112,72,112c1.023,0,2.047-0.391,2.828-1.173c1.562-1.562,1.562-4.094,0-5.655L53.656,84H116c2.209,0,4.001-1.792,4-4.001C120,77.79,118.209,76,116,76z"/><rect fill="none" width="160" height="160"/></svg>