<svg version="1.1" xmlns="http://www.w3.org/2000/svg" xmlns:xlink="http://www.w3.org/1999/xlink" x="0px" y="0px" viewBox="0 0 160 160" enable-background="new 0 0 160 160" xml:space="preserve"><rect fill="none" width="160" height="160"/><path fill="#FFFFFF" d="M146.668,80c0,36.76-29.909,66.668-66.668,66.668c-36.762,0-66.668-29.906-66.668-66.668c0-36.771,29.906-66.668,66.668-66.668C116.759,13.336,146.668,43.229,146.668,80z M17.775,80c0,33.697,27.914,61.112,62.225,61.112c34.314,0,62.225-27.415,62.225-61.112c0-33.703-27.914-61.111-62.225-61.111C45.689,18.892,17.775,46.298,17.775,80z"/><g><rect x="44.281" y="81.788" transform="matrix(0.7071 0.7071 -0.7071 0.7071 79.6677 -22.0926)" fill="#FFFFFF" width="44.442" height="6.666"/><rect x="71.271" y="81.512" transform="matrix(0.7071 -0.7071 0.7071 0.7071 -32.6108 90.9587)" fill="#FFFFFF" width="44.446" height="6.665"/></g></svg>