<svg version="1.1" xmlns="http://www.w3.org/2000/svg" xmlns:xlink="http://www.w3.org/1999/xlink" x="0px" y="0px" viewBox="0 0 160 160" enable-background="new 0 0 160 160" xml:space="preserve"><path fill="#FFFFFF" d="M85.657,80l25.171-25.172c1.563-1.562,1.563-4.095,0-5.656c-1.563-1.563-4.094-1.563-5.656,0L80,74.343L54.829,49.172c-1.563-1.563-4.095-1.563-5.657,0c-1.563,1.562-1.563,4.095,0,5.656L74.344,80l-25.172,25.172c-1.563,1.563-1.563,4.096,0,5.656C49.953,111.609,50.977,112,52,112s2.048-0.391,2.829-1.172L80,85.656l25.172,25.172c0.781,0.781,1.805,1.172,2.828,1.172s2.048-0.391,2.828-1.172c1.563-1.563,1.563-4.096,0-5.656L85.657,80z"/><rect fill="none" width="160" height="160"/></svg>