<svg version="1.1" xmlns="http://www.w3.org/2000/svg" xmlns:xlink="http://www.w3.org/1999/xlink" x="0px" y="0px" viewBox="0 0 160 160" enable-background="new 0 0 160 160" xml:space="preserve"><path d="M48,68c-6.627,0-12,5.373-12,12s5.373,12,12,12s12-5.373,12-12S54.627,68,48,68z M48,84c-2.209,0-4-1.791-4-4s1.791-4,4-4s4,1.791,4,4S50.209,84,48,84z M80,68c-6.627,0-12,5.373-12,12s5.373,12,12,12s12-5.373,12-12S86.627,68,80,68z M80,84c-2.209,0-4-1.791-4-4s1.791-4,4-4s4,1.791,4,4S82.209,84,80,84z M112,68c-6.627,0-12,5.373-12,12s5.373,12,12,12s12-5.373,12-12S118.627,68,112,68z M112,84c-2.209,0-4-1.791-4-4s1.791-4,4-4s4,1.791,4,4S114.209,84,112,84z"/><rect fill="none" width="160" height="160"/></svg>