<svg version="1.1" xmlns="http://www.w3.org/2000/svg" xmlns:xlink="http://www.w3.org/1999/xlink" x="0px" y="0px" width="72px" height="72px" viewBox="-23.303 -24.111 72 72" enable-background="new -23.303 -24.111 72 72" xml:space="preserve"><g><path fill="#FFFFFF" d="M-2.302,1.889h30v3.333h-30V1.889z M-2.302,10.219h30v3.33h-30V10.219z M-2.302,18.555h30v3.334h-30V18.555z"/><rect x="-23.303" y="-24.111" fill="none" width="72" height="72"/><path fill="#FFFFFF" d="M12.698,41.889c-16.542,0-30-13.458-30-29.999c0-16.543,13.458-30,30-30c16.547,0,30,13.458,30,30C42.698,28.43,29.245,41.889,12.698,41.889z M12.698-13.611c-14.064,0-25.501,11.439-25.501,25.5s11.439,25.5,25.501,25.5c14.061,0,25.5-11.438,25.5-25.5S26.761-13.611,12.698-13.611z"/></g></svg>