<svg version="1.1" xmlns="http://www.w3.org/2000/svg" xmlns:xlink="http://www.w3.org/1999/xlink" x="0px" y="0px" viewBox="0 0 160 160" enable-background="new 0 0 160 160" xml:space="preserve"><rect fill="none" width="160" height="160"/><path d="M44,60h72c2.209,0,4-1.791,4-4s-1.791-4-4-4H44c-2.209,0-4,1.791-4,4S41.791,60,44,60z M116,76H44c-2.209,0-4,1.791-4,4s1.791,4,4,4h72c2.209,0,4-1.791,4-4S118.209,76,116,76z M116,100H44c-2.209,0-4,1.791-4,4s1.791,4,4,4h72c2.209,0,4-1.791,4-4S118.209,100,116,100z"/></svg>