<svg version="1.1" xmlns="http://www.w3.org/2000/svg" xmlns:xlink="http://www.w3.org/1999/xlink" x="0px" y="0px" width="72px" height="72px" viewBox="-23.302 -24.111 72 72" enable-background="new -23.302 -24.111 72 72" xml:space="preserve"><g><path fill="#383838" d="M-2.302,1.904h30v3.322h-30V1.904z M-2.302,10.236h30v3.322h-30V10.236z M-2.302,18.568h30v3.322h-30V18.568z"/><rect x="-23.302" y="-24.111" fill="none" width="72" height="72"/><path fill="#383838" d="M12.698,41.912c-16.541,0-30-13.482-30-30.006c0-16.559,13.459-30.006,30-30.006c16.547,0,30,13.447,30,30.006C42.698,28.43,29.245,41.912,12.698,41.912z M12.698-13.6c-14.063,0-25.5,11.443-25.5,25.506c0,14.045,11.438,25.506,25.5,25.506c14.062,0,25.5-11.461,25.5-25.506C38.198-2.156,26.761-13.6,12.698-13.6z"/></g></svg>