<svg version="1.1" xmlns="http://www.w3.org/2000/svg" xmlns:xlink="http://www.w3.org/1999/xlink" x="0px" y="0px" viewBox="0 0 40 40" enable-background="new 0 0 40 40" xml:space="preserve"><rect y="-0.001" fill="none" width="40" height="40"/><g><path fill="#C1C1C3" d="M31,12.999c0,0.55-0.413,1-0.915,1H9.916c-0.504,0-0.916-0.45-0.916-1v-2.001c0-0.549,0.412-0.999,0.916-0.999h20.169c0.502,0,0.915,0.45,0.915,0.999V12.999z"/></g><g><path fill="#C1C1C3" d="M31,20.998c0,0.551-0.414,1.001-0.918,1.001H9.916C9.412,21.999,9,21.549,9,20.998v-1.999c0-0.549,0.412-1,0.916-1h20.166c0.504,0,0.918,0.451,0.918,1V20.998z"/></g><g><path fill="#C1C1C3" d="M31,28.999c0,0.552-0.413,1-0.916,1H9.916c-0.504,0-0.916-0.448-0.916-1v-2c0-0.549,0.412-1,0.916-1h20.168c0.503,0,0.916,0.451,0.916,1V28.999z"/></g></svg>