<svg version="1.1" xmlns="http://www.w3.org/2000/svg" xmlns:xlink="http://www.w3.org/1999/xlink" x="0px" y="0px" viewBox="0 0 50 50" enable-background="new 0 0 50 50" xml:space="preserve"><polygon fill="none" points="0,0 0,50 50,50 50,0 "/><g><path fill-rule="evenodd" clip-rule="evenodd" fill="#FFFFFF" d="M34.699,26.186c-0.475-0.919-1.792-1.683-3.54-0.357C28.796,27.622,25,27.622,25,27.622s-3.798,0-6.162-1.794c-1.748-1.325-3.063-0.562-3.539,0.357c-0.828,1.6,0.106,2.376,2.22,3.68c1.803,1.114,4.282,1.53,5.88,1.686l-1.333,1.288c-1.884,1.809-3.699,3.558-4.96,4.771c-0.753,0.728-0.753,1.901,0,2.626l0.228,0.219c0.376,0.362,0.868,0.544,1.361,0.545h0.006c0.494-0.001,0.985-0.183,1.362-0.545l4.958-4.772c1.883,1.813,3.699,3.561,4.96,4.772c0.752,0.727,1.973,0.727,2.73,0l0.226-0.22c0.755-0.724,0.755-1.897,0-2.625l-4.96-4.771l-1.34-1.292c1.604-0.156,4.055-0.577,5.842-1.682C34.592,28.562,35.528,27.785,34.699,26.186L34.699,26.186z M25,13.115c2.286,0,4.14,1.783,4.14,3.984c0,2.201-1.854,3.984-4.14,3.984c-2.288,0-4.14-1.784-4.14-3.984C20.86,14.897,22.712,13.115,25,13.115L25,13.115z M25,25.197c4.646,0,8.415-3.626,8.415-8.098C33.415,12.625,29.646,9,25,9c-4.648,0-8.416,3.625-8.416,8.099C16.584,21.571,20.352,25.197,25,25.197L25,25.197z"/></g></svg>