<svg version="1.1" xmlns="http://www.w3.org/2000/svg" xmlns:xlink="http://www.w3.org/1999/xlink" x="0px" y="0px" viewBox="0 0 40 40" enable-background="new 0 0 40 40" xml:space="preserve"><rect fill="none" width="40" height="40"/><g><path fill="#FFFFFF" d="M17.686,12.329c1.341-0.155,2.09,0.025,3.192,0.474c0.207,0.083,0.336,0.144,0.509,0.257c0.11,0.071,0.172,0.109,0.25,0.152c0.094,0.058,0.122,0.075,0.217,0.141c0.078,0.055,0.138,0.104,0.233,0.176c1.085,0.79,2.106,2.258,2.347,4.116c0.236,1.848-0.498,3.638-1.387,4.641c-1.048,1.185-2.253,1.919-3.955,2.147c-5.272,0.7-8.874-5.519-5.571-9.792C14.585,13.266,15.943,12.533,17.686,12.329L17.686,12.329z M23.202,26.377l2.812,3.342c0.461,0.568,0.875,1.043,1.823,1.23c2.589,0.516,4.5-3.028,1.983-4.838l-3.564-2.653c0.18-0.54,1.098-1.519,1.398-3.934c0.051-0.371,0.072-0.618,0.076-1.004c0.006-0.754-0.055-1.281-0.181-2.003c-0.771-4.396-5.036-7.777-9.696-7.501c-1.146,0.069-2.537,0.377-3.451,0.855c-0.6,0.312-1.47,0.806-1.968,1.242c-0.994,0.867-1.804,1.755-2.413,2.981c-1.828,3.663-1.112,7.776,1.415,10.591c0.211,0.236,0.322,0.313,0.535,0.535c0.188,0.2,0.364,0.309,0.584,0.487c0.83,0.681,1.754,1.159,2.759,1.519c1.525,0.547,3.162,0.619,4.777,0.356C21.189,27.402,22.359,26.902,23.202,26.377L23.202,26.377z"/></g></svg>