<svg version="1.1" xmlns="http://www.w3.org/2000/svg" xmlns:xlink="http://www.w3.org/1999/xlink" x="0px" y="0px" viewBox="0 0 28 28" enable-background="new 0 0 28 28" xml:space="preserve"><rect fill="none" width="28" height="28"/><g><path fill="#D5D8D8" d="M12.317,8.421c0.975-0.113,1.52,0.018,2.322,0.344c0.15,0.061,0.244,0.105,0.37,0.187c0.08,0.052,0.125,0.079,0.181,0.111c0.069,0.042,0.09,0.054,0.158,0.102c0.057,0.04,0.1,0.076,0.17,0.128c0.789,0.574,1.532,1.642,1.707,2.994c0.172,1.344-0.363,2.646-1.009,3.375c-0.762,0.86-1.639,1.396-2.876,1.562c-3.834,0.51-6.454-4.013-4.052-7.12C10.062,9.103,11.05,8.569,12.317,8.421L12.317,8.421z M16.329,18.638l2.044,2.43c0.336,0.414,0.637,0.759,1.326,0.896c1.883,0.375,3.273-2.202,1.443-3.519l-2.593-1.93c0.13-0.393,0.798-1.104,1.019-2.861c0.035-0.27,0.051-0.45,0.054-0.73c0.005-0.549-0.038-0.932-0.131-1.457c-0.56-3.197-3.663-5.656-7.051-5.455c-0.833,0.05-1.845,0.274-2.51,0.622C9.493,6.86,8.86,7.22,8.498,7.537C7.775,8.167,7.186,8.813,6.743,9.705c-1.329,2.665-0.809,5.656,1.029,7.703c0.154,0.172,0.234,0.227,0.389,0.39c0.137,0.146,0.265,0.224,0.425,0.354c0.604,0.494,1.276,0.843,2.007,1.104c1.109,0.397,2.299,0.449,3.474,0.259C14.865,19.384,15.717,19.021,16.329,18.638L16.329,18.638z"/></g></svg>