<svg version="1.1" xmlns="http://www.w3.org/2000/svg" xmlns:xlink="http://www.w3.org/1999/xlink" x="0px" y="0px" viewBox="0 0 50 50" enable-background="new 0 0 50 50" xml:space="preserve"><polygon fill="none" points="0,0 0,50 50,50 50,0 "/><path fill="#FFFFFF" d="M41,15.078c-1.176,0.522-2.44,0.875-3.77,1.034c1.354-0.813,2.396-2.099,2.887-3.632c-1.27,0.752-2.674,1.299-4.17,1.593C34.75,12.798,33.044,12,31.156,12c-3.625,0-6.565,2.939-6.565,6.564c0,0.515,0.057,1.016,0.169,1.496c-5.456-0.274-10.293-2.886-13.532-6.858c-0.565,0.969-0.889,2.097-0.889,3.3c0,2.277,1.159,4.286,2.921,5.463c-1.077-0.034-2.089-0.33-2.974-0.821c0,0.027,0,0.055,0,0.083c0,3.18,2.263,5.833,5.267,6.435c-0.551,0.15-1.131,0.23-1.73,0.23c-0.423,0-0.834-0.041-1.235-0.117c0.836,2.607,3.26,4.504,6.133,4.558c-2.248,1.764-5.078,2.813-8.154,2.813c-0.53,0-1.053-0.031-1.566-0.092c2.906,1.861,6.357,2.947,10.064,2.947c12.076,0,18.68-10,18.68-18.675c0-0.285-0.008-0.568-0.02-0.85C39.007,17.549,40.121,16.395,41,15.078z"/></svg>