<svg version="1.1" xmlns="http://www.w3.org/2000/svg" xmlns:xlink="http://www.w3.org/1999/xlink" x="0px" y="0px" viewBox="0 0 50 50" enable-background="new 0 0 50 50" xml:space="preserve"><polygon fill="none" points="0,0 0,50 50,50 50,0 0,0 "/><path fill-rule="evenodd" clip-rule="evenodd" fill="#FFFFFF" d="M38.881,17.466c0.208-1.166,0.204-2.363-0.52-3.27c-1.011-1.271-3.161-1.317-4.635-1.093c-1.198,0.182-5.251,1.959-6.631,6.214c2.443-0.185,3.725,0.176,3.489,2.85c-0.099,1.119-0.667,2.345-1.302,3.52c-0.732,1.354-2.107,4.015-3.91,2.097c-1.624-1.726-1.502-5.025-1.873-7.224c-0.206-1.232-0.425-2.77-0.832-4.038c-0.35-1.09-1.153-2.404-2.136-2.69c-1.055-0.308-2.359,0.173-3.125,0.622c-2.439,1.425-4.298,3.452-6.408,5.124v0.156c0.418,0.397,0.531,1.049,1.146,1.137c1.452,0.213,2.837-1.345,3.802,0.276c0.588,0.99,0.771,2.075,1.147,3.144c0.503,1.422,0.891,2.972,1.302,4.605c0.695,2.771,1.551,6.907,3.959,7.921c1.229,0.52,3.076-0.175,4.011-0.726c2.533-1.49,4.507-3.65,6.197-5.848C36.427,25.042,38.559,19.15,38.881,17.466L38.881,17.466z"/></svg>