<?xml version="1.0" encoding="utf-8"?>
<!-- Generator: Adobe Illustrator 16.0.0, SVG Export Plug-In . SVG Version: 6.00 Build 0)  -->
<!DOCTYPE svg PUBLIC "-//W3C//DTD SVG 1.1//EN" "http://www.w3.org/Graphics/SVG/1.1/DTD/svg11.dtd">
<svg version="1.1" id="Layer_1" xmlns="http://www.w3.org/2000/svg" xmlns:xlink="http://www.w3.org/1999/xlink" x="0px" y="0px"
	 width="500px" height="263px" viewBox="0 0 500 263" enable-background="new 0 0 500 263" xml:space="preserve">
<rect fill="#D3D3D3" width="500" height="263"/>
<g>
	<path fill="#969696" d="M186.499,117.254c4.928,4.202,5.478,30.045-1.764,28.34c-5.725-1.349-4.244-20.393-3.048-24.304
		C182.855,117.472,182.884,117.642,186.499,117.254L186.499,117.254z M174.692,136.997c2.283,21.815,24.747,19.05,21.413-10.916
		C193.678,104.271,171.515,106.623,174.692,136.997L174.692,136.997z"/>
	<path fill="#969696" d="M214.499,117.254c4.928,4.202,5.478,30.045-1.764,28.34c-4.417-1.041-4.132-10.775-4.037-15.62
		C208.878,120.723,209.45,117.795,214.499,117.254L214.499,117.254z M202.692,136.997c2.283,21.815,24.747,19.05,21.413-10.916
		C221.678,104.271,199.515,106.623,202.692,136.997L202.692,136.997z"/>
	<path fill="#969696" d="M316.389,132.063c6.67,3.207,4.229,14.412-0.756,13.58C311.209,144.9,309.252,134.32,316.389,132.063
		L316.389,132.063z M315.27,125.996c2.547-4.935,6.823-8.837,8.07-12.284l-3.951-1.974c-8.078,4.781-20.339,28.905-9.888,37.174
		c10.595,8.382,22.511-6.868,14.787-18.79C321.292,125.498,318.788,127.552,315.27,125.996L315.27,125.996z"/>
	<path fill="#969696" d="M153.773,117.222l11.873-0.097l-0.008-5.129h-18.294l0.413,18.632c9.562,2.101,6.06-3.053,10.613-0.871
		c4.872,2.335,2.683,12.043,1.516,15.608c-6.711,1.042-6.296-1.818-9.532-5.395l-3.782,2.024
		c1.33,10.794,16.513,12.438,20.031,2.224c3.8-11.033-0.629-21.849-12.981-19.372L153.773,117.222L153.773,117.222z"/>
	<path fill="#969696" d="M280.499,120.886c9.808,4.106,4.556-5.238,11.539-3.457c12.151,3.098-13.483,19.221-12.281,33.199
		c3.89,0.597,7.695,0.343,11.655,0.396c10.339,0.145,8.977,0.789,8.977-5.154h-13.24c2.658-8.448,14.9-15.602,14.095-24.759
		C300.219,109.522,282.368,108.453,280.499,120.886L280.499,120.886z"/>
	<path fill="#969696" d="M332.628,119.996c7.718,6.362,5.44-6.495,11.802-2.094c1.188,0.821,6.081,9.875-5.041,9.965
		c0.055,10.467,2.139,1.061,6.621,7.574c2.977,4.324-0.482,16.686-8.24,6.244c-1.041-1.399-0.516-0.854-1.422-1.709l-3.72,2.002
		c0.854,4.414,2.253,6.656,5.772,8.063c3.67,1.47,7.927,1.058,10.703-1.294c8.816-7.462,1.803-15.409-0.568-18.735
		C361.98,119.021,338.424,101.425,332.628,119.996L332.628,119.996z"/>
	<path fill="#969696" d="M252.259,131.107c-5.12-7.338,0.37-8.342-10.631-7.871c-0.439,4.322,0.409,3.816,2.08,5.479
		c5.035,5.012,5.689,9.572,0.701,15.307c-4.078,4.688-3.992-1.237-3.9,5.978c6.999,4.299,9.052-2.985,11.14-8.742
		c2.33,3.175,3.356,13.818,11.621,8.742c0.099-7.571-0.058-0.767-4.369-6.485c-3.775-5.012-4.305-8.959,0.123-13.822
		c1.699-1.867-1.438,1.56,1.052-0.965c0.146-0.148,0.403-0.312,0.545-0.465c0.502-0.551,2.005,0.43,1.532-5.116
		C254.225,122.94,255.169,121.886,252.259,131.107L252.259,131.107z"/>
</g>
</svg>
