<?xml version="1.0" encoding="utf-8"?>
<!-- Generator: Adobe Illustrator 16.0.0, SVG Export Plug-In . SVG Version: 6.00 Build 0)  -->
<!DOCTYPE svg PUBLIC "-//W3C//DTD SVG 1.1//EN" "http://www.w3.org/Graphics/SVG/1.1/DTD/svg11.dtd">
<svg version="1.1" xmlns="http://www.w3.org/2000/svg" xmlns:xlink="http://www.w3.org/1999/xlink" x="0px" y="0px"
						 viewBox="0 0 500 500" enable-background="new 0 0 500 500" xml:space="preserve">
						<g>
							<rect x="0" y="0" fill="none" width="500" height="500"/>
							<g>
								<path fill="#D55148" d="M502,501.989c0,0.006-0.004,0.01-0.01,0.01H2.01c-0.005,0-0.01-0.004-0.01-0.01V2.01
									C2,2.004,2.004,2,2.01,2h499.98c0.005,0,0.01,0.004,0.01,0.01V501.989z"/>
							</g>
							<path fill="#FFFFFF" d="M322.336,246.313c-4.811,4.517-9.803,8.846-14.381,13.578c-21.008,21.701-41.65,43.762-62.954,65.184
								c-10.287,10.351-21.366,20.065-34.938,26.329c-7.31,3.367-14.939,5.271-22.976,3.221c-12.867-3.296-19.675-13.926-18.921-28.971
								c0.719-14.274,5.552-27.499,11.166-40.374c8.196-18.818,17.109-37.336,25.709-55.982c10.432-22.615,21.115-45.121,31.169-67.898
								c3.291-7.457,4.994-15.608,7.283-23.479c0.469-1.577,0.322-3.329,0.455-5.002c-0.353-0.258-0.704-0.51-1.051-0.763
								c-2.531,2.537-5.426,4.816-7.531,7.661c-10.614,14.385-20.979,28.955-31.517,43.388c-11.25,15.402-22.202,31.042-34.113,45.929
								c-4.865,6.074-11.364,11.326-18.082,15.405c-13.024,7.903-27.981,1.019-32.547-13.908c-3.399-11.116-0.272-21.385,4.501-31.06
								c7.618-15.426,16.216-30.376,24.11-45.674c4.081-7.907,7.521-16.15,7.006-25.351c-0.334-6.007-3.026-10.974-7.759-14.646
								c-3.75-2.92-7.93-1.82-11.785-0.048c-8.6,3.952-14.938,10.529-20.502,17.912c-2.949,3.908-6.892,5.148-10.336,3.173
								c-4.252-2.438-5.799-6.919-2.964-11.252c7.53-11.529,17.154-20.97,30.356-26.001c14.649-5.584,26.721,0.479,35.001,13.438
								c6.272,9.821,7.485,20.535,4.057,31.271c-3.247,10.152-7.566,20.028-12.109,29.701c-5.693,12.095-12.39,23.729-18.045,35.834
								c-2.015,4.313-2.588,9.387-3.162,14.191c-0.205,1.733,1.145,4.082,2.528,5.356c0.563,0.519,3.58-0.629,4.678-1.771
								c6.061-6.311,12.626-12.336,17.622-19.421c13.581-19.263,26.259-39.149,39.707-58.505c6.788-9.765,14.107-19.226,21.888-28.234
								c4.923-5.701,11.1-10.536,18.915-12.055c12.005-2.331,23.259,7.419,24.284,20.574c0.706,8.991-0.386,17.828-3.507,26.18
								c-6.767,18.092-13.576,36.201-21.249,53.928c-11.83,27.354-24.71,54.265-36.503,81.629c-4.273,9.915-6.754,20.59-9.892,30.964
								c-0.591,1.949-0.432,4.124-0.73,7.436c4.012-2.35,7.356-3.921,10.262-6.065c13.698-10.097,25.185-22.464,36.662-34.879
								c18.505-20.015,37.084-39.967,56.07-59.536c6.435-6.632,13.925-12.367,22.812-15.879c16.175-6.403,31.14,1.481,34.848,18.366
								c1.627,7.427,0.77,14.721-0.884,22.008c-4.338,19.231-12.854,36.955-20.217,55.104c-6.564,16.171-12.86,32.459-18.942,48.817
								c-1.591,4.283-1.945,9.013-2.869,13.54c-0.472,2.321,0.789,3.914,2.86,3.833c3.779-0.158,7.823-0.241,11.246-1.601
								c11.224-4.478,20.128-12.416,28.856-20.44c6.37-5.849,12.441-12.03,18.648-18.057c5.229-5.078,9.325-5.122,14.482-0.104
								c4.009,3.9,8.045,7.784,11.954,11.778c3.836,3.929,4.186,8.548,0.317,12.306c-16.237,15.75-32.155,31.961-52.539,42.665
								c-13.716,7.211-28.094,11.139-43.601,6.002c-20.638-6.829-29.604-22.769-25.373-44.562c3.438-17.688,10.606-34.055,17.735-50.46
								c8.175-18.825,16.111-37.752,24.077-56.66c0.951-2.264,1.425-4.727,2.117-7.095C323.273,246.96,322.803,246.635,322.336,246.313z"
								/>
						</g>
					</svg>
