<svg version="1.1" xmlns="http://www.w3.org/2000/svg" xmlns:xlink="http://www.w3.org/1999/xlink" x="0px" y="0px" viewBox="0 0 80 80" enable-background="new 0 0 80 80" xml:space="preserve"><rect fill="#D54848" width="80" height="80"/><path fill="#FFFFFF" d="M50.407,39.154c-0.711,0.667-1.449,1.313-2.126,2.018c-3.109,3.232-6.164,6.516-9.315,9.702c-1.522,1.544-3.167,2.991-5.174,3.923c-1.081,0.506-2.213,0.784-3.395,0.483c-1.907-0.491-2.914-2.075-2.803-4.319c0.106-2.125,0.823-4.093,1.656-6.01c1.21-2.799,2.531-5.555,3.805-8.331c1.54-3.366,3.122-6.719,4.61-10.107c0.488-1.11,0.736-2.324,1.082-3.499c0.064-0.234,0.047-0.495,0.064-0.745c-0.053-0.035-0.103-0.075-0.155-0.111c-0.373,0.377-0.806,0.715-1.117,1.139c-1.572,2.144-3.104,4.311-4.664,6.461c-1.664,2.289-3.286,4.618-5.047,6.837c-0.72,0.906-1.679,1.686-2.679,2.293c-1.928,1.176-4.136,0.151-4.813-2.071c-0.503-1.652-0.04-3.183,0.662-4.623c1.128-2.296,2.402-4.523,3.569-6.8c0.605-1.176,1.116-2.404,1.042-3.772c-0.055-0.895-0.453-1.634-1.152-2.183c-0.558-0.431-1.171-0.27-1.745-0.003c-1.273,0.588-2.208,1.565-3.034,2.666c-0.432,0.58-1.017,0.764-1.524,0.469c-0.633-0.363-0.86-1.028-0.44-1.676c1.113-1.713,2.536-3.117,4.489-3.868c2.17-0.83,3.958,0.072,5.181,2.001c0.933,1.464,1.107,3.057,0.601,4.656c-0.479,1.514-1.12,2.985-1.792,4.419c-0.841,1.803-1.836,3.537-2.67,5.335c-0.303,0.645-0.385,1.398-0.467,2.11c-0.031,0.262,0.165,0.609,0.373,0.801c0.083,0.079,0.526-0.095,0.693-0.266c0.901-0.938,1.868-1.835,2.606-2.892c2.008-2.867,3.887-5.824,5.876-8.707c1.006-1.455,2.087-2.862,3.239-4.204c0.731-0.849,1.642-1.566,2.804-1.795c1.776-0.342,3.438,1.104,3.588,3.065c0.106,1.341-0.051,2.653-0.515,3.895c-1.007,2.699-2.013,5.391-3.144,8.033c-1.754,4.067-3.662,8.074-5.407,12.151c-0.632,1.475-0.997,3.063-1.458,4.605c-0.093,0.291-0.071,0.611-0.11,1.107c0.593-0.347,1.089-0.586,1.518-0.907c2.028-1.498,3.727-3.341,5.424-5.19c2.738-2.974,5.486-5.948,8.296-8.861c0.952-0.985,2.059-1.839,3.378-2.364c2.39-0.95,4.605,0.225,5.156,2.739c0.238,1.099,0.114,2.186-0.134,3.275c-0.642,2.861-1.902,5.504-2.987,8.201c-0.975,2.408-1.902,4.833-2.807,7.268c-0.236,0.641-0.288,1.344-0.426,2.016c-0.069,0.345,0.12,0.586,0.426,0.569c0.558-0.023,1.155-0.03,1.663-0.236c1.663-0.665,2.979-1.847,4.272-3.042c0.942-0.873,1.84-1.791,2.76-2.69c0.771-0.758,1.376-0.762,2.139-0.016c0.598,0.578,1.194,1.159,1.769,1.757c0.569,0.585,0.621,1.268,0.048,1.831c-2.397,2.345-4.756,4.75-7.774,6.348c-2.025,1.074-4.15,1.657-6.447,0.896c-3.057-1.017-4.384-3.392-3.758-6.635c0.512-2.633,1.572-5.068,2.626-7.513c1.211-2.802,2.381-5.619,3.561-8.43c0.143-0.341,0.213-0.708,0.315-1.06C50.545,39.249,50.476,39.201,50.407,39.154z"/></svg>