<?xml version="1.0" encoding="utf-8"?>
<!-- Generator: Adobe Illustrator 16.0.0, SVG Export Plug-In . SVG Version: 6.00 Build 0)  -->
<!DOCTYPE svg PUBLIC "-//W3C//DTD SVG 1.1//EN" "http://www.w3.org/Graphics/SVG/1.1/DTD/svg11.dtd">
<svg version="1.1" id="Layer_1" xmlns="http://www.w3.org/2000/svg" xmlns:xlink="http://www.w3.org/1999/xlink" x="0px" y="0px"
	 width="300px" height="70px" viewBox="-277.361 -37.332 300 70" enable-background="new -277.361 -37.332 300 70"
	 xml:space="preserve">
<rect x="-277.361" y="-37.332" fill="none" width="300" height="70"/>
<rect x="-277.361" y="-37.332" fill="none" width="300" height="70"/>
<g id="Layer_1_1_">
</g>
<rect x="-277.361" y="-37.332" fill="#DB4040" width="70" height="70"/>
<path fill="#FFFFFF" d="M-233.343-3.063c-0.616,0.574-1.256,1.127-1.842,1.733c-2.696,2.776-5.342,5.596-8.073,8.334
	c-1.319,1.324-2.744,2.567-4.483,3.369c-0.938,0.436-1.918,0.673-2.943,0.415c-1.654-0.421-2.525-1.782-2.43-3.709
	c0.093-1.824,0.713-3.516,1.435-5.162c1.049-2.404,2.194-4.772,3.298-7.155c1.335-2.892,2.705-5.771,3.995-8.684
	c0.423-0.953,0.638-1.995,0.937-3.004c0.055-0.201,0.042-0.425,0.055-0.64c-0.045-0.029-0.089-0.063-0.134-0.095
	c-0.323,0.323-0.697,0.614-0.967,0.979c-1.363,1.84-2.691,3.702-4.042,5.549c-1.442,1.967-2.848,3.966-4.374,5.872
	c-0.624,0.778-1.456,1.447-2.321,1.97c-1.671,1.009-3.585,0.13-4.171-1.779c-0.437-1.419-0.035-2.734,0.574-3.971
	c0.979-1.973,2.083-3.885,3.094-5.842c0.525-1.009,0.967-2.064,0.904-3.239c-0.048-0.767-0.393-1.402-1-1.875
	c-0.483-0.369-1.015-0.23-1.512-0.003c-1.104,0.506-1.915,1.345-2.629,2.29c-0.375,0.499-0.882,0.658-1.322,0.404
	c-0.548-0.313-0.746-0.885-0.381-1.44c0.964-1.471,2.198-2.677,3.89-3.321c1.88-0.714,3.431,0.061,4.49,1.719
	c0.808,1.257,0.96,2.626,0.521,3.999c-0.416,1.3-0.971,2.563-1.553,3.796c-0.729,1.549-1.592,3.038-2.314,4.583
	c-0.262,0.552-0.333,1.201-0.405,1.813c-0.027,0.225,0.143,0.521,0.323,0.687c0.072,0.068,0.457-0.083,0.6-0.228
	c0.781-0.807,1.619-1.576,2.258-2.482c1.741-2.463,3.369-5.002,5.093-7.479c0.872-1.25,1.81-2.459,2.807-3.609
	c0.633-0.73,1.424-1.345,2.43-1.542c1.54-0.294,2.98,0.948,3.11,2.633c0.092,1.151-0.044,2.278-0.446,3.343
	c-0.873,2.319-1.744,4.632-2.725,6.9c-1.52,3.495-3.172,6.936-4.685,10.437c-0.549,1.268-0.865,2.632-1.264,3.957
	c-0.082,0.251-0.061,0.525-0.095,0.951c0.514-0.299,0.943-0.503,1.315-0.778c1.758-1.288,3.229-2.87,4.701-4.458
	c2.374-2.555,4.755-5.109,7.19-7.611c0.824-0.846,1.785-1.58,2.928-2.031c2.071-0.815,3.992,0.193,4.469,2.354
	c0.207,0.942,0.099,1.877-0.116,2.812c-0.556,2.458-1.649,4.729-2.589,7.044c-0.845,2.068-1.649,4.15-2.432,6.243
	c-0.205,0.55-0.249,1.154-0.368,1.732c-0.061,0.295,0.103,0.502,0.368,0.489c0.483-0.021,1.001-0.028,1.44-0.203
	c1.442-0.572,2.583-1.587,3.704-2.612c0.817-0.751,1.594-1.539,2.391-2.311c0.668-0.651,1.193-0.654,1.854-0.014
	c0.517,0.496,1.035,0.996,1.532,1.509c0.493,0.502,0.539,1.089,0.041,1.572c-2.078,2.016-4.122,4.082-6.738,5.452
	c-1.755,0.923-3.597,1.426-5.586,0.771c-2.65-0.873-3.799-2.913-3.256-5.699c0.443-2.263,1.363-4.354,2.275-6.453
	c1.049-2.405,2.064-4.826,3.086-7.241c0.124-0.292,0.185-0.607,0.273-0.911C-233.225-2.98-233.286-3.022-233.343-3.063z"/>
<g>
	<path fill="#FFFFFF" d="M-182.372-7.702h-1.522v-1.54h-0.038c-0.664,1.186-1.638,1.779-2.926,1.779
		c-0.918,0-1.65-0.257-2.204-0.773c-0.55-0.517-0.826-1.209-0.826-2.081c0-1.834,1.048-2.903,3.142-3.211l2.85-0.416
		c0-1.665-0.654-2.498-1.959-2.498c-1.146,0-2.181,0.401-3.104,1.201v-1.615c0.279-0.217,0.757-0.426,1.432-0.627
		c0.675-0.204,1.275-0.302,1.802-0.302c2.235,0,3.353,1.225,3.353,3.68L-182.372-7.702L-182.372-7.702z M-183.894-12.683
		l-2.303,0.336c-0.788,0.116-1.339,0.309-1.655,0.583c-0.315,0.269-0.475,0.709-0.475,1.32c0,0.492,0.171,0.889,0.512,1.187
		c0.341,0.298,0.778,0.448,1.311,0.448c0.754,0,1.378-0.277,1.872-0.829c0.492-0.55,0.737-1.24,0.737-2.064L-183.894-12.683
		L-183.894-12.683z"/>
	<path fill="#FFFFFF" d="M-171.602-7.702h-1.523v-4.469h-4.849v4.469h-1.523v-9.844h1.523v4.036h4.849v-4.037h1.523V-7.702z"/>
	<path fill="#FFFFFF" d="M-163.231-16.209h-3.763v8.505h-1.522v-9.843h5.285V-16.209z"/>
	<path fill="#FFFFFF" d="M-154.972-7.702h-1.514v-8.507h-2.212c-0.241,3.024-0.659,5.222-1.25,6.59
		c-0.592,1.369-1.438,2.051-2.542,2.051c-0.304,0-0.575-0.042-0.816-0.133v-1.354c0.21,0.115,0.445,0.172,0.707,0.172
		c1.361,0,2.239-2.886,2.629-8.66h5L-154.972-7.702L-154.972-7.702z"/>
	<path fill="#FFFFFF" d="M-143.916-7.702h-1.367v-7.852c-0.118,0.234-0.328,0.623-0.633,1.16l-4.392,6.692h-1.58v-9.844h1.385v7.759
		l0.502-0.943l4.506-6.815h1.58L-143.916-7.702L-143.916-7.702z"/>
	<path fill="#FFFFFF" d="M-132.86-7.702h-1.366v-7.852c-0.115,0.234-0.326,0.623-0.631,1.16l-4.393,6.692h-1.58v-9.844h1.385v7.759
		l0.5-0.943l4.506-6.815h1.58L-132.86-7.702L-132.86-7.702z M-133.417-22.332c-0.038,0.436-0.143,0.834-0.321,1.191
		c-0.176,0.359-0.41,0.667-0.702,0.922c-0.292,0.255-0.635,0.456-1.025,0.597c-0.395,0.14-0.825,0.211-1.295,0.211
		c-0.477,0-0.911-0.069-1.303-0.207c-0.391-0.139-0.727-0.334-1.012-0.587c-0.286-0.253-0.508-0.56-0.674-0.917
		c-0.164-0.361-0.261-0.762-0.285-1.21h1.496c0.02,0.249,0.061,0.484,0.124,0.702c0.067,0.218,0.167,0.41,0.309,0.572
		c0.138,0.167,0.317,0.293,0.537,0.39c0.22,0.097,0.496,0.146,0.823,0.146c0.287,0,0.534-0.053,0.749-0.15
		c0.214-0.1,0.395-0.232,0.543-0.399c0.149-0.166,0.266-0.358,0.35-0.576c0.084-0.22,0.138-0.447,0.162-0.683L-133.417-22.332
		L-133.417-22.332z"/>
	<path fill="#FFFFFF" d="M-123.364-8.152c-0.738,0.458-1.607,0.69-2.612,0.69c-0.866,0-1.644-0.206-2.336-0.619
		c-0.688-0.413-1.229-0.999-1.613-1.754c-0.383-0.757-0.576-1.604-0.576-2.547c0-1.629,0.451-2.936,1.352-3.921
		c0.903-0.986,2.103-1.481,3.6-1.481c0.832,0,1.564,0.167,2.204,0.5v1.614c-0.71-0.513-1.466-0.769-2.266-0.769
		c-0.985,0-1.782,0.366-2.401,1.094c-0.616,0.725-0.925,1.665-0.925,2.818c0,1.149,0.292,2.054,0.876,2.72
		c0.588,0.666,1.373,1,2.356,1c0.83,0,1.61-0.282,2.343-0.845v1.5H-123.364z"/>
	<path fill="#FFFFFF" d="M-113.201-7.702h-2.117l-4.182-4.7h-0.036v4.7h-1.522v-9.844h1.522v4.488h0.036l3.995-4.488h2.016
		l-4.431,4.77L-113.201-7.702z"/>
	<path fill="#FFFFFF" d="M-103.667-7.702h-1.367v-7.852c-0.119,0.234-0.329,0.623-0.632,1.16l-4.395,6.692h-1.58v-9.844h1.385v7.759
		l0.5-0.943l4.508-6.815h1.579L-103.667-7.702L-103.667-7.702z"/>
	<path fill="#FFFFFF" d="M-92.609-7.702h-1.367v-7.852c-0.118,0.234-0.329,0.623-0.633,1.16l-4.392,6.692h-1.582v-9.844h1.388v7.759
		l0.498-0.943l4.508-6.815h1.582L-92.609-7.702L-92.609-7.702z M-93.17-22.332c-0.035,0.436-0.143,0.834-0.319,1.191
		c-0.176,0.359-0.412,0.667-0.702,0.922c-0.292,0.255-0.633,0.456-1.024,0.597c-0.395,0.14-0.828,0.211-1.298,0.211
		c-0.477,0-0.91-0.069-1.299-0.207c-0.393-0.139-0.731-0.334-1.015-0.587c-0.285-0.253-0.509-0.56-0.674-0.917
		c-0.163-0.361-0.257-0.762-0.283-1.21h1.494c0.021,0.249,0.064,0.484,0.127,0.702c0.066,0.218,0.166,0.41,0.307,0.572
		c0.14,0.167,0.322,0.293,0.54,0.39c0.218,0.097,0.495,0.146,0.823,0.146c0.284,0,0.534-0.053,0.746-0.15
		c0.215-0.1,0.396-0.232,0.545-0.399c0.148-0.166,0.263-0.358,0.349-0.576c0.083-0.22,0.137-0.447,0.162-0.683L-93.17-22.332
		L-93.17-22.332z"/>
	<path fill="#FFFFFF" d="M-180.625,8.375c0,0.983-0.184,1.863-0.551,2.626c-0.369,0.766-0.89,1.351-1.56,1.766
		c-0.674,0.409-1.446,0.611-2.32,0.611c-1.46,0-2.586-0.539-3.377-1.611c-0.789-1.078-1.186-2.619-1.186-4.617
		c0-3.927,0.928-6.351,2.78-7.278c0.329-0.158,0.71-0.292,1.146-0.403c0.438-0.11,0.887-0.211,1.348-0.308
		c0.461-0.098,0.913-0.199,1.356-0.3c0.445-0.109,0.833-0.247,1.167-0.412v1.479c-0.29,0.158-0.636,0.285-1.031,0.373
		c-0.396,0.093-0.803,0.172-1.222,0.244c-0.417,0.071-0.827,0.146-1.217,0.234c-0.393,0.084-0.733,0.212-1.018,0.369
		c-0.972,0.539-1.543,1.883-1.71,4.04h0.038c0.33-0.526,0.782-0.938,1.358-1.232c0.575-0.294,1.183-0.44,1.821-0.44
		c0.824,0,1.554,0.199,2.188,0.598c0.635,0.402,1.124,0.974,1.471,1.724C-180.798,6.584-180.625,7.428-180.625,8.375z
		 M-182.184,8.536c0-1.128-0.266-2.025-0.8-2.688c-0.532-0.662-1.254-0.994-2.164-0.994c-1.276,0-2.24,0.627-2.889,1.882
		l-0.02,0.911c0,1.343,0.27,2.409,0.81,3.197c0.539,0.793,1.281,1.188,2.23,1.188c0.836,0,1.516-0.324,2.043-0.971
		C-182.448,10.413-182.184,9.574-182.184,8.536z"/>
	<path fill="#FFFFFF" d="M-170.674,8.611h-6.717c0.023,1.108,0.308,1.954,0.85,2.542c0.541,0.588,1.294,0.88,2.253,0.88
		c1.077,0,2.06-0.356,2.946-1.074v1.467c-0.831,0.637-1.935,0.954-3.308,0.954c-1.357,0-2.416-0.453-3.177-1.357
		c-0.762-0.907-1.143-2.163-1.143-3.763c0-0.974,0.19-1.865,0.571-2.67c0.381-0.804,0.905-1.428,1.574-1.868
		c0.668-0.442,1.412-0.662,2.229-0.662c1.231,0,2.193,0.41,2.886,1.243c0.689,0.831,1.036,1.992,1.036,3.485L-170.674,8.611
		L-170.674,8.611z M-172.233,7.278c-0.014-0.91-0.226-1.617-0.638-2.121c-0.41-0.506-0.994-0.755-1.74-0.755
		c-0.707,0-1.311,0.262-1.813,0.786c-0.5,0.524-0.815,1.224-0.946,2.084L-172.233,7.278L-172.233,7.278z"/>
	<path fill="#FFFFFF" d="M-162.302,10.438c0,0.907-0.355,1.628-1.069,2.156c-0.711,0.524-1.668,0.784-2.87,0.784
		c-1.305,0-2.307-0.171-3.001-0.517v-1.545c0.824,0.479,1.794,0.717,2.909,0.717c1.68,0,2.518-0.549,2.518-1.652
		c0-1.09-0.921-1.631-2.76-1.631h-0.937V7.411h0.891c1.617,0,2.426-0.518,2.426-1.556c0-0.442-0.186-0.796-0.553-1.057
		c-0.37-0.265-0.878-0.393-1.53-0.393c-0.921,0-1.848,0.24-2.777,0.719v-1.47c1.059-0.398,2.024-0.595,2.897-0.595
		c2.319,0,3.476,0.88,3.476,2.645c0,0.58-0.176,1.079-0.53,1.495c-0.353,0.416-0.828,0.679-1.43,0.8v0.049
		c0.711,0.07,1.28,0.318,1.705,0.751C-162.511,9.23-162.302,9.781-162.302,10.438z"/>
	<path fill="#FFFFFF" d="M-146.776,7.918c0,1.666-0.394,2.997-1.182,3.981c-0.787,0.986-1.839,1.48-3.16,1.48
		c-1.251,0-2.201-0.551-2.852-1.653h-0.038v5.942h-1.522V3.299h1.522v1.73h0.038c0.75-1.314,1.847-1.97,3.289-1.97
		c1.189,0,2.137,0.437,2.843,1.308C-147.131,5.236-146.776,6.42-146.776,7.918z M-148.339,7.902c0-1.064-0.241-1.914-0.724-2.549
		c-0.483-0.635-1.149-0.948-1.999-0.948c-0.873,0-1.581,0.31-2.125,0.938c-0.545,0.629-0.819,1.429-0.819,2.408v1.372
		c0,0.825,0.263,1.517,0.785,2.076c0.524,0.561,1.169,0.836,1.937,0.836c0.916,0,1.636-0.366,2.162-1.094
		C-148.6,10.206-148.339,9.195-148.339,7.902z"/>
	<path fill="#FFFFFF" d="M-136.846,8.611h-6.716c0.025,1.108,0.309,1.954,0.85,2.542c0.544,0.588,1.294,0.88,2.253,0.88
		c1.076,0,2.061-0.356,2.945-1.074v1.467c-0.83,0.637-1.934,0.954-3.308,0.954c-1.355,0-2.415-0.453-3.176-1.357
		c-0.764-0.907-1.143-2.163-1.143-3.763c0-0.974,0.19-1.865,0.571-2.67c0.382-0.804,0.907-1.428,1.577-1.868
		c0.67-0.442,1.413-0.662,2.229-0.662c1.232,0,2.196,0.41,2.885,1.243c0.69,0.831,1.034,1.992,1.034,3.485L-136.846,8.611
		L-136.846,8.611z M-138.408,7.278c-0.011-0.91-0.223-1.617-0.636-2.121c-0.413-0.506-0.991-0.755-1.741-0.755
		c-0.708,0-1.311,0.262-1.813,0.786c-0.501,0.524-0.816,1.224-0.948,2.084L-138.408,7.278L-138.408,7.278z"/>
	<path fill="#FFFFFF" d="M-129.329,4.635h-3.766v8.502h-1.523V3.297h5.288L-129.329,4.635L-129.329,4.635z"/>
	<path fill="#FFFFFF" d="M-119.352,13.137h-1.363V5.288c-0.118,0.236-0.331,0.624-0.634,1.161l-4.393,6.688h-1.581V3.297h1.385
		v7.755l0.5-0.94l4.507-6.815h1.579L-119.352,13.137L-119.352,13.137z"/>
	<path fill="#FFFFFF" d="M-109.856,12.688c-0.734,0.462-1.607,0.693-2.609,0.693c-0.87,0-1.648-0.208-2.339-0.619
		c-0.69-0.413-1.227-0.999-1.611-1.754c-0.384-0.756-0.576-1.601-0.576-2.546c0-1.629,0.451-2.932,1.353-3.925
		c0.9-0.984,2.102-1.476,3.599-1.476c0.831,0,1.564,0.167,2.204,0.5v1.613c-0.712-0.514-1.47-0.767-2.267-0.767
		c-0.983,0-1.784,0.365-2.4,1.088c-0.618,0.731-0.925,1.669-0.925,2.822c0,1.145,0.293,2.052,0.878,2.72
		c0.585,0.667,1.371,1.001,2.354,1.001c0.83,0,1.61-0.279,2.342-0.847L-109.856,12.688L-109.856,12.688z"/>
	<path fill="#FFFFFF" d="M-101.578,4.635h-2.851v8.502h-1.525V4.635h-2.852V3.297h7.228V4.635L-101.578,4.635z"/>
	<path fill="#FFFFFF" d="M-90.995,7.918c0,1.666-0.393,2.997-1.181,3.981c-0.784,0.986-1.838,1.48-3.157,1.48
		c-1.25,0-2.203-0.551-2.852-1.653h-0.038v5.942h-1.524V3.299h1.524v1.73h0.038c0.75-1.314,1.845-1.97,3.29-1.97
		c1.189,0,2.136,0.437,2.844,1.308C-91.348,5.236-90.995,6.42-90.995,7.918z M-92.558,7.902c0-1.064-0.241-1.914-0.725-2.549
		c-0.482-0.635-1.147-0.948-1.997-0.948c-0.874,0-1.581,0.31-2.125,0.938c-0.546,0.629-0.818,1.429-0.818,2.408v1.372
		c0,0.825,0.26,1.517,0.785,2.076c0.523,0.561,1.167,0.836,1.936,0.836c0.917,0,1.637-0.366,2.159-1.094
		C-92.817,10.206-92.558,9.195-92.558,7.902z"/>
	<path fill="#FFFFFF" d="M-82.15,13.137h-1.522v-1.534h-0.037c-0.664,1.18-1.638,1.775-2.927,1.775c-0.915,0-1.65-0.257-2.202-0.772
		c-0.552-0.516-0.829-1.208-0.829-2.082c0-1.832,1.048-2.902,3.142-3.212l2.853-0.412c0-1.666-0.655-2.5-1.963-2.5
		c-1.144,0-2.178,0.401-3.103,1.199V3.988c0.279-0.219,0.755-0.427,1.432-0.629c0.675-0.202,1.275-0.306,1.803-0.306
		c2.237,0,3.354,1.227,3.354,3.68L-82.15,13.137L-82.15,13.137z M-83.673,8.161l-2.304,0.335c-0.787,0.115-1.338,0.311-1.654,0.581
		c-0.315,0.272-0.472,0.712-0.472,1.325c0,0.493,0.169,0.886,0.509,1.185c0.339,0.299,0.778,0.446,1.312,0.446
		c0.754,0,1.378-0.271,1.871-0.825c0.492-0.552,0.738-1.241,0.738-2.066V8.161z"/>
	<path fill="#FFFFFF" d="M-69.979,16.725h-1.314v-3.585h-7.985v-9.84h1.523v8.5h4.846v-8.5h1.529v8.5h1.399L-69.979,16.725
		L-69.979,16.725z"/>
	<path fill="#FFFFFF" d="M-59.891,13.137h-1.365V5.288c-0.116,0.236-0.328,0.624-0.632,1.161l-4.395,6.688h-1.58V3.297h1.383v7.755
		l0.502-0.94l4.506-6.815h1.579L-59.891,13.137L-59.891,13.137z"/>
	<path fill="#FFFFFF" d="M-48.834,13.137h-1.364V5.288c-0.121,0.236-0.33,0.624-0.634,1.161l-4.392,6.688h-1.582V3.297h1.386v7.755
		l0.5-0.94l4.506-6.815h1.579v9.839H-48.834z"/>
</g>
</svg>
