<?xml version="1.0" encoding="utf-8"?>
<!-- Generator: Adobe Illustrator 16.0.0, SVG Export Plug-In . SVG Version: 6.00 Build 0)  -->
<!DOCTYPE svg PUBLIC "-//W3C//DTD SVG 1.1//EN" "http://www.w3.org/Graphics/SVG/1.1/DTD/svg11.dtd">
<svg version="1.1" id="Layer_1" xmlns="http://www.w3.org/2000/svg" xmlns:xlink="http://www.w3.org/1999/xlink" x="0px" y="0px"
	 width="270px" height="40px" viewBox="0 0 270 40" enable-background="new 0 0 270 40" xml:space="preserve">
<g>
	<path fill="none" d="M270,39.99c0,0.005-0.004,0.01-0.01,0.01H0.011C0.005,40,0,39.996,0,39.99V0.01C0,0.005,0.005,0,0.011,0
		H269.99c0.006,0,0.01,0.004,0.01,0.01V39.99z"/>
</g>
<g id="Layer_1_1_">
</g>
<g>
	<path fill="#FFFFFF" d="M21.221,25.205c0,0.078-0.026,0.137-0.078,0.176c-0.052,0.039-0.124,0.068-0.215,0.088
		c-0.091,0.021-0.226,0.029-0.4,0.029c-0.169,0-0.305-0.01-0.406-0.029c-0.101-0.019-0.174-0.049-0.22-0.088
		c-0.045-0.039-0.067-0.098-0.067-0.176v-0.88c-0.385,0.41-0.814,0.73-1.286,0.958c-0.473,0.229-0.973,0.342-1.5,0.342
		c-0.463,0-0.882-0.062-1.256-0.181c-0.375-0.12-0.695-0.295-0.957-0.523c-0.265-0.229-0.469-0.508-0.616-0.841S14,23.369,14,22.944
		c0-0.495,0.101-0.926,0.303-1.29c0.202-0.365,0.493-0.669,0.871-0.91c0.377-0.241,0.84-0.421,1.387-0.542
		c0.547-0.12,1.163-0.181,1.848-0.181h1.212v-0.686c0-0.339-0.037-0.639-0.107-0.899c-0.071-0.262-0.188-0.479-0.348-0.65
		c-0.159-0.172-0.366-0.304-0.62-0.391c-0.254-0.088-0.567-0.132-0.939-0.132c-0.397,0-0.754,0.047-1.069,0.142
		c-0.317,0.095-0.593,0.199-0.832,0.313c-0.237,0.115-0.436,0.22-0.596,0.313c-0.159,0.095-0.279,0.142-0.356,0.142
		c-0.052,0-0.098-0.013-0.137-0.039c-0.039-0.025-0.072-0.064-0.103-0.116c-0.028-0.053-0.051-0.119-0.063-0.201
		c-0.013-0.081-0.02-0.171-0.02-0.27c0-0.163,0.011-0.292,0.034-0.386c0.021-0.094,0.079-0.184,0.166-0.269
		c0.088-0.085,0.24-0.185,0.455-0.299c0.215-0.113,0.463-0.219,0.742-0.313c0.28-0.095,0.587-0.173,0.919-0.235
		c0.331-0.062,0.667-0.093,1.006-0.093c0.632,0,1.169,0.072,1.613,0.215c0.444,0.144,0.802,0.354,1.075,0.63
		c0.273,0.278,0.473,0.622,0.596,1.032c0.124,0.411,0.186,0.89,0.186,1.438V25.205L21.221,25.205z M19.618,21.185H18.24
		c-0.443,0-0.827,0.039-1.153,0.112c-0.326,0.076-0.597,0.187-0.812,0.333c-0.215,0.146-0.373,0.323-0.474,0.528
		c-0.102,0.206-0.151,0.442-0.151,0.709c0,0.457,0.146,0.819,0.435,1.09s0.695,0.406,1.217,0.406c0.423,0,0.816-0.107,1.177-0.323
		c0.361-0.215,0.742-0.544,1.139-0.988V21.185z"/>
	<path fill="#FFFFFF" d="M31.895,25.194c0,0.053-0.014,0.098-0.039,0.133c-0.026,0.036-0.07,0.066-0.128,0.093
		c-0.059,0.026-0.139,0.045-0.245,0.06c-0.104,0.013-0.234,0.02-0.391,0.02c-0.162,0-0.295-0.006-0.4-0.02
		c-0.105-0.015-0.186-0.033-0.245-0.06s-0.101-0.057-0.127-0.093c-0.025-0.035-0.038-0.08-0.038-0.133v-3.862h-4.488v3.862
		c0,0.053-0.013,0.098-0.039,0.133c-0.025,0.036-0.067,0.066-0.126,0.093s-0.139,0.045-0.245,0.06c-0.104,0.013-0.237,0.02-0.4,0.02
		c-0.157,0-0.287-0.006-0.391-0.02s-0.188-0.033-0.25-0.06c-0.063-0.026-0.104-0.057-0.127-0.093
		c-0.022-0.035-0.034-0.08-0.034-0.133v-8.801c0-0.053,0.012-0.097,0.034-0.133c0.023-0.035,0.065-0.068,0.127-0.098
		c0.062-0.03,0.145-0.049,0.25-0.059c0.104-0.011,0.234-0.016,0.391-0.016c0.163,0,0.296,0.005,0.4,0.016
		c0.104,0.009,0.186,0.028,0.245,0.059c0.059,0.029,0.102,0.063,0.126,0.098c0.026,0.036,0.039,0.08,0.039,0.133v3.58h4.488v-3.58
		c0-0.053,0.013-0.097,0.038-0.133c0.027-0.035,0.068-0.068,0.127-0.098c0.059-0.03,0.14-0.049,0.245-0.059
		c0.104-0.011,0.239-0.016,0.4-0.016c0.157,0,0.287,0.005,0.391,0.016c0.104,0.009,0.186,0.028,0.245,0.059
		c0.059,0.029,0.102,0.063,0.128,0.098c0.024,0.036,0.039,0.08,0.039,0.133V25.194z"/>
	<path fill="#FFFFFF" d="M40.133,16.863c0,0.13-0.008,0.241-0.024,0.333c-0.017,0.091-0.039,0.166-0.068,0.225
		c-0.03,0.06-0.063,0.102-0.098,0.127c-0.037,0.026-0.08,0.039-0.131,0.039h-3.313v7.608c0,0.053-0.013,0.098-0.039,0.133
		c-0.026,0.036-0.068,0.066-0.127,0.093s-0.141,0.045-0.245,0.06c-0.104,0.013-0.238,0.02-0.401,0.02
		c-0.157,0-0.286-0.006-0.392-0.02c-0.104-0.014-0.188-0.033-0.248-0.06c-0.063-0.026-0.105-0.057-0.128-0.093
		c-0.022-0.035-0.033-0.08-0.033-0.133v-8.479c0-0.194,0.043-0.34,0.131-0.435c0.089-0.095,0.21-0.142,0.368-0.142h4.427
		c0.052,0,0.096,0.014,0.131,0.044c0.036,0.028,0.068,0.074,0.098,0.137c0.029,0.062,0.052,0.137,0.068,0.224
		C40.125,16.632,40.133,16.739,40.133,16.863z"/>
	<path fill="#FFFFFF" d="M48.236,25.194c0,0.053-0.013,0.098-0.039,0.133c-0.026,0.036-0.067,0.066-0.126,0.093
		s-0.141,0.045-0.245,0.06c-0.104,0.013-0.235,0.02-0.391,0.02c-0.163,0-0.297-0.006-0.4-0.02c-0.104-0.014-0.188-0.033-0.25-0.06
		c-0.063-0.026-0.105-0.057-0.131-0.093c-0.027-0.035-0.039-0.08-0.039-0.133v-7.687H44.19c-0.104,1.037-0.23,1.959-0.376,2.769
		c-0.146,0.808-0.312,1.512-0.494,2.112c-0.182,0.6-0.387,1.104-0.615,1.516c-0.228,0.41-0.478,0.742-0.747,0.992
		c-0.271,0.252-0.563,0.433-0.879,0.543c-0.317,0.111-0.655,0.166-1.013,0.166c-0.059,0-0.109-0.01-0.152-0.028
		c-0.042-0.021-0.076-0.056-0.102-0.107c-0.026-0.052-0.046-0.125-0.059-0.22c-0.013-0.094-0.021-0.217-0.021-0.367
		c0-0.156,0.006-0.283,0.016-0.381c0.008-0.098,0.025-0.176,0.047-0.234c0.023-0.06,0.053-0.099,0.088-0.117
		c0.036-0.021,0.079-0.029,0.132-0.029c0.214,0,0.421-0.051,0.615-0.151c0.196-0.101,0.378-0.268,0.548-0.5
		c0.169-0.23,0.329-0.534,0.479-0.909c0.15-0.375,0.287-0.836,0.411-1.384c0.124-0.547,0.24-1.187,0.351-1.92
		c0.111-0.733,0.215-1.576,0.313-2.528c0.013-0.195,0.06-0.34,0.142-0.436c0.082-0.094,0.197-0.142,0.348-0.142h4.515
		c0.157,0,0.279,0.047,0.367,0.142c0.088,0.096,0.132,0.24,0.132,0.436V25.194L48.236,25.194z"/>
	<path fill="#FFFFFF" d="M59.056,25.205c0,0.046-0.013,0.088-0.039,0.127s-0.069,0.069-0.128,0.092
		c-0.058,0.023-0.141,0.041-0.245,0.054c-0.104,0.014-0.234,0.021-0.391,0.021c-0.156,0-0.286-0.006-0.391-0.021
		c-0.104-0.013-0.189-0.03-0.254-0.054c-0.065-0.022-0.111-0.053-0.137-0.092c-0.026-0.04-0.039-0.082-0.039-0.127V20.14
		c0-0.255,0.006-0.514,0.02-0.778c0.013-0.264,0.029-0.523,0.049-0.777c-0.15,0.262-0.315,0.518-0.494,0.769
		c-0.18,0.251-0.36,0.5-0.542,0.748l-3.733,5.104c-0.045,0.052-0.086,0.099-0.123,0.137c-0.037,0.039-0.082,0.07-0.137,0.093
		c-0.057,0.022-0.125,0.039-0.21,0.049c-0.084,0.011-0.188,0.016-0.312,0.016c-0.144,0-0.261-0.006-0.352-0.02
		c-0.091-0.015-0.166-0.031-0.221-0.055c-0.054-0.021-0.093-0.053-0.117-0.092c-0.022-0.04-0.034-0.082-0.034-0.127v-8.822
		c0-0.045,0.012-0.088,0.034-0.127c0.023-0.039,0.065-0.071,0.127-0.098c0.062-0.026,0.144-0.044,0.25-0.054
		c0.104-0.01,0.23-0.016,0.38-0.016c0.313,0,0.528,0.024,0.645,0.074c0.117,0.048,0.176,0.122,0.176,0.22v5.095
		c0,0.254-0.006,0.508-0.019,0.759c-0.014,0.251-0.029,0.501-0.049,0.749c0.15-0.248,0.301-0.49,0.455-0.729
		c0.152-0.237,0.318-0.471,0.494-0.698l3.782-5.174c0.039-0.052,0.079-0.098,0.123-0.137c0.042-0.039,0.093-0.069,0.156-0.093
		c0.062-0.022,0.136-0.039,0.221-0.048c0.084-0.01,0.194-0.016,0.332-0.016c0.137,0,0.251,0.006,0.346,0.016
		c0.095,0.009,0.169,0.026,0.226,0.054c0.056,0.026,0.095,0.06,0.117,0.098c0.022,0.039,0.034,0.086,0.034,0.138L59.056,25.205
		L59.056,25.205z"/>
	<path fill="#FFFFFF" d="M69.875,25.205c0,0.046-0.013,0.088-0.039,0.127c-0.026,0.039-0.067,0.069-0.126,0.092
		c-0.059,0.023-0.142,0.041-0.245,0.054c-0.105,0.014-0.235,0.021-0.391,0.021c-0.157,0-0.287-0.006-0.392-0.021
		c-0.104-0.013-0.188-0.03-0.253-0.054c-0.066-0.022-0.112-0.053-0.137-0.092c-0.026-0.04-0.039-0.082-0.039-0.127V20.14
		c0-0.255,0.004-0.514,0.019-0.778c0.014-0.264,0.03-0.523,0.05-0.777c-0.15,0.262-0.315,0.518-0.494,0.769
		c-0.178,0.251-0.359,0.5-0.541,0.748l-3.734,5.104c-0.045,0.052-0.086,0.099-0.123,0.137c-0.036,0.039-0.082,0.07-0.137,0.093
		c-0.055,0.022-0.124,0.039-0.209,0.049c-0.085,0.011-0.189,0.016-0.313,0.016c-0.145,0-0.261-0.006-0.352-0.02
		c-0.091-0.015-0.165-0.031-0.221-0.055c-0.054-0.021-0.093-0.053-0.116-0.092c-0.024-0.04-0.034-0.082-0.034-0.127v-8.822
		c0-0.045,0.01-0.088,0.034-0.127c0.022-0.039,0.065-0.071,0.126-0.098s0.145-0.044,0.249-0.054s0.232-0.016,0.382-0.016
		c0.312,0,0.527,0.024,0.645,0.074c0.117,0.048,0.176,0.122,0.176,0.22v5.095c0,0.254-0.007,0.508-0.02,0.759
		c-0.013,0.251-0.03,0.501-0.05,0.749c0.15-0.248,0.301-0.49,0.455-0.729c0.152-0.237,0.318-0.471,0.494-0.698l3.783-5.174
		c0.039-0.052,0.079-0.098,0.123-0.137c0.041-0.039,0.094-0.069,0.157-0.093c0.061-0.022,0.135-0.039,0.22-0.048
		c0.083-0.01,0.195-0.016,0.332-0.016c0.137,0,0.251,0.006,0.347,0.016c0.093,0.009,0.169,0.026,0.225,0.054
		c0.056,0.026,0.094,0.06,0.117,0.098c0.022,0.039,0.036,0.086,0.036,0.138v8.808H69.875z M69.015,12.236
		c0,0.372-0.055,0.721-0.165,1.047c-0.111,0.326-0.287,0.611-0.528,0.855s-0.551,0.438-0.929,0.577
		c-0.377,0.141-0.837,0.21-1.378,0.21c-0.495,0-0.93-0.062-1.305-0.186c-0.375-0.124-0.688-0.301-0.938-0.533
		c-0.252-0.23-0.441-0.514-0.567-0.846c-0.129-0.333-0.19-0.708-0.19-1.125c0-0.065,0.01-0.121,0.034-0.166
		c0.022-0.046,0.065-0.082,0.126-0.107c0.063-0.025,0.143-0.046,0.246-0.059c0.101-0.013,0.222-0.021,0.366-0.021
		c0.156,0,0.28,0.009,0.371,0.024c0.092,0.017,0.162,0.041,0.21,0.074c0.05,0.032,0.082,0.075,0.098,0.127s0.023,0.114,0.023,0.186
		c0,0.208,0.033,0.401,0.098,0.577s0.166,0.33,0.299,0.46c0.134,0.13,0.295,0.231,0.485,0.303c0.188,0.072,0.406,0.107,0.653,0.107
		c0.241,0,0.455-0.036,0.64-0.107c0.187-0.071,0.345-0.173,0.474-0.303c0.131-0.13,0.229-0.287,0.293-0.47
		c0.065-0.183,0.098-0.378,0.098-0.587c0-0.065,0.008-0.122,0.023-0.171c0.018-0.048,0.05-0.089,0.098-0.122
		c0.05-0.033,0.117-0.058,0.206-0.074c0.089-0.016,0.207-0.024,0.358-0.024c0.155,0,0.284,0.008,0.387,0.021
		c0.101,0.013,0.182,0.033,0.243,0.059c0.063,0.026,0.106,0.063,0.132,0.107C69.002,12.116,69.015,12.17,69.015,12.236z"/>
	<path fill="#FFFFFF" d="M79.19,23.854c0,0.111-0.003,0.207-0.011,0.289c-0.006,0.082-0.018,0.15-0.033,0.205
		c-0.018,0.057-0.038,0.105-0.059,0.147c-0.023,0.042-0.077,0.104-0.157,0.187c-0.082,0.082-0.22,0.183-0.416,0.303
		c-0.195,0.121-0.416,0.229-0.66,0.322c-0.245,0.096-0.51,0.172-0.796,0.23c-0.287,0.059-0.583,0.088-0.89,0.088
		c-0.631,0-1.192-0.104-1.68-0.313c-0.489-0.209-0.898-0.515-1.228-0.914c-0.33-0.401-0.58-0.894-0.751-1.479
		c-0.173-0.583-0.26-1.256-0.26-2.02c0-0.866,0.105-1.611,0.318-2.234c0.211-0.623,0.501-1.133,0.87-1.53
		c0.368-0.398,0.801-0.693,1.3-0.886c0.499-0.191,1.038-0.289,1.618-0.289c0.28,0,0.552,0.026,0.816,0.078
		c0.264,0.052,0.506,0.121,0.728,0.206s0.419,0.184,0.592,0.293c0.173,0.11,0.298,0.206,0.376,0.284
		c0.079,0.078,0.132,0.14,0.162,0.186c0.029,0.047,0.055,0.101,0.072,0.161c0.02,0.063,0.033,0.132,0.039,0.211
		c0.008,0.078,0.011,0.177,0.011,0.293c0,0.255-0.03,0.434-0.089,0.533c-0.058,0.103-0.129,0.152-0.214,0.152
		c-0.098,0-0.21-0.054-0.336-0.161c-0.128-0.108-0.29-0.227-0.483-0.357c-0.196-0.13-0.433-0.249-0.709-0.356
		c-0.277-0.107-0.604-0.161-0.982-0.161c-0.776,0-1.371,0.298-1.785,0.896c-0.415,0.596-0.62,1.462-0.62,2.595
		c0,0.566,0.054,1.064,0.161,1.492c0.107,0.426,0.266,0.783,0.475,1.07c0.208,0.287,0.463,0.501,0.767,0.641
		c0.302,0.142,0.65,0.211,1.041,0.211c0.371,0,0.697-0.06,0.978-0.176c0.279-0.117,0.522-0.246,0.727-0.387
		c0.207-0.141,0.378-0.268,0.519-0.381c0.14-0.114,0.25-0.171,0.327-0.171c0.045,0,0.084,0.013,0.118,0.039
		c0.033,0.026,0.059,0.069,0.083,0.132c0.021,0.063,0.039,0.14,0.047,0.234C79.184,23.612,79.19,23.726,79.19,23.854z"/>
	<path fill="#FFFFFF" d="M88.505,25.263c0,0.039-0.012,0.074-0.034,0.104c-0.024,0.029-0.065,0.054-0.128,0.074
		c-0.062,0.02-0.143,0.033-0.243,0.043c-0.102,0.011-0.229,0.016-0.387,0.016c-0.183,0-0.331-0.006-0.444-0.02
		c-0.115-0.014-0.208-0.031-0.279-0.055c-0.071-0.021-0.124-0.052-0.156-0.087c-0.033-0.036-0.056-0.077-0.068-0.123l-0.938-2.278
		c-0.117-0.293-0.242-0.547-0.375-0.758c-0.134-0.212-0.289-0.384-0.463-0.514c-0.176-0.13-0.376-0.225-0.598-0.284
		c-0.221-0.059-0.475-0.088-0.762-0.088h-0.684v3.961c0,0.033-0.017,0.065-0.048,0.099c-0.033,0.031-0.083,0.059-0.146,0.078
		c-0.065,0.02-0.15,0.035-0.254,0.049c-0.104,0.013-0.225,0.02-0.362,0.02s-0.257-0.006-0.361-0.02s-0.189-0.029-0.254-0.049
		c-0.065-0.021-0.112-0.047-0.142-0.078c-0.029-0.033-0.044-0.065-0.044-0.099v-8.938c0-0.033,0.016-0.063,0.044-0.093
		c0.029-0.03,0.076-0.055,0.142-0.073c0.065-0.021,0.15-0.035,0.254-0.044c0.104-0.01,0.224-0.016,0.361-0.016
		s0.256,0.006,0.362,0.016c0.104,0.009,0.189,0.023,0.254,0.044c0.065,0.02,0.115,0.043,0.146,0.073
		c0.032,0.028,0.048,0.06,0.048,0.093v3.688h0.684c0.249,0,0.474-0.027,0.68-0.083s0.394-0.146,0.563-0.273s0.32-0.292,0.454-0.494
		c0.134-0.202,0.256-0.447,0.368-0.733l0.82-2.024c0.013-0.053,0.037-0.099,0.07-0.138c0.032-0.039,0.082-0.071,0.146-0.098
		c0.065-0.026,0.151-0.044,0.259-0.054s0.25-0.016,0.424-0.016c0.157,0,0.285,0.006,0.387,0.016
		c0.101,0.009,0.178,0.023,0.235,0.044c0.055,0.02,0.092,0.043,0.112,0.073c0.02,0.028,0.03,0.06,0.03,0.093
		c0,0.059-0.01,0.121-0.025,0.186c-0.017,0.065-0.042,0.141-0.073,0.226l-0.84,1.937c-0.131,0.326-0.271,0.601-0.425,0.821
		c-0.153,0.222-0.308,0.406-0.464,0.553c-0.157,0.146-0.315,0.261-0.479,0.342c-0.163,0.082-0.319,0.145-0.469,0.19v0.021
		c0.228,0.078,0.438,0.173,0.631,0.284c0.191,0.111,0.372,0.248,0.538,0.411c0.167,0.163,0.32,0.356,0.464,0.582
		c0.144,0.226,0.276,0.483,0.4,0.778l0.968,2.229c0.026,0.046,0.046,0.088,0.059,0.127c0.013,0.04,0.022,0.077,0.03,0.112
		c0.006,0.037,0.012,0.066,0.014,0.089C88.502,25.224,88.505,25.244,88.505,25.263z"/>
	<path fill="#FFFFFF" d="M98.445,25.205c0,0.046-0.013,0.088-0.039,0.127s-0.068,0.069-0.126,0.092
		c-0.059,0.023-0.141,0.041-0.245,0.054c-0.104,0.014-0.235,0.021-0.391,0.021c-0.156,0-0.287-0.006-0.391-0.021
		c-0.104-0.014-0.189-0.03-0.254-0.054c-0.065-0.022-0.111-0.053-0.137-0.092c-0.026-0.04-0.039-0.082-0.039-0.127V20.14
		c0-0.255,0.006-0.514,0.02-0.778c0.013-0.264,0.03-0.523,0.05-0.777c-0.15,0.262-0.315,0.518-0.494,0.769
		c-0.179,0.251-0.36,0.5-0.542,0.748l-3.733,5.104c-0.045,0.052-0.086,0.099-0.123,0.137c-0.037,0.039-0.083,0.07-0.137,0.093
		c-0.057,0.022-0.125,0.039-0.21,0.049c-0.085,0.011-0.189,0.016-0.312,0.016c-0.144,0-0.261-0.006-0.354-0.02
		c-0.092-0.015-0.165-0.031-0.22-0.055c-0.054-0.021-0.093-0.053-0.117-0.092c-0.022-0.04-0.035-0.082-0.035-0.127v-8.822
		c0-0.045,0.012-0.088,0.035-0.127c0.023-0.039,0.065-0.071,0.126-0.098c0.063-0.026,0.145-0.044,0.25-0.054
		c0.104-0.01,0.23-0.016,0.38-0.016c0.313,0,0.528,0.024,0.645,0.074c0.117,0.048,0.176,0.122,0.176,0.22v5.095
		c0,0.254-0.006,0.508-0.02,0.759c-0.013,0.251-0.029,0.501-0.049,0.749c0.15-0.248,0.3-0.49,0.455-0.729
		c0.152-0.237,0.318-0.471,0.493-0.698l3.784-5.174c0.039-0.052,0.079-0.098,0.123-0.137c0.041-0.039,0.093-0.069,0.155-0.093
		c0.063-0.022,0.136-0.039,0.221-0.048c0.084-0.01,0.194-0.016,0.332-0.016c0.137,0,0.252,0.006,0.346,0.016
		c0.095,0.009,0.169,0.026,0.226,0.054c0.054,0.026,0.094,0.06,0.117,0.098c0.022,0.039,0.034,0.086,0.034,0.138L98.445,25.205
		L98.445,25.205z"/>
	<path fill="#FFFFFF" d="M109.264,25.205c0,0.046-0.013,0.088-0.039,0.127c-0.026,0.039-0.067,0.069-0.126,0.092
		c-0.059,0.023-0.141,0.041-0.244,0.054c-0.105,0.014-0.235,0.021-0.392,0.021c-0.156,0-0.287-0.006-0.391-0.021
		c-0.104-0.014-0.189-0.03-0.253-0.054c-0.066-0.022-0.112-0.053-0.138-0.092c-0.025-0.04-0.039-0.082-0.039-0.127V20.14
		c0-0.255,0.006-0.514,0.02-0.778c0.014-0.264,0.029-0.523,0.05-0.777c-0.15,0.262-0.316,0.518-0.494,0.769s-0.359,0.5-0.541,0.748
		l-3.734,5.104c-0.045,0.052-0.086,0.099-0.123,0.137c-0.036,0.039-0.082,0.07-0.137,0.093s-0.124,0.039-0.209,0.049
		c-0.085,0.011-0.189,0.016-0.313,0.016c-0.144,0-0.261-0.006-0.352-0.02c-0.092-0.014-0.166-0.031-0.221-0.055
		c-0.055-0.021-0.094-0.053-0.116-0.092c-0.023-0.04-0.034-0.082-0.034-0.127v-8.822c0-0.045,0.011-0.088,0.034-0.127
		c0.022-0.039,0.065-0.071,0.126-0.098c0.062-0.026,0.146-0.044,0.25-0.054s0.231-0.016,0.38-0.016c0.313,0,0.528,0.024,0.646,0.074
		c0.117,0.048,0.175,0.122,0.175,0.22v5.095c0,0.254-0.004,0.508-0.019,0.759c-0.013,0.251-0.029,0.501-0.049,0.749
		c0.15-0.248,0.301-0.49,0.455-0.729c0.152-0.237,0.318-0.471,0.494-0.698l3.783-5.174c0.039-0.052,0.079-0.098,0.123-0.137
		c0.042-0.039,0.093-0.069,0.156-0.093c0.062-0.022,0.135-0.039,0.22-0.048c0.084-0.01,0.195-0.016,0.332-0.016
		c0.137,0,0.251,0.006,0.347,0.016c0.093,0.009,0.169,0.026,0.225,0.054c0.056,0.026,0.095,0.06,0.117,0.098
		c0.022,0.039,0.035,0.086,0.035,0.138v8.808H109.264z M108.404,12.236c0,0.372-0.056,0.721-0.166,1.047
		c-0.111,0.326-0.287,0.611-0.528,0.855s-0.551,0.438-0.929,0.577c-0.377,0.141-0.836,0.21-1.378,0.21
		c-0.495,0-0.93-0.062-1.304-0.186c-0.375-0.124-0.688-0.301-0.938-0.533c-0.251-0.23-0.439-0.514-0.567-0.846
		c-0.128-0.333-0.19-0.708-0.19-1.125c0-0.065,0.011-0.121,0.034-0.166c0.022-0.046,0.065-0.082,0.126-0.107
		s0.143-0.046,0.245-0.059c0.101-0.013,0.223-0.021,0.366-0.021c0.156,0,0.28,0.009,0.372,0.024
		c0.091,0.017,0.162,0.041,0.209,0.074c0.049,0.032,0.083,0.075,0.098,0.127c0.018,0.052,0.024,0.114,0.024,0.186
		c0,0.208,0.033,0.401,0.098,0.577s0.166,0.33,0.299,0.46c0.133,0.13,0.294,0.231,0.484,0.303c0.188,0.072,0.406,0.107,0.653,0.107
		c0.241,0,0.455-0.036,0.642-0.107c0.186-0.071,0.344-0.173,0.474-0.303c0.128-0.13,0.228-0.287,0.292-0.47
		c0.065-0.183,0.098-0.378,0.098-0.587c0-0.065,0.008-0.122,0.025-0.171c0.017-0.048,0.048-0.089,0.098-0.122
		c0.049-0.033,0.117-0.058,0.205-0.074c0.087-0.016,0.207-0.024,0.358-0.024c0.155,0,0.284,0.008,0.385,0.021
		c0.1,0.013,0.182,0.033,0.243,0.059c0.063,0.026,0.106,0.063,0.132,0.107C108.391,12.116,108.404,12.17,108.404,12.236z"/>
	<path fill="#FFFFFF" d="M125.698,20.43c0,0.785-0.118,1.502-0.354,2.151c-0.235,0.648-0.57,1.203-1.003,1.66
		c-0.434,0.458-0.952,0.811-1.556,1.061c-0.604,0.249-1.276,0.374-2.012,0.374c-0.819,0-1.521-0.127-2.104-0.379
		c-0.584-0.252-1.063-0.633-1.444-1.143c-0.379-0.509-0.656-1.151-0.83-1.927c-0.174-0.774-0.261-1.686-0.261-2.729
		c0-0.758,0.039-1.472,0.118-2.142c0.078-0.669,0.195-1.282,0.349-1.839c0.153-0.558,0.343-1.045,0.568-1.466
		c0.226-0.42,0.457-0.757,0.696-1.009s0.472-0.456,0.697-0.609c0.226-0.154,0.474-0.29,0.747-0.41s0.577-0.225,0.911-0.313
		c0.336-0.089,0.701-0.164,1.097-0.226l3.255-0.471c0.123-0.015,0.225-0.018,0.303-0.011c0.078,0.007,0.138,0.046,0.179,0.118
		c0.041,0.072,0.067,0.186,0.081,0.338c0.014,0.154,0.021,0.368,0.021,0.642c0,0.19-0.007,0.356-0.021,0.497
		c-0.013,0.14-0.04,0.261-0.081,0.363c-0.041,0.103-0.098,0.184-0.17,0.241c-0.071,0.058-0.162,0.094-0.271,0.107l-3.011,0.45
		c-0.28,0.041-0.526,0.088-0.737,0.14c-0.212,0.051-0.398,0.108-0.558,0.174c-0.161,0.065-0.301,0.139-0.419,0.221
		c-0.119,0.082-0.237,0.182-0.354,0.297c-0.116,0.117-0.221,0.264-0.316,0.441s-0.177,0.373-0.245,0.584
		c-0.069,0.212-0.126,0.444-0.175,0.697c-0.047,0.253-0.091,0.516-0.132,0.789c0.184-0.191,0.391-0.367,0.619-0.527
		c0.229-0.16,0.473-0.297,0.732-0.41c0.259-0.113,0.533-0.201,0.825-0.266c0.29-0.065,0.596-0.099,0.916-0.099
		c0.668,0,1.25,0.106,1.746,0.318c0.494,0.212,0.904,0.519,1.228,0.917c0.324,0.399,0.566,0.885,0.728,1.455
		C125.618,19.059,125.698,19.706,125.698,20.43z M123.087,20.572c0-0.381-0.036-0.738-0.103-1.065
		c-0.068-0.327-0.178-0.61-0.329-0.851c-0.15-0.239-0.35-0.428-0.599-0.569c-0.249-0.14-0.547-0.21-0.896-0.21
		c-0.231,0-0.448,0.029-0.645,0.087c-0.199,0.059-0.391,0.146-0.579,0.262c-0.188,0.115-0.374,0.256-0.558,0.42
		C119.194,18.81,119,19,118.795,19.22c-0.006,0.081-0.009,0.171-0.009,0.267s0,0.195,0,0.297c0,0.643,0.037,1.2,0.112,1.674
		c0.074,0.475,0.196,0.87,0.364,1.184c0.167,0.314,0.385,0.547,0.655,0.697c0.271,0.15,0.6,0.227,0.989,0.227
		c0.349,0,0.658-0.067,0.933-0.2c0.273-0.134,0.502-0.328,0.687-0.584c0.184-0.257,0.324-0.57,0.419-0.942
		C123.04,21.466,123.087,21.043,123.087,20.572z"/>
	<path fill="#FFFFFF" d="M136.172,20.255c0,0.314-0.069,0.545-0.209,0.697c-0.141,0.15-0.333,0.225-0.579,0.225h-5.56
		c0,0.391,0.045,0.743,0.137,1.062c0.092,0.317,0.239,0.588,0.441,0.81c0.201,0.223,0.461,0.391,0.777,0.508
		c0.318,0.115,0.697,0.174,1.143,0.174c0.45,0,0.846-0.032,1.188-0.098c0.342-0.064,0.636-0.136,0.885-0.215
		c0.25-0.078,0.456-0.15,0.621-0.215c0.164-0.064,0.296-0.098,0.398-0.098c0.063,0,0.114,0.012,0.155,0.035
		c0.041,0.024,0.074,0.066,0.103,0.129c0.026,0.062,0.046,0.147,0.057,0.261c0.011,0.112,0.015,0.255,0.015,0.425
		c0,0.15-0.004,0.277-0.01,0.384c-0.007,0.106-0.017,0.197-0.03,0.271c-0.015,0.076-0.034,0.139-0.063,0.189
		c-0.027,0.051-0.063,0.102-0.106,0.149c-0.045,0.048-0.166,0.112-0.364,0.194c-0.197,0.082-0.45,0.162-0.757,0.24
		c-0.307,0.079-0.66,0.146-1.054,0.205c-0.396,0.059-0.82,0.087-1.27,0.087c-0.813,0-1.524-0.103-2.135-0.308
		c-0.612-0.205-1.122-0.516-1.532-0.934c-0.409-0.416-0.715-0.941-0.916-1.578c-0.202-0.635-0.303-1.379-0.303-2.233
		c0-0.812,0.105-1.544,0.317-2.198c0.211-0.651,0.519-1.206,0.922-1.659c0.403-0.454,0.892-0.801,1.469-1.04
		s1.228-0.358,1.951-0.358c0.765,0,1.418,0.113,1.96,0.338c0.543,0.226,0.989,0.538,1.336,0.938
		c0.349,0.398,0.604,0.873,0.768,1.419c0.165,0.547,0.247,1.141,0.247,1.782V20.255L136.172,20.255z M133.674,19.518
		c0.021-0.725-0.125-1.292-0.436-1.706c-0.311-0.413-0.791-0.62-1.438-0.62c-0.328,0-0.612,0.062-0.854,0.185
		s-0.443,0.289-0.603,0.497c-0.162,0.208-0.285,0.455-0.37,0.738c-0.083,0.284-0.135,0.586-0.147,0.907L133.674,19.518
		L133.674,19.518z"/>
	<path fill="#FFFFFF" d="M145.275,22.56c0,0.506-0.106,0.953-0.319,1.338c-0.21,0.386-0.508,0.711-0.891,0.979
		c-0.383,0.266-0.844,0.466-1.387,0.6c-0.542,0.133-1.151,0.199-1.827,0.199c-0.348,0-0.683-0.025-1.005-0.076
		c-0.321-0.052-0.614-0.117-0.884-0.195c-0.271-0.078-0.493-0.16-0.671-0.246c-0.177-0.086-0.305-0.16-0.383-0.227
		c-0.08-0.063-0.137-0.129-0.175-0.195c-0.038-0.063-0.066-0.137-0.088-0.219c-0.019-0.082-0.032-0.184-0.04-0.303
		c-0.007-0.119-0.009-0.265-0.009-0.436c0-0.157,0.007-0.283,0.021-0.379c0.015-0.096,0.031-0.174,0.057-0.236
		c0.024-0.063,0.053-0.104,0.086-0.128c0.035-0.024,0.075-0.036,0.125-0.036c0.087,0,0.201,0.042,0.34,0.128
		c0.143,0.085,0.319,0.179,0.534,0.276c0.215,0.1,0.478,0.193,0.79,0.281c0.31,0.09,0.683,0.133,1.12,0.133
		c0.3,0,0.564-0.03,0.794-0.092c0.227-0.061,0.418-0.147,0.574-0.261c0.153-0.112,0.27-0.251,0.348-0.415
		c0.077-0.164,0.117-0.348,0.117-0.553c0-0.191-0.04-0.362-0.113-0.512c-0.075-0.15-0.2-0.278-0.375-0.385
		c-0.173-0.104-0.402-0.186-0.686-0.24c-0.284-0.055-0.629-0.082-1.04-0.082h-0.98c-0.09,0-0.163-0.016-0.216-0.047
		c-0.057-0.03-0.099-0.08-0.132-0.148c-0.035-0.068-0.057-0.16-0.068-0.275c-0.01-0.117-0.015-0.257-0.015-0.419
		c0-0.157,0.008-0.288,0.021-0.395c0.012-0.105,0.035-0.189,0.066-0.251c0.03-0.061,0.073-0.104,0.123-0.133
		c0.052-0.027,0.113-0.041,0.191-0.041h0.952c0.366,0,0.686-0.027,0.95-0.082c0.267-0.055,0.484-0.135,0.656-0.241
		c0.171-0.105,0.294-0.236,0.374-0.39c0.078-0.154,0.118-0.333,0.118-0.538c0-0.178-0.038-0.336-0.113-0.478
		c-0.076-0.14-0.18-0.256-0.317-0.349c-0.137-0.092-0.302-0.16-0.496-0.205c-0.196-0.045-0.408-0.067-0.641-0.067
		c-0.39,0-0.734,0.044-1.039,0.129c-0.306,0.085-0.567,0.179-0.795,0.281c-0.224,0.103-0.411,0.194-0.558,0.276
		s-0.257,0.123-0.33,0.123c-0.043,0-0.081-0.008-0.114-0.025c-0.035-0.017-0.068-0.055-0.099-0.112
		c-0.031-0.059-0.055-0.14-0.071-0.241c-0.017-0.104-0.023-0.239-0.023-0.41c0-0.266,0.017-0.479,0.055-0.64
		c0.037-0.16,0.099-0.283,0.184-0.369c0.085-0.085,0.236-0.182,0.452-0.287c0.215-0.106,0.468-0.201,0.756-0.287
		c0.291-0.085,0.609-0.155,0.952-0.21c0.348-0.055,0.7-0.082,1.062-0.082c0.56,0,1.07,0.055,1.536,0.164
		c0.463,0.109,0.857,0.275,1.182,0.497c0.323,0.222,0.574,0.497,0.749,0.825c0.173,0.328,0.26,0.707,0.26,1.137
		c0,0.26-0.042,0.509-0.123,0.748c-0.082,0.239-0.198,0.456-0.35,0.649c-0.148,0.195-0.331,0.368-0.546,0.519
		s-0.463,0.267-0.744,0.349l-0.01,0.021c0.293,0.034,0.569,0.116,0.825,0.245c0.258,0.131,0.481,0.295,0.676,0.492
		c0.196,0.198,0.35,0.43,0.461,0.691C145.219,21.968,145.275,22.253,145.275,22.56z"/>
	<path fill="#FFFFFF" d="M160.065,20.657c0,0.77-0.083,1.46-0.251,2.072c-0.165,0.613-0.409,1.134-0.732,1.561
		c-0.319,0.427-0.721,0.757-1.196,0.988c-0.475,0.23-1.021,0.347-1.633,0.347c-0.26,0-0.501-0.026-0.723-0.078
		c-0.221-0.052-0.44-0.134-0.65-0.245c-0.213-0.111-0.423-0.251-0.631-0.42s-0.431-0.367-0.664-0.597v4.401
		c0,0.052-0.012,0.098-0.038,0.137c-0.025,0.039-0.068,0.07-0.128,0.098c-0.059,0.026-0.139,0.045-0.245,0.059
		c-0.104,0.014-0.236,0.021-0.399,0.021c-0.156,0-0.288-0.006-0.39-0.021c-0.104-0.014-0.189-0.032-0.251-0.059
		c-0.063-0.025-0.104-0.059-0.128-0.098c-0.023-0.04-0.033-0.085-0.033-0.137V16.393c0-0.06,0.01-0.105,0.028-0.143
		c0.021-0.036,0.06-0.066,0.119-0.093c0.057-0.026,0.132-0.044,0.224-0.054c0.09-0.011,0.201-0.016,0.331-0.016
		c0.138,0,0.251,0.005,0.338,0.016c0.088,0.009,0.161,0.026,0.22,0.054c0.06,0.026,0.1,0.057,0.123,0.093
		c0.021,0.036,0.033,0.083,0.033,0.143v1.184c0.27-0.273,0.524-0.512,0.772-0.714s0.497-0.37,0.75-0.503
		c0.248-0.134,0.508-0.235,0.77-0.304c0.265-0.068,0.544-0.104,0.837-0.104c0.638,0,1.182,0.124,1.631,0.372
		s0.815,0.587,1.102,1.017c0.281,0.432,0.486,0.932,0.619,1.502C159.999,19.414,160.065,20.019,160.065,20.657z M158.392,20.842
		c0-0.449-0.033-0.884-0.102-1.305c-0.068-0.42-0.189-0.794-0.354-1.12c-0.168-0.326-0.393-0.587-0.674-0.783
		c-0.283-0.194-0.633-0.293-1.052-0.293c-0.21,0-0.415,0.031-0.621,0.094c-0.201,0.062-0.409,0.159-0.617,0.293
		c-0.212,0.133-0.43,0.31-0.661,0.527c-0.229,0.219-0.471,0.487-0.726,0.808v3.5c0.446,0.541,0.867,0.955,1.269,1.242
		c0.399,0.287,0.82,0.43,1.258,0.43c0.409,0,0.756-0.098,1.047-0.293c0.293-0.194,0.527-0.457,0.709-0.781
		c0.18-0.326,0.312-0.691,0.399-1.096C158.35,21.661,158.392,21.253,158.392,20.842z"/>
	<path fill="#FFFFFF" d="M169.995,20.413c0,0.253-0.063,0.434-0.191,0.542c-0.127,0.106-0.271,0.161-0.437,0.161h-5.793
		c0,0.488,0.05,0.929,0.146,1.32c0.1,0.392,0.263,0.727,0.492,1.008c0.229,0.279,0.526,0.494,0.893,0.646
		c0.369,0.15,0.815,0.226,1.348,0.226c0.418,0,0.792-0.034,1.12-0.104c0.326-0.068,0.609-0.145,0.849-0.23
		c0.238-0.084,0.435-0.162,0.588-0.229c0.154-0.068,0.272-0.104,0.35-0.104c0.045,0,0.088,0.013,0.123,0.035
		c0.036,0.022,0.064,0.057,0.083,0.103c0.021,0.045,0.035,0.108,0.045,0.19s0.014,0.181,0.014,0.297c0,0.086-0.002,0.16-0.009,0.221
		c-0.007,0.063-0.015,0.118-0.026,0.166c-0.01,0.049-0.023,0.093-0.047,0.132c-0.021,0.039-0.053,0.077-0.088,0.113
		s-0.142,0.094-0.316,0.176s-0.404,0.161-0.686,0.239c-0.278,0.078-0.604,0.147-0.971,0.211c-0.369,0.062-0.762,0.092-1.18,0.092
		c-0.724,0-1.356-0.102-1.902-0.303c-0.544-0.202-1-0.502-1.373-0.899c-0.371-0.397-0.65-0.896-0.839-1.497
		c-0.189-0.6-0.284-1.297-0.284-2.093c0-0.755,0.098-1.435,0.293-2.04c0.194-0.603,0.476-1.115,0.844-1.535
		c0.369-0.421,0.813-0.743,1.336-0.969c0.52-0.225,1.104-0.337,1.748-0.337c0.69,0,1.279,0.111,1.764,0.333
		c0.486,0.222,0.886,0.521,1.198,0.896c0.314,0.375,0.543,0.814,0.689,1.319s0.218,1.045,0.218,1.619v0.294H169.995z
		 M168.372,19.934c0.019-0.849-0.168-1.514-0.565-1.996c-0.396-0.482-0.985-0.725-1.765-0.725c-0.399,0-0.752,0.075-1.052,0.226
		c-0.303,0.149-0.556,0.349-0.759,0.597s-0.359,0.536-0.471,0.866c-0.11,0.329-0.175,0.673-0.188,1.032H168.372z"/>
	<path fill="#FFFFFF" d="M177.697,16.863c0,0.13-0.01,0.241-0.025,0.333c-0.017,0.091-0.038,0.166-0.066,0.225
		c-0.031,0.06-0.064,0.102-0.1,0.127c-0.035,0.026-0.08,0.039-0.132,0.039h-3.312v7.608c0,0.053-0.014,0.098-0.04,0.133
		c-0.026,0.036-0.068,0.066-0.128,0.093c-0.057,0.026-0.139,0.045-0.243,0.06c-0.104,0.013-0.238,0.02-0.401,0.02
		c-0.156,0-0.286-0.006-0.391-0.02c-0.104-0.014-0.187-0.033-0.248-0.06c-0.063-0.026-0.106-0.057-0.127-0.093
		c-0.024-0.035-0.036-0.08-0.036-0.133v-8.479c0-0.194,0.045-0.34,0.133-0.435c0.09-0.095,0.21-0.142,0.366-0.142h4.429
		c0.052,0,0.097,0.014,0.133,0.044c0.035,0.028,0.068,0.074,0.097,0.137c0.03,0.062,0.052,0.137,0.068,0.224
		C177.688,16.632,177.697,16.739,177.697,16.863z"/>
	<path fill="#FFFFFF" d="M187.198,25.205c0,0.046-0.015,0.088-0.041,0.127c-0.025,0.039-0.065,0.069-0.125,0.092
		c-0.059,0.023-0.142,0.041-0.246,0.054c-0.104,0.014-0.233,0.021-0.39,0.021c-0.158,0-0.288-0.006-0.393-0.021
		c-0.104-0.013-0.188-0.03-0.253-0.054c-0.065-0.022-0.11-0.053-0.137-0.092c-0.025-0.04-0.04-0.082-0.04-0.127V20.14
		c0-0.255,0.01-0.514,0.021-0.778c0.012-0.264,0.028-0.523,0.05-0.777c-0.149,0.262-0.314,0.518-0.494,0.769s-0.361,0.5-0.541,0.748
		l-3.734,5.104c-0.045,0.052-0.088,0.099-0.12,0.137c-0.038,0.039-0.083,0.07-0.14,0.093c-0.055,0.022-0.125,0.039-0.211,0.049
		c-0.082,0.011-0.188,0.016-0.312,0.016c-0.145,0-0.26-0.006-0.353-0.02c-0.09-0.015-0.163-0.031-0.22-0.055
		c-0.057-0.021-0.094-0.053-0.118-0.092c-0.021-0.04-0.033-0.082-0.033-0.127v-8.822c0-0.045,0.013-0.088,0.033-0.127
		c0.024-0.039,0.066-0.071,0.128-0.098c0.063-0.026,0.146-0.044,0.251-0.054c0.104-0.01,0.231-0.016,0.38-0.016
		c0.313,0,0.527,0.024,0.646,0.074c0.118,0.048,0.177,0.122,0.177,0.22v5.095c0,0.254-0.007,0.508-0.021,0.759
		c-0.015,0.251-0.028,0.501-0.05,0.749c0.151-0.248,0.3-0.49,0.456-0.729c0.151-0.237,0.316-0.471,0.494-0.698l3.781-5.174
		c0.04-0.052,0.08-0.098,0.122-0.137c0.043-0.039,0.095-0.069,0.156-0.093c0.063-0.022,0.138-0.039,0.223-0.048
		c0.082-0.01,0.193-0.016,0.33-0.016c0.138,0,0.253,0.006,0.351,0.016c0.092,0.009,0.167,0.026,0.222,0.054
		c0.057,0.026,0.095,0.06,0.118,0.098c0.021,0.039,0.033,0.086,0.033,0.138v8.808H187.198z"/>
	<path fill="#FFFFFF" d="M196.512,23.854c0,0.111-0.003,0.207-0.01,0.289s-0.019,0.15-0.033,0.205
		c-0.019,0.057-0.038,0.105-0.059,0.147c-0.024,0.042-0.076,0.104-0.158,0.187c-0.081,0.082-0.22,0.183-0.416,0.303
		c-0.194,0.121-0.414,0.229-0.66,0.322c-0.243,0.096-0.51,0.172-0.796,0.23s-0.581,0.088-0.889,0.088
		c-0.631,0-1.191-0.104-1.681-0.313s-0.897-0.515-1.227-0.914c-0.33-0.401-0.583-0.894-0.754-1.479
		c-0.172-0.583-0.257-1.256-0.257-2.02c0-0.866,0.104-1.611,0.316-2.234c0.21-0.623,0.501-1.133,0.869-1.53
		c0.367-0.398,0.802-0.693,1.301-0.886c0.498-0.191,1.037-0.289,1.616-0.289c0.281,0,0.553,0.026,0.817,0.078
		c0.263,0.052,0.506,0.121,0.728,0.206c0.223,0.085,0.419,0.184,0.591,0.293c0.173,0.11,0.298,0.206,0.376,0.284
		s0.133,0.14,0.163,0.186c0.028,0.047,0.052,0.101,0.073,0.161c0.02,0.063,0.033,0.132,0.038,0.211
		c0.007,0.078,0.01,0.177,0.01,0.293c0,0.255-0.028,0.434-0.088,0.533c-0.059,0.103-0.13,0.152-0.215,0.152
		c-0.097,0-0.211-0.054-0.338-0.161c-0.125-0.108-0.288-0.227-0.482-0.357c-0.196-0.13-0.433-0.249-0.709-0.356
		s-0.603-0.161-0.983-0.161c-0.772,0-1.368,0.298-1.781,0.896c-0.416,0.596-0.622,1.462-0.622,2.595
		c0,0.566,0.055,1.064,0.161,1.492c0.108,0.426,0.267,0.783,0.475,1.07s0.464,0.501,0.769,0.641
		c0.303,0.142,0.649,0.211,1.042,0.211c0.371,0,0.697-0.06,0.976-0.176c0.281-0.117,0.522-0.246,0.73-0.387
		c0.203-0.141,0.376-0.268,0.518-0.381c0.14-0.114,0.251-0.171,0.329-0.171c0.045,0,0.082,0.013,0.115,0.039s0.06,0.069,0.083,0.132
		c0.021,0.063,0.04,0.14,0.047,0.234C196.507,23.612,196.512,23.726,196.512,23.854z"/>
	<path fill="#FFFFFF" d="M204.809,16.873c0,0.13-0.004,0.241-0.019,0.333c-0.014,0.091-0.033,0.167-0.063,0.226
		c-0.028,0.059-0.064,0.103-0.102,0.132c-0.04,0.029-0.09,0.044-0.146,0.044h-2.641v7.589c0,0.052-0.012,0.097-0.037,0.132
		c-0.028,0.036-0.068,0.067-0.128,0.093c-0.059,0.026-0.14,0.045-0.246,0.059c-0.104,0.015-0.238,0.021-0.399,0.021
		c-0.158,0-0.288-0.006-0.392-0.021c-0.104-0.013-0.188-0.032-0.248-0.059c-0.062-0.025-0.106-0.057-0.128-0.093
		c-0.023-0.035-0.035-0.08-0.035-0.132v-7.589h-2.638c-0.052,0-0.1-0.015-0.142-0.044c-0.045-0.029-0.078-0.073-0.104-0.132
		c-0.025-0.06-0.047-0.136-0.063-0.23c-0.017-0.094-0.023-0.207-0.023-0.337c0-0.117,0.009-0.222,0.023-0.313
		c0.017-0.091,0.04-0.167,0.07-0.229c0.028-0.063,0.064-0.108,0.103-0.137c0.04-0.03,0.085-0.044,0.137-0.044h6.892
		c0.052,0,0.099,0.014,0.142,0.044c0.042,0.028,0.078,0.074,0.102,0.137c0.025,0.062,0.047,0.14,0.063,0.234
		C204.802,16.649,204.809,16.754,204.809,16.873z"/>
	<path fill="#FFFFFF" d="M214.496,20.657c0,0.77-0.083,1.46-0.248,2.072c-0.168,0.613-0.411,1.134-0.735,1.561
		c-0.321,0.427-0.721,0.757-1.195,0.988c-0.478,0.23-1.021,0.347-1.633,0.347c-0.261,0-0.502-0.026-0.724-0.078
		s-0.439-0.134-0.649-0.245c-0.213-0.111-0.424-0.251-0.632-0.42s-0.43-0.367-0.664-0.597v4.401c0,0.052-0.012,0.098-0.037,0.137
		c-0.026,0.039-0.069,0.07-0.128,0.098c-0.06,0.026-0.14,0.045-0.246,0.059c-0.104,0.014-0.236,0.021-0.399,0.021
		c-0.155,0-0.288-0.006-0.39-0.021c-0.106-0.014-0.189-0.032-0.251-0.059c-0.063-0.025-0.104-0.059-0.127-0.098
		c-0.021-0.04-0.036-0.085-0.036-0.137V16.393c0-0.06,0.013-0.105,0.031-0.143c0.019-0.036,0.059-0.066,0.115-0.093
		c0.06-0.026,0.135-0.044,0.225-0.054c0.093-0.011,0.204-0.016,0.334-0.016c0.137,0,0.248,0.005,0.338,0.016
		c0.087,0.009,0.16,0.026,0.22,0.054c0.059,0.026,0.099,0.057,0.12,0.093c0.023,0.036,0.035,0.083,0.035,0.143v1.184
		c0.268-0.273,0.525-0.512,0.773-0.714c0.246-0.202,0.496-0.37,0.747-0.503c0.25-0.134,0.508-0.235,0.772-0.304
		c0.262-0.068,0.541-0.104,0.834-0.104c0.639,0,1.182,0.124,1.631,0.372s0.817,0.587,1.102,1.017
		c0.283,0.432,0.489,0.932,0.619,1.502C214.43,19.414,214.496,20.019,214.496,20.657z M212.825,20.842
		c0-0.449-0.035-0.884-0.104-1.305c-0.069-0.42-0.188-0.794-0.354-1.12c-0.166-0.326-0.393-0.587-0.674-0.783
		c-0.281-0.194-0.631-0.293-1.052-0.293c-0.208,0-0.416,0.031-0.619,0.094c-0.203,0.062-0.411,0.159-0.619,0.293
		c-0.211,0.133-0.431,0.31-0.659,0.527c-0.229,0.219-0.473,0.487-0.729,0.808v3.5c0.444,0.541,0.867,0.955,1.27,1.242
		c0.399,0.287,0.817,0.43,1.257,0.43c0.407,0,0.757-0.098,1.047-0.293c0.293-0.194,0.529-0.457,0.709-0.781
		c0.18-0.326,0.313-0.691,0.397-1.096C212.782,21.661,212.825,21.253,212.825,20.842z"/>
	<path fill="#FFFFFF" d="M223.548,25.205c0,0.078-0.028,0.137-0.081,0.176c-0.052,0.039-0.123,0.068-0.215,0.088
		c-0.09,0.021-0.225,0.029-0.399,0.029c-0.17,0-0.305-0.01-0.406-0.029c-0.102-0.019-0.173-0.049-0.22-0.088
		c-0.045-0.039-0.068-0.098-0.068-0.176v-0.88c-0.383,0.41-0.813,0.73-1.286,0.958c-0.47,0.229-0.971,0.342-1.501,0.342
		c-0.46,0-0.881-0.062-1.255-0.181c-0.373-0.12-0.694-0.295-0.957-0.523c-0.265-0.229-0.468-0.508-0.616-0.841
		c-0.145-0.333-0.22-0.711-0.22-1.136c0-0.495,0.102-0.926,0.302-1.29c0.204-0.365,0.492-0.669,0.872-0.91
		c0.376-0.241,0.839-0.421,1.388-0.542c0.548-0.12,1.163-0.181,1.848-0.181h1.213v-0.686c0-0.339-0.036-0.639-0.108-0.899
		c-0.071-0.262-0.188-0.479-0.348-0.65c-0.158-0.172-0.366-0.304-0.619-0.391c-0.256-0.088-0.567-0.132-0.938-0.132
		c-0.397,0-0.754,0.047-1.07,0.142c-0.317,0.095-0.594,0.199-0.832,0.313c-0.239,0.115-0.438,0.22-0.596,0.313
		c-0.161,0.095-0.279,0.142-0.356,0.142c-0.053,0-0.098-0.013-0.138-0.039c-0.037-0.025-0.073-0.064-0.102-0.116
		c-0.03-0.053-0.052-0.119-0.063-0.201c-0.015-0.081-0.021-0.171-0.021-0.27c0-0.163,0.012-0.292,0.035-0.386
		c0.024-0.094,0.078-0.184,0.166-0.269c0.09-0.085,0.241-0.185,0.456-0.299c0.215-0.113,0.463-0.219,0.744-0.313
		c0.279-0.095,0.584-0.173,0.917-0.235c0.333-0.062,0.669-0.093,1.007-0.093c0.631,0,1.17,0.072,1.611,0.215
		c0.444,0.144,0.802,0.354,1.078,0.63c0.271,0.278,0.471,0.622,0.596,1.032c0.123,0.41,0.187,0.89,0.187,1.438v5.937H223.548z
		 M221.942,21.185h-1.377c-0.442,0-0.827,0.039-1.153,0.112c-0.326,0.076-0.596,0.187-0.812,0.333
		c-0.215,0.146-0.373,0.323-0.475,0.528c-0.102,0.206-0.151,0.442-0.151,0.709c0,0.457,0.146,0.819,0.438,1.09
		c0.288,0.271,0.694,0.406,1.215,0.406c0.425,0,0.817-0.107,1.179-0.323c0.362-0.215,0.74-0.544,1.137-0.988V21.185L221.942,21.185z
		"/>
	<path fill="#FFFFFF" d="M235.567,28.433c-0.005,0.071-0.064,0.125-0.175,0.16c-0.111,0.036-0.277,0.055-0.499,0.055
		c-0.241,0-0.416-0.021-0.527-0.06c-0.11-0.039-0.168-0.091-0.168-0.155v-2.994h-7.193c-0.156,0-0.279-0.047-0.366-0.142
		c-0.088-0.095-0.133-0.237-0.133-0.426v-8.479c0-0.053,0.013-0.097,0.033-0.133c0.024-0.035,0.066-0.068,0.128-0.098
		c0.062-0.03,0.146-0.049,0.248-0.059c0.104-0.011,0.236-0.016,0.393-0.016c0.163,0,0.295,0.005,0.399,0.016
		c0.104,0.009,0.187,0.028,0.243,0.059c0.062,0.029,0.102,0.063,0.128,0.098c0.025,0.036,0.04,0.08,0.04,0.133v7.657h4.211v-7.657
		c0-0.053,0.012-0.097,0.038-0.133c0.028-0.035,0.071-0.068,0.133-0.098c0.063-0.03,0.146-0.049,0.25-0.059
		c0.104-0.011,0.234-0.016,0.39-0.016c0.163,0,0.298,0.005,0.402,0.016c0.104,0.009,0.187,0.028,0.243,0.059
		c0.06,0.029,0.102,0.063,0.128,0.098c0.025,0.036,0.04,0.08,0.04,0.133v7.657h1.222c0.158,0,0.26,0.03,0.312,0.089
		c0.053,0.057,0.078,0.162,0.078,0.313v3.982H235.567z"/>
	<path fill="#FFFFFF" d="M245.176,25.205c0,0.046-0.014,0.088-0.037,0.127c-0.026,0.039-0.071,0.069-0.128,0.092
		c-0.059,0.023-0.14,0.041-0.246,0.054c-0.104,0.014-0.233,0.021-0.39,0.021s-0.288-0.006-0.39-0.021
		c-0.104-0.014-0.189-0.03-0.256-0.054c-0.063-0.022-0.11-0.053-0.137-0.092c-0.026-0.04-0.038-0.082-0.038-0.127V20.14
		c0-0.255,0.005-0.514,0.02-0.778c0.012-0.264,0.028-0.523,0.049-0.777c-0.15,0.262-0.316,0.518-0.493,0.769
		c-0.183,0.251-0.359,0.5-0.544,0.748l-3.733,5.104c-0.045,0.052-0.086,0.099-0.123,0.137c-0.036,0.039-0.081,0.07-0.135,0.093
		c-0.057,0.022-0.126,0.039-0.213,0.049c-0.083,0.011-0.187,0.016-0.313,0.016c-0.142,0-0.26-0.006-0.35-0.02
		c-0.092-0.015-0.168-0.031-0.222-0.055c-0.055-0.021-0.095-0.053-0.116-0.092c-0.023-0.04-0.033-0.082-0.033-0.127v-8.822
		c0-0.045,0.01-0.088,0.033-0.127c0.021-0.039,0.064-0.071,0.125-0.098c0.064-0.026,0.147-0.044,0.251-0.054
		c0.104-0.01,0.231-0.016,0.381-0.016c0.312,0,0.526,0.024,0.645,0.074c0.118,0.048,0.178,0.122,0.178,0.22v5.095
		c0,0.254-0.007,0.508-0.021,0.759c-0.012,0.251-0.028,0.501-0.047,0.749c0.148-0.248,0.3-0.49,0.453-0.729
		c0.154-0.237,0.317-0.471,0.492-0.698l3.783-5.174c0.04-0.052,0.08-0.098,0.123-0.137c0.042-0.039,0.095-0.069,0.156-0.093
		c0.063-0.022,0.135-0.039,0.22-0.048c0.085-0.01,0.196-0.016,0.333-0.016s0.25,0.006,0.348,0.016
		c0.094,0.009,0.17,0.026,0.225,0.054c0.057,0.026,0.094,0.06,0.118,0.098c0.021,0.039,0.032,0.086,0.032,0.138V25.205
		L245.176,25.205z"/>
	<path fill="#FFFFFF" d="M255.995,25.205c0,0.046-0.012,0.088-0.038,0.127c-0.025,0.039-0.068,0.069-0.127,0.092
		c-0.06,0.023-0.14,0.041-0.243,0.054c-0.106,0.014-0.234,0.021-0.393,0.021c-0.156,0-0.286-0.006-0.391-0.021
		c-0.104-0.014-0.188-0.03-0.252-0.054c-0.066-0.022-0.114-0.053-0.14-0.092c-0.023-0.04-0.038-0.082-0.038-0.127V20.14
		c0-0.255,0.007-0.514,0.019-0.778c0.015-0.264,0.028-0.523,0.05-0.777c-0.151,0.262-0.314,0.518-0.494,0.769
		c-0.179,0.251-0.358,0.5-0.541,0.748l-3.733,5.104c-0.048,0.052-0.088,0.099-0.123,0.137c-0.035,0.039-0.083,0.07-0.138,0.093
		c-0.054,0.022-0.125,0.039-0.21,0.049c-0.083,0.011-0.188,0.016-0.312,0.016c-0.143,0-0.263-0.006-0.353-0.02
		c-0.092-0.015-0.165-0.031-0.22-0.055c-0.055-0.021-0.095-0.053-0.118-0.092c-0.021-0.04-0.033-0.082-0.033-0.127v-8.822
		c0-0.045,0.012-0.088,0.033-0.127c0.023-0.039,0.066-0.071,0.128-0.098s0.146-0.044,0.25-0.054c0.104-0.01,0.229-0.016,0.381-0.016
		c0.312,0,0.529,0.024,0.645,0.074c0.119,0.048,0.178,0.122,0.178,0.22v5.095c0,0.254-0.007,0.508-0.021,0.759
		c-0.014,0.251-0.028,0.501-0.047,0.749c0.148-0.248,0.3-0.49,0.453-0.729c0.151-0.237,0.317-0.471,0.494-0.698l3.784-5.174
		c0.037-0.052,0.077-0.098,0.122-0.137c0.041-0.039,0.093-0.069,0.154-0.093c0.062-0.022,0.137-0.039,0.22-0.048
		c0.085-0.01,0.196-0.016,0.333-0.016s0.253,0.006,0.348,0.016c0.095,0.009,0.17,0.026,0.225,0.054
		c0.054,0.026,0.094,0.06,0.118,0.098c0.023,0.039,0.035,0.086,0.035,0.138v8.808H255.995z"/>
</g>
<g id="Layer_1_2_">
</g>
</svg>
